<svg width="100" height="100" viewBox="0 0 100 100" fill="none" xmlns="http://www.w3.org/2000/svg">
<g filter="url(#filter0_d_53_376)">
<circle cx="50" cy="50" r="20" fill="white"/>
</g>
<path d="M49.5376 50.0039L53.2831 46.2582C53.4734 46.0681 53.5684 45.8355 53.5684 45.5606C53.5684 45.2857 53.4734 45.0533 53.2831 44.8632L52.7052 44.2851C52.5152 44.095 52.2826 44 52.0078 44C51.733 44 51.5005 44.095 51.3102 44.2851L46.2852 49.3024C46.0951 49.4926 46 49.7251 46 50C46 50.275 46.095 50.5073 46.2852 50.6975L51.3102 55.7148C51.5005 55.905 51.7329 56 52.0078 56C52.2826 56 52.5151 55.905 52.7051 55.7148L53.2831 55.1368C53.4734 54.9468 53.5683 54.7156 53.5683 54.4431C53.5683 54.1709 53.4734 53.9371 53.2831 53.7419L49.5376 50.0039Z" fill="#262728"/>
<defs>
<filter id="filter0_d_53_376" x="0" y="0" width="100" height="100" filterUnits="userSpaceOnUse" color-interpolation-filters="sRGB">
<feFlood flood-opacity="0" result="BackgroundImageFix"/>
<feColorMatrix in="SourceAlpha" type="matrix" values="0 0 0 0 0 0 0 0 0 0 0 0 0 0 0 0 0 0 127 0" result="hardAlpha"/>
<feOffset/>
<feGaussianBlur stdDeviation="15"/>
<feColorMatrix type="matrix" values="0 0 0 0 0 0 0 0 0 0 0 0 0 0 0 0 0 0 0.1 0"/>
<feBlend mode="normal" in2="BackgroundImageFix" result="effect1_dropShadow_53_376"/>
<feBlend mode="normal" in="SourceGraphic" in2="effect1_dropShadow_53_376" result="shape"/>
</filter>
</defs>
</svg>
