<svg width="40" height="40" viewBox="0 0 40 40" fill="none" xmlns="http://www.w3.org/2000/svg">
<g filter="url(#filter0_d_67_595)">
<circle cx="20" cy="20" r="10" fill="white"/>
</g>
<path d="M19.7688 20.0019L21.6416 18.1291C21.7367 18.034 21.7842 17.9178 21.7842 17.7803C21.7842 17.6429 21.7367 17.5267 21.6416 17.4316L21.3526 17.1425C21.2576 17.0475 21.1413 17 21.0039 17C20.8665 17 20.7503 17.0475 20.6551 17.1425L18.1426 19.6512C18.0475 19.7463 18 19.8625 18 20C18 20.1375 18.0475 20.2536 18.1426 20.3487L20.6551 22.8574C20.7503 22.9525 20.8665 23 21.0039 23C21.1413 23 21.2576 22.9525 21.3526 22.8574L21.6415 22.5684C21.7367 22.4734 21.7842 22.3578 21.7842 22.2216C21.7842 22.0854 21.7367 21.9685 21.6415 21.8709L19.7688 20.0019Z" fill="#262728"/>
<defs>
<filter id="filter0_d_67_595" x="0" y="0" width="40" height="40" filterUnits="userSpaceOnUse" color-interpolation-filters="sRGB">
<feFlood flood-opacity="0" result="BackgroundImageFix"/>
<feColorMatrix in="SourceAlpha" type="matrix" values="0 0 0 0 0 0 0 0 0 0 0 0 0 0 0 0 0 0 127 0" result="hardAlpha"/>
<feOffset/>
<feGaussianBlur stdDeviation="5"/>
<feColorMatrix type="matrix" values="0 0 0 0 0 0 0 0 0 0 0 0 0 0 0 0 0 0 0.1 0"/>
<feBlend mode="normal" in2="BackgroundImageFix" result="effect1_dropShadow_67_595"/>
<feBlend mode="normal" in="SourceGraphic" in2="effect1_dropShadow_67_595" result="shape"/>
</filter>
</defs>
</svg>
