<svg width="40" height="40" viewBox="0 0 40 40" fill="none" xmlns="http://www.w3.org/2000/svg">
<g filter="url(#filter0_d_67_602)">
<circle cx="10" cy="10" r="10" transform="matrix(-1 0 0 1 30 10)" fill="white"/>
</g>
<path d="M20.2312 20.0019L18.3584 18.1291C18.2633 18.034 18.2158 17.9178 18.2158 17.7803C18.2158 17.6429 18.2633 17.5267 18.3584 17.4316L18.6474 17.1425C18.7424 17.0475 18.8587 17 18.9961 17C19.1335 17 19.2497 17.0475 19.3449 17.1425L21.8574 19.6512C21.9525 19.7463 22 19.8625 22 20C22 20.1375 21.9525 20.2536 21.8574 20.3487L19.3449 22.8574C19.2497 22.9525 19.1335 23 18.9961 23C18.8587 23 18.7424 22.9525 18.6474 22.8574L18.3585 22.5684C18.2633 22.4734 18.2158 22.3578 18.2158 22.2216C18.2158 22.0854 18.2633 21.9685 18.3585 21.8709L20.2312 20.0019Z" fill="#262728"/>
<defs>
<filter id="filter0_d_67_602" x="0" y="0" width="40" height="40" filterUnits="userSpaceOnUse" color-interpolation-filters="sRGB">
<feFlood flood-opacity="0" result="BackgroundImageFix"/>
<feColorMatrix in="SourceAlpha" type="matrix" values="0 0 0 0 0 0 0 0 0 0 0 0 0 0 0 0 0 0 127 0" result="hardAlpha"/>
<feOffset/>
<feGaussianBlur stdDeviation="5"/>
<feColorMatrix type="matrix" values="0 0 0 0 0 0 0 0 0 0 0 0 0 0 0 0 0 0 0.1 0"/>
<feBlend mode="normal" in2="BackgroundImageFix" result="effect1_dropShadow_67_602"/>
<feBlend mode="normal" in="SourceGraphic" in2="effect1_dropShadow_67_602" result="shape"/>
</filter>
</defs>
</svg>
