<svg width="100" height="100" viewBox="0 0 100 100" fill="none" xmlns="http://www.w3.org/2000/svg">
<g filter="url(#filter0_d_53_379)">
<circle cx="20" cy="20" r="20" transform="matrix(-1 0 0 1 70 30)" fill="white"/>
</g>
<path d="M50.4624 50.0039L46.7169 46.2582C46.5266 46.0681 46.4316 45.8355 46.4316 45.5606C46.4316 45.2857 46.5266 45.0533 46.7169 44.8632L47.2948 44.2851C47.4848 44.095 47.7174 44 47.9922 44C48.267 44 48.4995 44.095 48.6898 44.2851L53.7148 49.3024C53.9049 49.4926 54 49.7251 54 50C54 50.275 53.905 50.5073 53.7148 50.6975L48.6898 55.7148C48.4995 55.905 48.2671 56 47.9922 56C47.7174 56 47.4849 55.905 47.2949 55.7148L46.7169 55.1368C46.5266 54.9468 46.4317 54.7156 46.4317 54.4431C46.4317 54.1709 46.5266 53.9371 46.7169 53.7419L50.4624 50.0039Z" fill="#262728"/>
<defs>
<filter id="filter0_d_53_379" x="0" y="0" width="100" height="100" filterUnits="userSpaceOnUse" color-interpolation-filters="sRGB">
<feFlood flood-opacity="0" result="BackgroundImageFix"/>
<feColorMatrix in="SourceAlpha" type="matrix" values="0 0 0 0 0 0 0 0 0 0 0 0 0 0 0 0 0 0 127 0" result="hardAlpha"/>
<feOffset/>
<feGaussianBlur stdDeviation="15"/>
<feColorMatrix type="matrix" values="0 0 0 0 0 0 0 0 0 0 0 0 0 0 0 0 0 0 0.1 0"/>
<feBlend mode="normal" in2="BackgroundImageFix" result="effect1_dropShadow_53_379"/>
<feBlend mode="normal" in="SourceGraphic" in2="effect1_dropShadow_53_379" result="shape"/>
</filter>
</defs>
</svg>
