<svg width="30" height="30" viewBox="0 0 30 30" fill="none" xmlns="http://www.w3.org/2000/svg">
<circle cx="15" cy="15" r="15" fill="#49A069"/>
<path d="M12.6521 15.8271C12.6521 15.6267 12.4895 15.4643 12.2889 15.4643H11.0216C10.8213 15.4643 10.6587 15.6267 10.6587 15.8271V17.0942C10.6587 17.2949 10.8213 17.4574 11.0216 17.4574H12.2889C12.4895 17.4574 12.6521 17.2949 12.6521 17.0942V15.8271Z" fill="white"/>
<path d="M15.8193 15.8271C15.8193 15.6267 15.6567 15.4643 15.4565 15.4643H14.189C13.9886 15.4643 13.826 15.6267 13.826 15.8271V17.0942C13.826 17.2949 13.9886 17.4574 14.189 17.4574H15.4565C15.6567 17.4574 15.8193 17.2949 15.8193 17.0942V15.8271Z" fill="white"/>
<path d="M18.9866 15.8271C18.9866 15.6267 18.824 15.4643 18.6236 15.4643H17.3563C17.1557 15.4643 16.9932 15.6267 16.9932 15.8271V17.0942C16.9932 17.2949 17.1557 17.4574 17.3563 17.4574H18.6236C18.824 17.4574 18.9866 17.2949 18.9866 17.0942V15.8271Z" fill="white"/>
<path d="M12.6521 18.9946C12.6521 18.7938 12.4895 18.6316 12.2889 18.6316H11.0216C10.8213 18.6316 10.6587 18.7938 10.6587 18.9946V20.2615C10.6587 20.4621 10.8213 20.6245 11.0216 20.6245H12.2889C12.4895 20.6245 12.6521 20.462 12.6521 20.2615V18.9946Z" fill="white"/>
<path d="M15.8193 18.9946C15.8193 18.7938 15.6567 18.6316 15.4565 18.6316H14.189C13.9886 18.6316 13.826 18.7938 13.826 18.9946V20.2615C13.826 20.4621 13.9886 20.6245 14.189 20.6245H15.4565C15.6567 20.6245 15.8193 20.462 15.8193 20.2615V18.9946Z" fill="white"/>
<path d="M18.9866 18.9946C18.9866 18.7938 18.824 18.6316 18.6238 18.6316H17.3563C17.1557 18.6316 16.9932 18.7938 16.9932 18.9946V20.2615C16.9932 20.4621 17.1557 20.6245 17.3563 20.6245H18.6238C18.824 20.6245 18.9866 20.462 18.9866 20.2615V18.9946Z" fill="white"/>
<path d="M21.2527 8.78154V10.717C21.2527 11.5918 20.543 12.2968 19.6683 12.2968H18.6689C17.7941 12.2968 17.075 11.5918 17.075 10.717V8.77459H12.5702V10.717C12.5702 11.5918 11.8512 12.2968 10.9766 12.2968H9.9769C9.10226 12.2968 8.39261 11.5918 8.39261 10.717V8.78154C7.62816 8.80458 7 9.43714 7 10.2146V21.5573C7 22.3495 7.64203 23 8.43414 23H21.2111C22.0021 23 22.6453 22.3481 22.6453 21.5573V10.2146C22.6453 9.43714 22.0171 8.80458 21.2527 8.78154ZM20.7885 20.851C20.7885 21.1933 20.5109 21.471 20.1685 21.471H9.44949C9.10704 21.471 8.82949 21.1933 8.82949 20.851V14.9921C8.82949 14.6496 9.10701 14.3719 9.44949 14.3719H20.1684C20.5109 14.3719 20.7884 14.6496 20.7884 14.9921L20.7885 20.851Z" fill="white"/>
<path d="M9.9734 11.2592H10.962C11.2621 11.2592 11.5054 11.0162 11.5054 10.7161V7.54321C11.5054 7.2431 11.2621 7 10.962 7H9.9734C9.67329 7 9.43003 7.2431 9.43003 7.54321V10.7161C9.43003 11.0162 9.67329 11.2592 9.9734 11.2592Z" fill="white"/>
<path d="M18.6561 11.2592H19.6448C19.9446 11.2592 20.1879 11.0162 20.1879 10.7161V7.54321C20.188 7.2431 19.9447 7 19.6448 7H18.6561C18.3561 7 18.1128 7.2431 18.1128 7.54321V10.7161C18.1128 11.0162 18.3561 11.2592 18.6561 11.2592Z" fill="white"/>
</svg>
