<svg width="32" height="32" viewBox="0 0 32 32" fill="none" xmlns="http://www.w3.org/2000/svg">
<circle cx="15" cy="17" r="15" fill="white"/>
<path d="M21.5635 15.3571C21.2578 14.9743 20.8406 14.7629 20.3891 14.7629H19.3576C19.2604 12.1171 17.3431 10 15 10C12.6569 10 10.7396 12.1171 10.6424 14.7629H9.61087C9.15939 14.7629 8.74221 14.9743 8.43646 15.3571C8.05071 15.8371 7.91069 16.5057 8.05642 17.1486L9.29369 22.6C9.47943 23.4229 10.1195 24 10.8481 24H19.149C19.8776 24 20.5177 23.4257 20.7034 22.6L21.9436 17.1486C22.0893 16.5057 21.9493 15.8371 21.5635 15.3571ZM15 11.1657C16.703 11.1657 18.0975 12.76 18.1889 14.7629H11.8111C11.9025 12.7629 13.297 11.1657 15 11.1657ZM20.8063 16.8886L19.569 22.3429C19.5062 22.6229 19.3262 22.8343 19.1519 22.8343H10.8481C10.6738 22.8343 10.4938 22.6229 10.431 22.3429L9.19368 16.8886C9.12796 16.6 9.08796 15.9286 9.61087 15.9286H20.3891C20.952 15.9286 20.872 16.6 20.8063 16.8886Z" fill="#262728"/>
<path d="M12.1054 17.0886C11.7825 17.0886 11.5225 17.3486 11.5225 17.6714V21.3143C11.5225 21.6371 11.7825 21.8971 12.1054 21.8971C12.4283 21.8971 12.6883 21.6371 12.6883 21.3143V17.6714C12.6912 17.3514 12.4283 17.0886 12.1054 17.0886Z" fill="#262728"/>
<path d="M14.9314 17.0886C14.6085 17.0886 14.3485 17.3486 14.3485 17.6714V21.3143C14.3485 21.6371 14.6085 21.8971 14.9314 21.8971C15.2543 21.8971 15.5143 21.6371 15.5143 21.3143V17.6714C15.5143 17.3514 15.2515 17.0886 14.9314 17.0886Z" fill="#262728"/>
<path d="M17.7546 17.0886C17.4317 17.0886 17.1717 17.3486 17.1717 17.6714V21.3143C17.1717 21.6371 17.4317 21.8971 17.7546 21.8971C18.0775 21.8971 18.3375 21.6371 18.3375 21.3143V17.6714C18.3375 17.3514 18.0775 17.0886 17.7546 17.0886Z" fill="#262728"/>
<circle cx="25" cy="7" r="6" fill="#49A069" stroke="white" stroke-width="2"/>
</svg>
