<svg width="16" height="16" viewBox="0 0 16 16" fill="none" xmlns="http://www.w3.org/2000/svg">
<path d="M8.88394 7.99996L15.817 14.933C16.0611 15.1771 16.0611 15.5729 15.817 15.8169C15.5729 16.061 15.1771 16.061 14.9331 15.8169L8 8.88387L1.06698 15.8169C0.822883 16.061 0.427133 16.061 0.18307 15.8169C-0.0609922 15.5728 -0.0610234 15.1771 0.18307 14.933L7.1161 8L0.18307 1.06694C-0.0610234 0.822844 -0.0610234 0.427094 0.18307 0.183031C0.305101 0.0609999 0.46507 0 0.625039 0C0.785007 0 0.944945 0.0609999 1.06701 0.183031L8 7.11606L14.933 0.183031C15.0551 0.0609999 15.215 0 15.375 0C15.535 0 15.6949 0.0609999 15.817 0.183031C16.0611 0.427125 16.0611 0.822875 15.817 1.06694L8.88394 7.99996Z" fill="#A8A9AA"/>
</svg>
