<svg width="42" height="30" viewBox="0 0 42 30" fill="none" xmlns="http://www.w3.org/2000/svg">
<path fill-rule="evenodd" clip-rule="evenodd" d="M20.83 0L26.9514 8.81598L20.83 3.11709L14.7092 8.81598L20.83 0Z" fill="#49A069"/>
<path fill-rule="evenodd" clip-rule="evenodd" d="M18.6673 29.9997H0L12.4557 12.0605L2.8449 28.5115L18.6673 29.9997Z" fill="#49A069"/>
<path fill-rule="evenodd" clip-rule="evenodd" d="M22.9937 29.9997H41.6609L29.2052 12.0605L38.816 28.5115L22.9937 29.9997Z" fill="#49A069"/>
<path fill-rule="evenodd" clip-rule="evenodd" d="M20.8301 26.8873C20.6468 26.9125 20.6659 27.079 20.5656 27.3026C20.4882 27.4742 20.3386 27.6569 20.2926 27.9142C20.2052 28.4102 20.2669 29.0941 20.06 29.431C19.5198 29.431 18.9795 29.431 18.4392 29.431C18.4442 29.0672 18.5944 28.7931 18.5984 28.4299C18.6096 27.3962 18.4398 26.894 18.4829 26.1861C18.5468 25.1412 18.8147 24.0981 18.9699 23.0667C19.0198 22.7332 19.1633 22.5494 19.1969 22.1945C19.2423 21.722 19.0647 21.0191 18.8052 20.3857C18.6185 19.9289 18.3815 19.5085 18.1926 19.2361C18.0441 19.351 17.7285 19.4609 17.2667 19.4457C16.8144 19.4306 16.2198 19.291 15.6414 19.2434C15.137 19.2025 14.6931 19.3246 14.2088 19.2781C13.3267 19.1935 12.4888 18.9328 12.166 18.8235C11.8885 18.9418 11.5433 18.9345 11.1582 18.8549C10.9021 18.8661 10.6465 18.8773 10.3904 18.8886C10.2705 18.8846 10.2822 18.7568 10.3725 18.7299C10.5905 18.7058 10.8085 18.6817 11.026 18.6582C10.7149 18.652 10.4039 18.6464 10.0928 18.6402C9.95606 18.6397 9.94597 18.4413 10.0771 18.425C10.3439 18.4104 10.6112 18.3953 10.8786 18.3802C10.8791 18.3661 10.8797 18.3521 10.8808 18.3381C10.5787 18.2888 10.2761 18.2395 9.974 18.1901C9.84453 18.1666 9.88152 18.013 9.97848 18.0153C10.2957 18.0343 10.6129 18.0528 10.9301 18.0713C10.9352 18.0489 10.9402 18.0265 10.9458 18.004C10.7295 17.883 10.4874 17.7989 10.229 17.7378C10.0726 17.6991 10.1371 17.5388 10.2649 17.5427C10.5799 17.5842 10.8842 17.6705 11.1807 17.7894C11.4659 17.8482 11.6627 17.8353 11.6195 17.6257C11.4514 17.4306 11.3628 17.2339 11.4693 17.0326C11.5102 16.9996 11.5444 17.0024 11.5702 17.0416C11.6901 17.3695 11.8908 17.4643 12.0544 17.6515C12.1828 17.7983 12.273 17.9777 12.4008 18.1251C12.5611 18.1845 12.9114 18.3135 13.3205 18.2972C13.6904 18.2826 14.1046 18.1262 14.5586 18.1145C14.943 18.1044 15.3219 18.2277 15.6845 18.2294C15.9025 18.2299 16.097 18.1167 16.3375 18.0892C16.4893 18.0719 16.6463 18.0887 16.8066 18.0707C17.3228 18.0136 17.6865 17.615 18.1786 17.5007C18.5956 17.4032 18.9117 17.5803 19.2379 17.5433C19.4732 17.5164 19.6083 17.3589 19.7557 17.2524C19.9104 17.1408 20.0729 17.0758 20.1245 16.8768C20.194 16.6078 20.1396 16.207 20.152 15.9486C19.9351 16.0585 19.7428 15.1644 19.9351 15.1493C19.9345 14.9464 19.8622 14.7451 19.8891 14.577C19.9261 14.3494 20.0421 14.1869 20.1626 14.04C20.3392 13.8236 20.546 13.6504 20.8301 13.6426C21.1148 13.6504 21.3216 13.8236 21.4982 14.04C21.6187 14.1869 21.7347 14.3494 21.7717 14.577C21.7986 14.7451 21.7263 14.9464 21.7257 15.1493C21.918 15.1644 21.7257 16.0585 21.5088 15.9486C21.5212 16.207 21.4668 16.6078 21.5363 16.8768C21.5879 17.0758 21.7504 17.1408 21.9051 17.2524C22.0525 17.3589 22.1876 17.5164 22.4229 17.5433C22.7491 17.5803 23.0652 17.4032 23.4822 17.5007C23.9737 17.615 24.338 18.0136 24.8542 18.0707C25.0145 18.0887 25.1714 18.0719 25.3228 18.0892C25.5638 18.1167 25.7582 18.2299 25.9757 18.2294C26.3389 18.2277 26.7178 18.1044 27.1022 18.1145C27.5562 18.1262 27.9698 18.2826 28.3403 18.2972C28.7494 18.3135 29.0997 18.1845 29.26 18.1251C29.3878 17.9777 29.478 17.7983 29.6064 17.6515C29.77 17.4643 29.9707 17.3695 30.0906 17.0416C30.1164 17.0024 30.15 16.9996 30.1909 17.0326C30.298 17.2339 30.2094 17.4306 30.0413 17.6257C29.9976 17.8353 30.1949 17.8482 30.4801 17.7894C30.7766 17.6705 31.0809 17.5842 31.3959 17.5427C31.5237 17.5388 31.5882 17.6991 31.4318 17.7378C31.1734 17.7989 30.9313 17.883 30.715 18.004C30.7206 18.0265 30.7256 18.0489 30.7307 18.0713C31.0479 18.0528 31.3651 18.0343 31.6823 18.0153C31.7793 18.013 31.8163 18.1666 31.6868 18.1901C31.3847 18.2395 31.0821 18.2888 30.78 18.3381C30.7805 18.3521 30.7817 18.3661 30.7822 18.3802C31.0496 18.3953 31.3169 18.4104 31.5837 18.425C31.7148 18.4413 31.7047 18.6397 31.568 18.6402C31.2569 18.6464 30.9459 18.652 30.6343 18.6582C30.8523 18.6817 31.0703 18.7058 31.2883 18.7299C31.3785 18.7568 31.3903 18.8846 31.2704 18.8886C31.0142 18.8773 30.7587 18.8661 30.5025 18.8549C30.1175 18.9345 29.7723 18.9418 29.4948 18.8235C29.172 18.9328 28.3341 19.1935 27.452 19.2781C26.9677 19.3246 26.5233 19.2025 26.0194 19.2434C25.441 19.291 24.8464 19.4306 24.3941 19.4457C23.9323 19.4609 23.6167 19.351 23.4676 19.2361C23.2793 19.5085 23.0423 19.9289 22.8556 20.3857C22.5961 21.0191 22.4185 21.722 22.4639 22.1945C22.4975 22.5494 22.641 22.7332 22.6908 23.0667C22.8461 24.0981 23.114 25.1412 23.1779 26.1861C23.221 26.894 23.0512 27.3962 23.0624 28.4299C23.0664 28.7931 23.2166 29.0672 23.2216 29.431C22.6813 29.431 22.141 29.431 21.6008 29.431C21.3939 29.0941 21.4556 28.4102 21.3682 27.9142C21.3222 27.6569 21.1726 27.4742 21.0952 27.3026C20.9943 27.079 21.0139 26.9125 20.8301 26.8873Z" fill="#2B3966"/>
<path fill-rule="evenodd" clip-rule="evenodd" d="M27.5068 28.3871L36.8587 27.5076L32.7937 20.5498L35.0624 26.5682L27.5068 28.3871Z" fill="#2B3966"/>
<path fill-rule="evenodd" clip-rule="evenodd" d="M14.154 28.3871L4.80212 27.5076L8.86714 20.5498L6.5984 26.5682L14.154 28.3871Z" fill="#2B3966"/>
<path fill-rule="evenodd" clip-rule="evenodd" d="M20.8298 6.27036L17.355 7.96876L20.8298 4.7334L24.3053 7.96876L20.8298 6.27036Z" fill="#2B3966"/>
<path d="M22.103 10.1305L20.8306 8.0957L19.5582 10.1305L20.8306 12.1653L22.103 10.1305Z" fill="#49A069"/>
</svg>
