<svg width="34" height="34" viewBox="0 0 34 34" fill="none" xmlns="http://www.w3.org/2000/svg">
<circle cx="17" cy="17" r="17" fill="#BB0000"/>
<path fill-rule="evenodd" clip-rule="evenodd" d="M22.6757 10H11.1089C8.83965 10 7 11.8397 7 14.1089V19.8911C7 22.1603 8.83965 24 11.1089 24H22.6757C24.9449 24 26.7845 22.1603 26.7845 19.8911V14.1089C26.7845 11.8397 24.9449 10 22.6757 10ZM19.8966 17.2814L14.4865 19.8615C14.3424 19.9303 14.1759 19.8254 14.1759 19.6656V14.3436C14.1759 14.1819 14.3469 14.0767 14.4913 14.15L19.9014 16.8916C20.0623 16.973 20.0595 17.2039 19.8966 17.2814Z" fill="white"/>
</svg>
