<svg width="34" height="34" viewBox="0 0 34 34" fill="none" xmlns="http://www.w3.org/2000/svg">
<circle cx="17" cy="17" r="17" fill="#FE004D"/>
<path d="M23.8592 13.0062C22.9571 13.0062 22.1247 12.7032 21.4563 12.1921C20.6897 11.6062 20.1389 10.7468 19.9444 9.75617C19.8962 9.51141 19.8703 9.25884 19.8678 9H17.2908L17.2877 20.0486C17.2877 21.094 16.6162 21.9803 15.6853 22.2921C15.4152 22.3825 15.1234 22.4254 14.8196 22.4085C14.4319 22.3869 14.0685 22.2683 13.7526 22.0767C13.0805 21.6692 12.6248 20.93 12.6125 20.0843C12.593 18.7626 13.6471 17.685 14.9499 17.685C15.2071 17.685 15.4541 17.7275 15.6853 17.8048V15.1523C15.4414 15.1157 15.1932 15.0966 14.9422 15.0966C13.5161 15.0966 12.1824 15.6975 11.229 16.7801C10.5084 17.5983 10.0762 18.6421 10.0095 19.7366C9.92211 21.1744 10.4411 22.5412 11.4476 23.5496C11.5955 23.6977 11.7508 23.8351 11.9132 23.9618C12.7761 24.6351 13.8311 25 14.9422 25C15.1932 25 15.4414 24.9812 15.6853 24.9446C16.7233 24.7887 17.681 24.3071 18.4368 23.5496C19.3655 22.6191 19.8786 21.3838 19.8842 20.069L19.8709 14.2299C20.314 14.5764 20.7984 14.8631 21.3183 15.0856C22.1269 15.4315 22.9843 15.6068 23.8666 15.6064V13.0056C23.8672 13.0062 23.8598 13.0062 23.8592 13.0062Z" fill="white"/>
</svg>
