<svg width="34" height="34" viewBox="0 0 34 34" fill="none" xmlns="http://www.w3.org/2000/svg">
<circle cx="17" cy="17" r="17" fill="#C32AA3"/>
<path d="M20.2335 9H13.7665C11.1382 9 9 11.1382 9 13.7665V20.2335C9 22.8618 11.1382 25 13.7665 25H20.2335C22.8618 25 25 22.8618 25 20.2335V13.7665C25 11.1382 22.8617 9 20.2335 9ZM23.3904 20.2335C23.3904 21.977 21.977 23.3904 20.2335 23.3904H13.7665C12.023 23.3904 10.6096 21.977 10.6096 20.2335V13.7665C10.6096 12.023 12.023 10.6096 13.7665 10.6096H20.2335C21.977 10.6096 23.3904 12.023 23.3904 13.7665V20.2335Z" fill="white"/>
<path d="M17 12.8618C14.7182 12.8618 12.8618 14.7182 12.8618 17C12.8618 19.2817 14.7182 21.1381 17 21.1381C19.2818 21.1381 21.1382 19.2818 21.1382 17C21.1382 14.7182 19.2818 12.8618 17 12.8618ZM17 19.5286C15.6035 19.5286 14.4714 18.3965 14.4714 17C14.4714 15.6035 15.6035 14.4714 17 14.4714C18.3965 14.4714 19.5286 15.6035 19.5286 17C19.5286 18.3965 18.3965 19.5286 17 19.5286Z" fill="white"/>
<path d="M21.1462 13.8845C21.6938 13.8845 22.1378 13.4405 22.1378 12.8929C22.1378 12.3453 21.6938 11.9013 21.1462 11.9013C20.5985 11.9013 20.1546 12.3453 20.1546 12.8929C20.1546 13.4405 20.5985 13.8845 21.1462 13.8845Z" fill="white"/>
</svg>
