<svg width="14" height="16" viewBox="0 0 14 16" fill="none" xmlns="http://www.w3.org/2000/svg">
<path d="M13.8592 4.00618C12.9571 4.00618 12.1247 3.70321 11.4563 3.19211C10.6897 2.60621 10.1389 1.74676 9.94441 0.756167C9.89624 0.511414 9.87031 0.258837 9.86784 0H7.29079L7.28771 11.0486C7.28771 12.094 6.6162 12.9803 5.68535 13.2921C5.4152 13.3825 5.12344 13.4254 4.81964 13.4085C4.43187 13.3869 4.06848 13.2683 3.75264 13.0767C3.08052 12.6692 2.62482 11.93 2.61247 11.0843C2.59302 9.76256 3.64705 8.68496 4.94993 8.68496C5.20711 8.68496 5.4541 8.72753 5.68535 8.80484V6.15231C5.44145 6.11569 5.19322 6.09659 4.94221 6.09659C3.51615 6.09659 2.18239 6.69752 1.22901 7.78013C0.50841 8.59827 0.076175 9.64207 0.00948738 10.7366C-0.0778858 12.1744 0.441105 13.5412 1.44759 14.5496C1.59548 14.6977 1.75078 14.8351 1.91317 14.9618C2.7761 15.6351 3.83106 16 4.94221 16C5.19322 16 5.44145 15.9812 5.68535 15.9446C6.72333 15.7887 7.68104 15.3071 8.43683 14.5496C9.36552 13.6191 9.87865 12.3838 9.8842 11.069L9.87093 5.22995C10.314 5.57642 10.7984 5.86311 11.3183 6.08564C12.1269 6.43149 12.9843 6.60676 13.8666 6.60644V4.00556C13.8672 4.00618 13.8598 4.00618 13.8592 4.00618Z" fill="white"/>
</svg>
