<svg width="55" height="50" viewBox="0 0 55 50" fill="none" xmlns="http://www.w3.org/2000/svg">
<circle cx="30" cy="25" r="24" fill="white" stroke="#49A069" stroke-width="2"/>
<path d="M39.3765 22.6531C38.9397 22.1061 38.3437 21.8041 37.6988 21.8041H36.2251C36.0863 18.0245 33.3473 15 30 15C26.6527 15 23.9137 18.0245 23.7749 21.8041H22.3012C21.6563 21.8041 21.0603 22.1061 20.6235 22.6531C20.0724 23.3388 19.8724 24.2939 20.0806 25.2122L21.8481 33C22.1135 34.1755 23.0278 35 24.0688 35H35.9271C36.9681 35 37.8825 34.1796 38.1478 33L39.9194 25.2122C40.1276 24.2939 39.9276 23.3388 39.3765 22.6531ZM30 16.6653C32.4329 16.6653 34.4249 18.9429 34.5556 21.8041H25.4444C25.5751 18.9469 27.5671 16.6653 30 16.6653ZM38.2947 24.8408L36.5272 32.6327C36.4374 33.0327 36.1802 33.3347 35.9312 33.3347H24.0688C23.8198 33.3347 23.5626 33.0327 23.4728 32.6327L21.7053 24.8408C21.6114 24.4286 21.5542 23.4694 22.3012 23.4694H37.6988C38.5029 23.4694 38.3886 24.4286 38.2947 24.8408Z" fill="#262728"/>
<path d="M25.8649 25.1265C25.4036 25.1265 25.0321 25.498 25.0321 25.9592V31.1633C25.0321 31.6245 25.4036 31.9959 25.8649 31.9959C26.3261 31.9959 26.6976 31.6245 26.6976 31.1633V25.9592C26.7017 25.502 26.3261 25.1265 25.8649 25.1265Z" fill="#262728"/>
<path d="M29.902 25.1265C29.4408 25.1265 29.0693 25.498 29.0693 25.9592V31.1633C29.0693 31.6245 29.4408 31.9959 29.902 31.9959C30.3633 31.9959 30.7348 31.6245 30.7348 31.1633V25.9592C30.7348 25.502 30.3592 25.1265 29.902 25.1265Z" fill="#262728"/>
<path d="M33.9351 25.1265C33.4738 25.1265 33.1024 25.498 33.1024 25.9592V31.1633C33.1024 31.6245 33.4738 31.9959 33.9351 31.9959C34.3964 31.9959 34.7678 31.6245 34.7678 31.1633V25.9592C34.7678 25.502 34.3964 25.1265 33.9351 25.1265Z" fill="#262728"/>
<circle cx="10" cy="40" r="10" fill="#49A069"/>
<path d="M9.99578 43.12C11.7958 43.12 12.9558 41.46 12.9558 39.5C12.9558 37.52 11.8158 35.88 10.0158 35.88C8.21578 35.88 7.04578 37.54 7.04578 39.5C7.04578 41.48 8.18578 43.12 9.99578 43.12ZM10.0158 42.4C8.70578 42.4 7.86578 41.03 7.86578 39.5C7.86578 37.94 8.68578 36.6 9.99578 36.6C11.2958 36.6 12.1358 37.97 12.1358 39.5C12.1358 41.05 11.3258 42.4 10.0158 42.4Z" fill="white"/>
</svg>
