<svg width="30" height="30" viewBox="0 0 30 30" fill="none" xmlns="http://www.w3.org/2000/svg">
<rect width="30" height="30" rx="10" transform="matrix(1 0 0 -1 0 30)" fill="white"/>
<path d="M15.8839 15L22.817 21.933C23.0611 22.1771 23.0611 22.5729 22.817 22.8169C22.5729 23.061 22.1771 23.061 21.9331 22.8169L15 15.8839L8.06698 22.8169C7.82288 23.061 7.42713 23.061 7.18307 22.8169C6.93901 22.5728 6.93898 22.1771 7.18307 21.933L14.1161 15L7.18307 8.06694C6.93898 7.82284 6.93898 7.42709 7.18307 7.18303C7.3051 7.061 7.46507 7 7.62504 7C7.78501 7 7.94494 7.061 8.06701 7.18303L15 14.1161L21.933 7.18303C22.0551 7.061 22.215 7 22.375 7C22.535 7 22.6949 7.061 22.817 7.18303C23.0611 7.42712 23.0611 7.82288 22.817 8.06694L15.8839 15Z" fill="#49A069"/>
</svg>
