<svg width="30" height="30" viewBox="0 0 30 30" fill="none" xmlns="http://www.w3.org/2000/svg">
<rect x="0.5" y="0.5" width="29" height="29" rx="9.5" fill="white" stroke="#49A069"/>
<path d="M22.375 14.037H7.625C7.27981 14.037 7 14.3189 7 14.6667C7 15.0144 7.27981 15.2963 7.625 15.2963H22.375C22.7202 15.2963 23 15.0144 23 14.6667C23 14.3189 22.7202 14.037 22.375 14.037Z" fill="#49A069"/>
<path d="M22.375 9H7.625C7.27981 9 7 9.28189 7 9.62963C7 9.97737 7.27981 10.2593 7.625 10.2593H22.375C22.7202 10.2593 23 9.97737 23 9.62963C23 9.28189 22.7202 9 22.375 9Z" fill="#49A069"/>
<path d="M22.375 19.0741H7.625C7.27981 19.0741 7 19.356 7 19.7037C7 20.0514 7.27981 20.3333 7.625 20.3333H22.375C22.7202 20.3333 23 20.0514 23 19.7037C23 19.356 22.7202 19.0741 22.375 19.0741Z" fill="#49A069"/>
</svg>
