<svg width="9" height="10" viewBox="0 0 9 10" fill="none" xmlns="http://www.w3.org/2000/svg">
<path d="M4.1084 4.81701C4.77017 4.81701 5.34321 4.57966 5.81142 4.11137C6.27963 3.64316 6.51698 3.07027 6.51698 2.40843C6.51698 1.74681 6.27963 1.17385 5.81134 0.705485C5.34305 0.237349 4.77009 0 4.1084 0C3.44655 0 2.87367 0.237349 2.40545 0.705561C1.93724 1.17377 1.69982 1.74674 1.69982 2.40843C1.69982 3.07027 1.93724 3.64324 2.40553 4.11145C2.87382 4.57959 3.44678 4.81701 4.1084 4.81701Z" fill="#49A069"/>
<path d="M8.32277 7.68946C8.30926 7.4946 8.28195 7.28205 8.24174 7.05759C8.20115 6.83146 8.14889 6.61769 8.08633 6.4223C8.02171 6.22035 7.93382 6.02092 7.82518 5.8298C7.71242 5.63144 7.57997 5.45871 7.43135 5.31658C7.27595 5.16788 7.08567 5.04833 6.86564 4.96113C6.64637 4.87438 6.40338 4.83044 6.14345 4.83044C6.04137 4.83044 5.94264 4.87232 5.75199 4.99645C5.63465 5.07297 5.49739 5.16147 5.3442 5.25936C5.2132 5.34282 5.03574 5.42102 4.81655 5.49183C4.6027 5.56102 4.38557 5.59612 4.17126 5.59612C3.95696 5.59612 3.7399 5.56102 3.52582 5.49183C3.30686 5.4211 3.1294 5.3429 2.99856 5.25944C2.84681 5.16247 2.70948 5.07397 2.59039 4.99638C2.39996 4.87225 2.30116 4.83036 2.19908 4.83036C1.93907 4.83036 1.69615 4.87438 1.47696 4.96121C1.25709 5.04826 1.06673 5.16781 0.911172 5.31666C0.762628 5.45887 0.630107 5.63152 0.517498 5.8298C0.408932 6.02092 0.321042 6.22027 0.256346 6.42238C0.193861 6.61776 0.1416 6.83146 0.101012 7.05759C0.0608058 7.28174 0.0334928 7.49437 0.0199889 7.68968C0.00671382 7.88103 0 8.07962 0 8.2802C0 8.80219 0.165938 9.22478 0.49316 9.53644C0.816339 9.84398 1.24396 10 1.76398 10H6.57901C7.09902 10 7.52649 9.84406 7.84975 9.53644C8.17705 9.22501 8.34298 8.80235 8.34298 8.28012C8.34291 8.07863 8.33612 7.87988 8.32277 7.68946Z" fill="#49A069"/>
</svg>
