<svg width="12" height="12" viewBox="0 0 12 12" fill="none" xmlns="http://www.w3.org/2000/svg">
<path d="M11.6608 8.80678L9.98615 7.13215C9.38806 6.53406 8.37132 6.77332 8.13209 7.55081C7.95266 8.0891 7.35458 8.38815 6.8163 8.26851C5.62013 7.96946 4.00531 6.41445 3.70627 5.15847C3.52684 4.62017 3.88569 4.02209 4.42397 3.84269C5.20148 3.60345 5.44071 2.58671 4.84263 1.98863L3.16799 0.313994C2.68953 -0.104665 1.97183 -0.104665 1.55317 0.313994L0.416809 1.45035C-0.71955 2.64652 0.536425 5.81636 3.34742 8.62735C6.15841 11.4383 9.32825 12.7542 10.5244 11.558L11.6608 10.4216C12.0795 9.94314 12.0795 9.22544 11.6608 8.80678Z" fill="white"/>
</svg>
