<svg width="0" height="0" class="hidden">
  <symbol fill="none" xmlns="http://www.w3.org/2000/svg" viewBox="0 0 9 12" id="adress-desk">
    <path d="M4.34595 0C1.94958 0 0 1.94958 0 4.34593C0 7.31987 3.8892 11.6858 4.05479 11.8702C4.21032 12.0434 4.48186 12.0431 4.63712 11.8702C4.8027 11.6858 8.6919 7.31987 8.6919 4.34593C8.69185 1.94958 6.7423 0 4.34595 0ZM4.34595 6.53248C3.14028 6.53248 2.15942 5.5516 2.15942 4.34593C2.15942 3.14025 3.1403 2.15939 4.34595 2.15939C5.5516 2.15939 6.53246 3.14028 6.53246 4.34595C6.53246 5.55162 5.5516 6.53248 4.34595 6.53248Z" fill="white"></path>
  </symbol>
  <symbol fill="none" xmlns="http://www.w3.org/2000/svg" viewBox="0 0 8 10" id="adress-mobal">
    <path d="M3.62163 0C1.62465 0 0 1.62465 0 3.62161C0 6.09989 3.241 9.73816 3.37899 9.89183C3.5086 10.0362 3.73489 10.0359 3.86426 9.89183C4.00225 9.73816 7.24325 6.09989 7.24325 3.62161C7.24321 1.62465 5.61858 0 3.62163 0ZM3.62163 5.44374C2.6169 5.44374 1.79951 4.62633 1.79951 3.62161C1.79951 2.61688 2.61692 1.79949 3.62163 1.79949C4.62633 1.79949 5.44372 2.6169 5.44372 3.62163C5.44372 4.62635 4.62633 5.44374 3.62163 5.44374Z" fill="white"></path>
  </symbol>
  <symbol fill="none" xmlns="http://www.w3.org/2000/svg" viewBox="0 0 100 100" id="arr-left">
    <g filter="url(#filter0_d_53_376)">
      <circle cx="50" cy="50" r="20" fill="white"></circle>
    </g>
    <path d="M49.5376 50.0039L53.2831 46.2582C53.4734 46.0681 53.5684 45.8355 53.5684 45.5606C53.5684 45.2857 53.4734 45.0533 53.2831 44.8632L52.7052 44.2851C52.5152 44.095 52.2826 44 52.0078 44C51.733 44 51.5005 44.095 51.3102 44.2851L46.2852 49.3024C46.0951 49.4926 46 49.7251 46 50C46 50.275 46.095 50.5073 46.2852 50.6975L51.3102 55.7148C51.5005 55.905 51.7329 56 52.0078 56C52.2826 56 52.5151 55.905 52.7051 55.7148L53.2831 55.1368C53.4734 54.9468 53.5683 54.7156 53.5683 54.4431C53.5683 54.1709 53.4734 53.9371 53.2831 53.7419L49.5376 50.0039Z" fill="#262728"></path>
    <defs>
      <filter id="filter0_d_53_376" x="0" y="0" width="100" height="100" filterUnits="userSpaceOnUse" color-interpolation-filters="sRGB">
        <feFlood flood-opacity="0" result="BackgroundImageFix"></feFlood>
        <feColorMatrix in="SourceAlpha" type="matrix" values="0 0 0 0 0 0 0 0 0 0 0 0 0 0 0 0 0 0 127 0" result="hardAlpha"></feColorMatrix>
        <feOffset></feOffset>
        <feGaussianBlur stdDeviation="15"></feGaussianBlur>
        <feColorMatrix type="matrix" values="0 0 0 0 0 0 0 0 0 0 0 0 0 0 0 0 0 0 0.1 0"></feColorMatrix>
        <feBlend mode="normal" in2="BackgroundImageFix" result="effect1_dropShadow_53_376"></feBlend>
        <feBlend mode="normal" in="SourceGraphic" in2="effect1_dropShadow_53_376" result="shape"></feBlend>
      </filter>
    </defs>
  </symbol>
  <symbol fill="none" xmlns="http://www.w3.org/2000/svg" viewBox="0 0 40 40" id="arr-left-mobal">
    <g filter="url(#filter0_d_67_595)">
      <circle cx="20" cy="20" r="10" fill="white"></circle>
    </g>
    <path d="M19.7688 20.0019L21.6416 18.1291C21.7367 18.034 21.7842 17.9178 21.7842 17.7803C21.7842 17.6429 21.7367 17.5267 21.6416 17.4316L21.3526 17.1425C21.2576 17.0475 21.1413 17 21.0039 17C20.8665 17 20.7503 17.0475 20.6551 17.1425L18.1426 19.6512C18.0475 19.7463 18 19.8625 18 20C18 20.1375 18.0475 20.2536 18.1426 20.3487L20.6551 22.8574C20.7503 22.9525 20.8665 23 21.0039 23C21.1413 23 21.2576 22.9525 21.3526 22.8574L21.6415 22.5684C21.7367 22.4734 21.7842 22.3578 21.7842 22.2216C21.7842 22.0854 21.7367 21.9685 21.6415 21.8709L19.7688 20.0019Z" fill="#262728"></path>
    <defs>
      <filter id="filter0_d_67_595" x="0" y="0" width="40" height="40" filterUnits="userSpaceOnUse" color-interpolation-filters="sRGB">
        <feFlood flood-opacity="0" result="BackgroundImageFix"></feFlood>
        <feColorMatrix in="SourceAlpha" type="matrix" values="0 0 0 0 0 0 0 0 0 0 0 0 0 0 0 0 0 0 127 0" result="hardAlpha"></feColorMatrix>
        <feOffset></feOffset>
        <feGaussianBlur stdDeviation="5"></feGaussianBlur>
        <feColorMatrix type="matrix" values="0 0 0 0 0 0 0 0 0 0 0 0 0 0 0 0 0 0 0.1 0"></feColorMatrix>
        <feBlend mode="normal" in2="BackgroundImageFix" result="effect1_dropShadow_67_595"></feBlend>
        <feBlend mode="normal" in="SourceGraphic" in2="effect1_dropShadow_67_595" result="shape"></feBlend>
      </filter>
    </defs>
  </symbol>
  <symbol fill="none" xmlns="http://www.w3.org/2000/svg" viewBox="0 0 100 100" id="arr-rigth">
    <g filter="url(#filter0_d_53_379)">
      <circle cx="20" cy="20" r="20" transform="matrix(-1 0 0 1 70 30)" fill="white"></circle>
    </g>
    <path d="M50.4624 50.0039L46.7169 46.2582C46.5266 46.0681 46.4316 45.8355 46.4316 45.5606C46.4316 45.2857 46.5266 45.0533 46.7169 44.8632L47.2948 44.2851C47.4848 44.095 47.7174 44 47.9922 44C48.267 44 48.4995 44.095 48.6898 44.2851L53.7148 49.3024C53.9049 49.4926 54 49.7251 54 50C54 50.275 53.905 50.5073 53.7148 50.6975L48.6898 55.7148C48.4995 55.905 48.2671 56 47.9922 56C47.7174 56 47.4849 55.905 47.2949 55.7148L46.7169 55.1368C46.5266 54.9468 46.4317 54.7156 46.4317 54.4431C46.4317 54.1709 46.5266 53.9371 46.7169 53.7419L50.4624 50.0039Z" fill="#262728"></path>
    <defs>
      <filter id="filter0_d_53_379" x="0" y="0" width="100" height="100" filterUnits="userSpaceOnUse" color-interpolation-filters="sRGB">
        <feFlood flood-opacity="0" result="BackgroundImageFix"></feFlood>
        <feColorMatrix in="SourceAlpha" type="matrix" values="0 0 0 0 0 0 0 0 0 0 0 0 0 0 0 0 0 0 127 0" result="hardAlpha"></feColorMatrix>
        <feOffset></feOffset>
        <feGaussianBlur stdDeviation="15"></feGaussianBlur>
        <feColorMatrix type="matrix" values="0 0 0 0 0 0 0 0 0 0 0 0 0 0 0 0 0 0 0.1 0"></feColorMatrix>
        <feBlend mode="normal" in2="BackgroundImageFix" result="effect1_dropShadow_53_379"></feBlend>
        <feBlend mode="normal" in="SourceGraphic" in2="effect1_dropShadow_53_379" result="shape"></feBlend>
      </filter>
    </defs>
  </symbol>
  <symbol fill="none" xmlns="http://www.w3.org/2000/svg" viewBox="0 0 40 40" id="arr-rigth-mobal">
    <g filter="url(#filter0_d_67_602)">
      <circle cx="10" cy="10" r="10" transform="matrix(-1 0 0 1 30 10)" fill="white"></circle>
    </g>
    <path d="M20.2312 20.0019L18.3584 18.1291C18.2633 18.034 18.2158 17.9178 18.2158 17.7803C18.2158 17.6429 18.2633 17.5267 18.3584 17.4316L18.6474 17.1425C18.7424 17.0475 18.8587 17 18.9961 17C19.1335 17 19.2497 17.0475 19.3449 17.1425L21.8574 19.6512C21.9525 19.7463 22 19.8625 22 20C22 20.1375 21.9525 20.2536 21.8574 20.3487L19.3449 22.8574C19.2497 22.9525 19.1335 23 18.9961 23C18.8587 23 18.7424 22.9525 18.6474 22.8574L18.3585 22.5684C18.2633 22.4734 18.2158 22.3578 18.2158 22.2216C18.2158 22.0854 18.2633 21.9685 18.3585 21.8709L20.2312 20.0019Z" fill="#262728"></path>
    <defs>
      <filter id="filter0_d_67_602" x="0" y="0" width="40" height="40" filterUnits="userSpaceOnUse" color-interpolation-filters="sRGB">
        <feFlood flood-opacity="0" result="BackgroundImageFix"></feFlood>
        <feColorMatrix in="SourceAlpha" type="matrix" values="0 0 0 0 0 0 0 0 0 0 0 0 0 0 0 0 0 0 127 0" result="hardAlpha"></feColorMatrix>
        <feOffset></feOffset>
        <feGaussianBlur stdDeviation="5"></feGaussianBlur>
        <feColorMatrix type="matrix" values="0 0 0 0 0 0 0 0 0 0 0 0 0 0 0 0 0 0 0.1 0"></feColorMatrix>
        <feBlend mode="normal" in2="BackgroundImageFix" result="effect1_dropShadow_67_602"></feBlend>
        <feBlend mode="normal" in="SourceGraphic" in2="effect1_dropShadow_67_602" result="shape"></feBlend>
      </filter>
    </defs>
  </symbol>
  <symbol fill="none" xmlns="http://www.w3.org/2000/svg" viewBox="0 0 30 30" id="buttel-desk">
    <circle cx="15" cy="15" r="15" fill="#49A069"></circle>
    <path d="M17.8363 9.08156C18.3872 9.05297 18.8261 8.60134 18.8261 8.04347C18.8261 7.46716 18.3589 7 17.7826 7H12.5652C11.9889 7 11.5217 7.46716 11.5217 8.04347C11.5217 8.60134 11.9607 9.05297 12.5115 9.08153C12.1857 12.0275 11 12.2216 11 15.1848V21.4348C11 22.2979 11.7021 23 12.5652 23H17.7826C18.6457 23 19.3478 22.2979 19.3478 21.4348V15.1848C19.3478 12.2166 18.1629 12.0348 17.8363 9.08156ZM14.8332 13.4502C14.1105 12.9684 13.2534 12.7866 12.4398 12.8872C12.5343 12.6193 12.6441 12.3569 12.7711 12.1029C13.1955 11.2535 13.4595 10.0974 13.5608 9.08694H16.787C16.8883 10.0974 17.1523 11.2535 17.5768 12.1029C17.7536 12.4566 17.8992 12.826 18.0127 13.2051C17.6302 13.3949 16.3741 14.4775 14.8332 13.4502Z" fill="white"></path>
  </symbol>
  <symbol fill="none" xmlns="http://www.w3.org/2000/svg" viewBox="0 0 30 30" id="calendar-desk">
    <circle cx="15" cy="15" r="15" fill="#49A069"></circle>
    <path d="M12.6521 15.8271C12.6521 15.6267 12.4895 15.4643 12.2889 15.4643H11.0216C10.8213 15.4643 10.6587 15.6267 10.6587 15.8271V17.0942C10.6587 17.2949 10.8213 17.4574 11.0216 17.4574H12.2889C12.4895 17.4574 12.6521 17.2949 12.6521 17.0942V15.8271Z" fill="white"></path>
    <path d="M15.8193 15.8271C15.8193 15.6267 15.6567 15.4643 15.4565 15.4643H14.189C13.9886 15.4643 13.826 15.6267 13.826 15.8271V17.0942C13.826 17.2949 13.9886 17.4574 14.189 17.4574H15.4565C15.6567 17.4574 15.8193 17.2949 15.8193 17.0942V15.8271Z" fill="white"></path>
    <path d="M18.9866 15.8271C18.9866 15.6267 18.824 15.4643 18.6236 15.4643H17.3563C17.1557 15.4643 16.9932 15.6267 16.9932 15.8271V17.0942C16.9932 17.2949 17.1557 17.4574 17.3563 17.4574H18.6236C18.824 17.4574 18.9866 17.2949 18.9866 17.0942V15.8271Z" fill="white"></path>
    <path d="M12.6521 18.9946C12.6521 18.7938 12.4895 18.6316 12.2889 18.6316H11.0216C10.8213 18.6316 10.6587 18.7938 10.6587 18.9946V20.2615C10.6587 20.4621 10.8213 20.6245 11.0216 20.6245H12.2889C12.4895 20.6245 12.6521 20.462 12.6521 20.2615V18.9946Z" fill="white"></path>
    <path d="M15.8193 18.9946C15.8193 18.7938 15.6567 18.6316 15.4565 18.6316H14.189C13.9886 18.6316 13.826 18.7938 13.826 18.9946V20.2615C13.826 20.4621 13.9886 20.6245 14.189 20.6245H15.4565C15.6567 20.6245 15.8193 20.462 15.8193 20.2615V18.9946Z" fill="white"></path>
    <path d="M18.9866 18.9946C18.9866 18.7938 18.824 18.6316 18.6238 18.6316H17.3563C17.1557 18.6316 16.9932 18.7938 16.9932 18.9946V20.2615C16.9932 20.4621 17.1557 20.6245 17.3563 20.6245H18.6238C18.824 20.6245 18.9866 20.462 18.9866 20.2615V18.9946Z" fill="white"></path>
    <path d="M21.2527 8.78154V10.717C21.2527 11.5918 20.543 12.2968 19.6683 12.2968H18.6689C17.7941 12.2968 17.075 11.5918 17.075 10.717V8.77459H12.5702V10.717C12.5702 11.5918 11.8512 12.2968 10.9766 12.2968H9.9769C9.10226 12.2968 8.39261 11.5918 8.39261 10.717V8.78154C7.62816 8.80458 7 9.43714 7 10.2146V21.5573C7 22.3495 7.64203 23 8.43414 23H21.2111C22.0021 23 22.6453 22.3481 22.6453 21.5573V10.2146C22.6453 9.43714 22.0171 8.80458 21.2527 8.78154ZM20.7885 20.851C20.7885 21.1933 20.5109 21.471 20.1685 21.471H9.44949C9.10704 21.471 8.82949 21.1933 8.82949 20.851V14.9921C8.82949 14.6496 9.10701 14.3719 9.44949 14.3719H20.1684C20.5109 14.3719 20.7884 14.6496 20.7884 14.9921L20.7885 20.851Z" fill="white"></path>
    <path d="M9.9734 11.2592H10.962C11.2621 11.2592 11.5054 11.0162 11.5054 10.7161V7.54321C11.5054 7.2431 11.2621 7 10.962 7H9.9734C9.67329 7 9.43003 7.2431 9.43003 7.54321V10.7161C9.43003 11.0162 9.67329 11.2592 9.9734 11.2592Z" fill="white"></path>
    <path d="M18.6561 11.2592H19.6448C19.9446 11.2592 20.1879 11.0162 20.1879 10.7161V7.54321C20.188 7.2431 19.9447 7 19.6448 7H18.6561C18.3561 7 18.1128 7.2431 18.1128 7.54321V10.7161C18.1128 11.0162 18.3561 11.2592 18.6561 11.2592Z" fill="white"></path>
  </symbol>
  <symbol fill="none" xmlns="http://www.w3.org/2000/svg" viewBox="0 0 16 16" id="close_x">
    <path d="M8.88394 7.99996L15.817 14.933C16.0611 15.1771 16.0611 15.5729 15.817 15.8169C15.5729 16.061 15.1771 16.061 14.9331 15.8169L8 8.88387L1.06698 15.8169C0.822883 16.061 0.427133 16.061 0.18307 15.8169C-0.0609922 15.5728 -0.0610234 15.1771 0.18307 14.933L7.1161 8L0.18307 1.06694C-0.0610234 0.822844 -0.0610234 0.427094 0.18307 0.183031C0.305101 0.0609999 0.46507 0 0.625039 0C0.785007 0 0.944945 0.0609999 1.06701 0.183031L8 7.11606L14.933 0.183031C15.0551 0.0609999 15.215 0 15.375 0C15.535 0 15.6949 0.0609999 15.817 0.183031C16.0611 0.427125 16.0611 0.822875 15.817 1.06694L8.88394 7.99996Z" fill="#A8A9AA"></path>
  </symbol>
  <symbol fill="none" xmlns="http://www.w3.org/2000/svg" viewBox="0 0 42 30" id="favicon">
    <path fill-rule="evenodd" clip-rule="evenodd" d="M20.83 0L26.9514 8.81598L20.83 3.11709L14.7092 8.81598L20.83 0Z" fill="#49A069"></path>
    <path fill-rule="evenodd" clip-rule="evenodd" d="M18.6673 29.9997H0L12.4557 12.0605L2.8449 28.5115L18.6673 29.9997Z" fill="#49A069"></path>
    <path fill-rule="evenodd" clip-rule="evenodd" d="M22.9937 29.9997H41.6609L29.2052 12.0605L38.816 28.5115L22.9937 29.9997Z" fill="#49A069"></path>
    <path fill-rule="evenodd" clip-rule="evenodd" d="M20.8301 26.8873C20.6468 26.9125 20.6659 27.079 20.5656 27.3026C20.4882 27.4742 20.3386 27.6569 20.2926 27.9142C20.2052 28.4102 20.2669 29.0941 20.06 29.431C19.5198 29.431 18.9795 29.431 18.4392 29.431C18.4442 29.0672 18.5944 28.7931 18.5984 28.4299C18.6096 27.3962 18.4398 26.894 18.4829 26.1861C18.5468 25.1412 18.8147 24.0981 18.9699 23.0667C19.0198 22.7332 19.1633 22.5494 19.1969 22.1945C19.2423 21.722 19.0647 21.0191 18.8052 20.3857C18.6185 19.9289 18.3815 19.5085 18.1926 19.2361C18.0441 19.351 17.7285 19.4609 17.2667 19.4457C16.8144 19.4306 16.2198 19.291 15.6414 19.2434C15.137 19.2025 14.6931 19.3246 14.2088 19.2781C13.3267 19.1935 12.4888 18.9328 12.166 18.8235C11.8885 18.9418 11.5433 18.9345 11.1582 18.8549C10.9021 18.8661 10.6465 18.8773 10.3904 18.8886C10.2705 18.8846 10.2822 18.7568 10.3725 18.7299C10.5905 18.7058 10.8085 18.6817 11.026 18.6582C10.7149 18.652 10.4039 18.6464 10.0928 18.6402C9.95606 18.6397 9.94597 18.4413 10.0771 18.425C10.3439 18.4104 10.6112 18.3953 10.8786 18.3802C10.8791 18.3661 10.8797 18.3521 10.8808 18.3381C10.5787 18.2888 10.2761 18.2395 9.974 18.1901C9.84453 18.1666 9.88152 18.013 9.97848 18.0153C10.2957 18.0343 10.6129 18.0528 10.9301 18.0713C10.9352 18.0489 10.9402 18.0265 10.9458 18.004C10.7295 17.883 10.4874 17.7989 10.229 17.7378C10.0726 17.6991 10.1371 17.5388 10.2649 17.5427C10.5799 17.5842 10.8842 17.6705 11.1807 17.7894C11.4659 17.8482 11.6627 17.8353 11.6195 17.6257C11.4514 17.4306 11.3628 17.2339 11.4693 17.0326C11.5102 16.9996 11.5444 17.0024 11.5702 17.0416C11.6901 17.3695 11.8908 17.4643 12.0544 17.6515C12.1828 17.7983 12.273 17.9777 12.4008 18.1251C12.5611 18.1845 12.9114 18.3135 13.3205 18.2972C13.6904 18.2826 14.1046 18.1262 14.5586 18.1145C14.943 18.1044 15.3219 18.2277 15.6845 18.2294C15.9025 18.2299 16.097 18.1167 16.3375 18.0892C16.4893 18.0719 16.6463 18.0887 16.8066 18.0707C17.3228 18.0136 17.6865 17.615 18.1786 17.5007C18.5956 17.4032 18.9117 17.5803 19.2379 17.5433C19.4732 17.5164 19.6083 17.3589 19.7557 17.2524C19.9104 17.1408 20.0729 17.0758 20.1245 16.8768C20.194 16.6078 20.1396 16.207 20.152 15.9486C19.9351 16.0585 19.7428 15.1644 19.9351 15.1493C19.9345 14.9464 19.8622 14.7451 19.8891 14.577C19.9261 14.3494 20.0421 14.1869 20.1626 14.04C20.3392 13.8236 20.546 13.6504 20.8301 13.6426C21.1148 13.6504 21.3216 13.8236 21.4982 14.04C21.6187 14.1869 21.7347 14.3494 21.7717 14.577C21.7986 14.7451 21.7263 14.9464 21.7257 15.1493C21.918 15.1644 21.7257 16.0585 21.5088 15.9486C21.5212 16.207 21.4668 16.6078 21.5363 16.8768C21.5879 17.0758 21.7504 17.1408 21.9051 17.2524C22.0525 17.3589 22.1876 17.5164 22.4229 17.5433C22.7491 17.5803 23.0652 17.4032 23.4822 17.5007C23.9737 17.615 24.338 18.0136 24.8542 18.0707C25.0145 18.0887 25.1714 18.0719 25.3228 18.0892C25.5638 18.1167 25.7582 18.2299 25.9757 18.2294C26.3389 18.2277 26.7178 18.1044 27.1022 18.1145C27.5562 18.1262 27.9698 18.2826 28.3403 18.2972C28.7494 18.3135 29.0997 18.1845 29.26 18.1251C29.3878 17.9777 29.478 17.7983 29.6064 17.6515C29.77 17.4643 29.9707 17.3695 30.0906 17.0416C30.1164 17.0024 30.15 16.9996 30.1909 17.0326C30.298 17.2339 30.2094 17.4306 30.0413 17.6257C29.9976 17.8353 30.1949 17.8482 30.4801 17.7894C30.7766 17.6705 31.0809 17.5842 31.3959 17.5427C31.5237 17.5388 31.5882 17.6991 31.4318 17.7378C31.1734 17.7989 30.9313 17.883 30.715 18.004C30.7206 18.0265 30.7256 18.0489 30.7307 18.0713C31.0479 18.0528 31.3651 18.0343 31.6823 18.0153C31.7793 18.013 31.8163 18.1666 31.6868 18.1901C31.3847 18.2395 31.0821 18.2888 30.78 18.3381C30.7805 18.3521 30.7817 18.3661 30.7822 18.3802C31.0496 18.3953 31.3169 18.4104 31.5837 18.425C31.7148 18.4413 31.7047 18.6397 31.568 18.6402C31.2569 18.6464 30.9459 18.652 30.6343 18.6582C30.8523 18.6817 31.0703 18.7058 31.2883 18.7299C31.3785 18.7568 31.3903 18.8846 31.2704 18.8886C31.0142 18.8773 30.7587 18.8661 30.5025 18.8549C30.1175 18.9345 29.7723 18.9418 29.4948 18.8235C29.172 18.9328 28.3341 19.1935 27.452 19.2781C26.9677 19.3246 26.5233 19.2025 26.0194 19.2434C25.441 19.291 24.8464 19.4306 24.3941 19.4457C23.9323 19.4609 23.6167 19.351 23.4676 19.2361C23.2793 19.5085 23.0423 19.9289 22.8556 20.3857C22.5961 21.0191 22.4185 21.722 22.4639 22.1945C22.4975 22.5494 22.641 22.7332 22.6908 23.0667C22.8461 24.0981 23.114 25.1412 23.1779 26.1861C23.221 26.894 23.0512 27.3962 23.0624 28.4299C23.0664 28.7931 23.2166 29.0672 23.2216 29.431C22.6813 29.431 22.141 29.431 21.6008 29.431C21.3939 29.0941 21.4556 28.4102 21.3682 27.9142C21.3222 27.6569 21.1726 27.4742 21.0952 27.3026C20.9943 27.079 21.0139 26.9125 20.8301 26.8873Z" fill="#2B3966"></path>
    <path fill-rule="evenodd" clip-rule="evenodd" d="M27.5068 28.3871L36.8587 27.5076L32.7937 20.5498L35.0624 26.5682L27.5068 28.3871Z" fill="#2B3966"></path>
    <path fill-rule="evenodd" clip-rule="evenodd" d="M14.154 28.3871L4.80212 27.5076L8.86714 20.5498L6.5984 26.5682L14.154 28.3871Z" fill="#2B3966"></path>
    <path fill-rule="evenodd" clip-rule="evenodd" d="M20.8298 6.27036L17.355 7.96876L20.8298 4.7334L24.3053 7.96876L20.8298 6.27036Z" fill="#2B3966"></path>
    <path d="M22.103 10.1305L20.8306 8.0957L19.5582 10.1305L20.8306 12.1653L22.103 10.1305Z" fill="#49A069"></path>
  </symbol>
  <symbol fill="none" xmlns="http://www.w3.org/2000/svg" viewBox="0 0 34 34" id="footer-fasebook">
    <circle cx="17" cy="17" r="17" fill="#3A5998"></circle>
    <path d="M21.3247 9.00333L19.2498 9C16.9188 9 15.4124 10.5455 15.4124 12.9376V14.7531H13.3262C13.146 14.7531 13 14.8993 13 15.0795V17.71C13 17.8903 13.1461 18.0363 13.3262 18.0363H15.4124V24.6738C15.4124 24.854 15.5584 25 15.7387 25H18.4605C18.6408 25 18.7868 24.8539 18.7868 24.6738V18.0363H21.226C21.4062 18.0363 21.5522 17.8903 21.5522 17.71L21.5532 15.0795C21.5532 14.993 21.5188 14.9101 21.4577 14.8488C21.3966 14.7876 21.3133 14.7531 21.2268 14.7531H18.7868V13.2141C18.7868 12.4744 18.963 12.0989 19.9266 12.0989L21.3243 12.0984C21.5044 12.0984 21.6504 11.9522 21.6504 11.7721V9.32958C21.6504 9.14964 21.5046 9.00366 21.3247 9.00333Z" fill="white"></path>
  </symbol>
  <symbol fill="none" xmlns="http://www.w3.org/2000/svg" viewBox="0 0 34 34" id="footer-insta">
    <circle cx="17" cy="17" r="17" fill="#C32AA3"></circle>
    <path d="M20.2335 9H13.7665C11.1382 9 9 11.1382 9 13.7665V20.2335C9 22.8618 11.1382 25 13.7665 25H20.2335C22.8618 25 25 22.8618 25 20.2335V13.7665C25 11.1382 22.8617 9 20.2335 9ZM23.3904 20.2335C23.3904 21.977 21.977 23.3904 20.2335 23.3904H13.7665C12.023 23.3904 10.6096 21.977 10.6096 20.2335V13.7665C10.6096 12.023 12.023 10.6096 13.7665 10.6096H20.2335C21.977 10.6096 23.3904 12.023 23.3904 13.7665V20.2335Z" fill="white"></path>
    <path d="M17 12.8618C14.7182 12.8618 12.8618 14.7182 12.8618 17C12.8618 19.2817 14.7182 21.1381 17 21.1381C19.2818 21.1381 21.1382 19.2818 21.1382 17C21.1382 14.7182 19.2818 12.8618 17 12.8618ZM17 19.5286C15.6035 19.5286 14.4714 18.3965 14.4714 17C14.4714 15.6035 15.6035 14.4714 17 14.4714C18.3965 14.4714 19.5286 15.6035 19.5286 17C19.5286 18.3965 18.3965 19.5286 17 19.5286Z" fill="white"></path>
    <path d="M21.1462 13.8845C21.6938 13.8845 22.1378 13.4405 22.1378 12.8929C22.1378 12.3453 21.6938 11.9013 21.1462 11.9013C20.5985 11.9013 20.1546 12.3453 20.1546 12.8929C20.1546 13.4405 20.5985 13.8845 21.1462 13.8845Z" fill="white"></path>
  </symbol>
  <symbol fill="none" xmlns="http://www.w3.org/2000/svg" viewBox="0 0 34 34" id="footer-tiktok">
    <circle cx="17" cy="17" r="17" fill="#BB0000"></circle>
    <path fill-rule="evenodd" clip-rule="evenodd" d="M22.6757 10H11.1089C8.83965 10 7 11.8397 7 14.1089V19.8911C7 22.1603 8.83965 24 11.1089 24H22.6757C24.9449 24 26.7845 22.1603 26.7845 19.8911V14.1089C26.7845 11.8397 24.9449 10 22.6757 10ZM19.8966 17.2814L14.4865 19.8615C14.3424 19.9303 14.1759 19.8254 14.1759 19.6656V14.3436C14.1759 14.1819 14.3469 14.0767 14.4913 14.15L19.9014 16.8916C20.0623 16.973 20.0595 17.2039 19.8966 17.2814Z" fill="white"></path>
  </symbol>
  <symbol fill="none" xmlns="http://www.w3.org/2000/svg" viewBox="0 0 34 34" id="footer-youtube">
    <circle cx="17" cy="17" r="17" fill="#FE004D"></circle>
    <path d="M23.8592 13.0062C22.9571 13.0062 22.1247 12.7032 21.4563 12.1921C20.6897 11.6062 20.1389 10.7468 19.9444 9.75617C19.8962 9.51141 19.8703 9.25884 19.8678 9H17.2908L17.2877 20.0486C17.2877 21.094 16.6162 21.9803 15.6853 22.2921C15.4152 22.3825 15.1234 22.4254 14.8196 22.4085C14.4319 22.3869 14.0685 22.2683 13.7526 22.0767C13.0805 21.6692 12.6248 20.93 12.6125 20.0843C12.593 18.7626 13.6471 17.685 14.9499 17.685C15.2071 17.685 15.4541 17.7275 15.6853 17.8048V15.1523C15.4414 15.1157 15.1932 15.0966 14.9422 15.0966C13.5161 15.0966 12.1824 15.6975 11.229 16.7801C10.5084 17.5983 10.0762 18.6421 10.0095 19.7366C9.92211 21.1744 10.4411 22.5412 11.4476 23.5496C11.5955 23.6977 11.7508 23.8351 11.9132 23.9618C12.7761 24.6351 13.8311 25 14.9422 25C15.1932 25 15.4414 24.9812 15.6853 24.9446C16.7233 24.7887 17.681 24.3071 18.4368 23.5496C19.3655 22.6191 19.8786 21.3838 19.8842 20.069L19.8709 14.2299C20.314 14.5764 20.7984 14.8631 21.3183 15.0856C22.1269 15.4315 22.9843 15.6068 23.8666 15.6064V13.0056C23.8672 13.0062 23.8598 13.0062 23.8592 13.0062Z" fill="white"></path>
  </symbol>
  <symbol fill="none" xmlns="http://www.w3.org/2000/svg" viewBox="0 0 9 16" id="header-fasebook">
    <path d="M8.32467 0.00332907L6.24983 0C3.91881 0 2.41241 1.54552 2.41241 3.93762V5.75313H0.326249C0.14598 5.75313 0 5.89927 0 6.07954V8.71001C0 8.89028 0.146146 9.03625 0.326249 9.03625H2.41241V15.6738C2.41241 15.854 2.55839 16 2.73866 16H5.4605C5.64077 16 5.78675 15.8539 5.78675 15.6738V9.03625H8.22596C8.40623 9.03625 8.55221 8.89028 8.55221 8.71001L8.55321 6.07954C8.55321 5.99299 8.51875 5.91009 8.45766 5.84884C8.39658 5.78758 8.31335 5.75313 8.22679 5.75313H5.78675V4.2141C5.78675 3.47438 5.96303 3.09886 6.92663 3.09886L8.32433 3.09836C8.50444 3.09836 8.65042 2.95222 8.65042 2.77211V0.329578C8.65042 0.149642 8.5046 0.00366197 8.32467 0.00332907Z" fill="white"></path>
  </symbol>
  <symbol fill="none" xmlns="http://www.w3.org/2000/svg" viewBox="0 0 16 16" id="header-insta">
    <path d="M11.2335 0H4.76649C2.13823 0 0 2.13823 0 4.76649V11.2335C0 13.8618 2.13823 16 4.76649 16H11.2335C13.8618 16 16 13.8618 16 11.2335V4.76649C16 2.13823 13.8617 0 11.2335 0ZM14.3904 11.2335C14.3904 12.977 12.977 14.3904 11.2335 14.3904H4.76649C3.023 14.3904 1.6096 12.977 1.6096 11.2335V4.76649C1.6096 3.02297 3.023 1.6096 4.76649 1.6096H11.2335C12.977 1.6096 14.3904 3.02297 14.3904 4.76649V11.2335Z" fill="white"></path>
    <path d="M8 3.86183C5.71821 3.86183 3.86183 5.71821 3.86183 7.99997C3.86183 10.2817 5.71821 12.1381 8 12.1381C10.2818 12.1381 12.1382 10.2818 12.1382 7.99997C12.1382 5.71818 10.2818 3.86183 8 3.86183ZM8 10.5286C6.6035 10.5286 5.47143 9.3965 5.47143 8C5.47143 6.6035 6.60353 5.47143 8 5.47143C9.3965 5.47143 10.5286 6.6035 10.5286 8C10.5286 9.39647 9.39647 10.5286 8 10.5286Z" fill="white"></path>
    <path d="M12.1462 4.88449C12.6938 4.88449 13.1378 4.44054 13.1378 3.8929C13.1378 3.34526 12.6938 2.90131 12.1462 2.90131C11.5985 2.90131 11.1546 3.34526 11.1546 3.8929C11.1546 4.44054 11.5985 4.88449 12.1462 4.88449Z" fill="white"></path>
  </symbol>
  <symbol fill="none" xmlns="http://www.w3.org/2000/svg" viewBox="0 0 14 16" id="header-tiktok">
    <path d="M13.8592 4.00618C12.9571 4.00618 12.1247 3.70321 11.4563 3.19211C10.6897 2.60621 10.1389 1.74676 9.94441 0.756167C9.89624 0.511414 9.87031 0.258837 9.86784 0H7.29079L7.28771 11.0486C7.28771 12.094 6.6162 12.9803 5.68535 13.2921C5.4152 13.3825 5.12344 13.4254 4.81964 13.4085C4.43187 13.3869 4.06848 13.2683 3.75264 13.0767C3.08052 12.6692 2.62482 11.93 2.61247 11.0843C2.59302 9.76256 3.64705 8.68496 4.94993 8.68496C5.20711 8.68496 5.4541 8.72753 5.68535 8.80484V6.15231C5.44145 6.11569 5.19322 6.09659 4.94221 6.09659C3.51615 6.09659 2.18239 6.69752 1.22901 7.78013C0.50841 8.59827 0.076175 9.64207 0.00948738 10.7366C-0.0778858 12.1744 0.441105 13.5412 1.44759 14.5496C1.59548 14.6977 1.75078 14.8351 1.91317 14.9618C2.7761 15.6351 3.83106 16 4.94221 16C5.19322 16 5.44145 15.9812 5.68535 15.9446C6.72333 15.7887 7.68104 15.3071 8.43683 14.5496C9.36552 13.6191 9.87865 12.3838 9.8842 11.069L9.87093 5.22995C10.314 5.57642 10.7984 5.86311 11.3183 6.08564C12.1269 6.43149 12.9843 6.60676 13.8666 6.60644V4.00556C13.8672 4.00618 13.8598 4.00618 13.8592 4.00618Z" fill="white"></path>
  </symbol>
  <symbol fill="none" xmlns="http://www.w3.org/2000/svg" viewBox="0 0 20 14" id="header-youtube">
    <path fill-rule="evenodd" clip-rule="evenodd" d="M15.6757 0H4.10886C1.83965 0 0 1.83965 0 4.10886V9.89114C0 12.1603 1.83965 14 4.10886 14H15.6757C17.9449 14 19.7845 12.1603 19.7845 9.89114V4.10886C19.7845 1.83965 17.9449 0 15.6757 0ZM12.8966 7.28138L7.4865 9.86148C7.34238 9.93032 7.17588 9.82538 7.17588 9.66559V4.34364C7.17588 4.18189 7.34686 4.07668 7.49126 4.14999L12.9014 6.89156C13.0623 6.973 13.0595 7.20386 12.8966 7.28138Z" fill="white"></path>
  </symbol>
  <symbol fill="none" xmlns="http://www.w3.org/2000/svg" viewBox="0 0 55 50" id="kard-desk">
    <circle cx="30" cy="25" r="24" fill="white" stroke="#49A069" stroke-width="2"></circle>
    <path d="M39.3765 22.6531C38.9397 22.1061 38.3437 21.8041 37.6988 21.8041H36.2251C36.0863 18.0245 33.3473 15 30 15C26.6527 15 23.9137 18.0245 23.7749 21.8041H22.3012C21.6563 21.8041 21.0603 22.1061 20.6235 22.6531C20.0724 23.3388 19.8724 24.2939 20.0806 25.2122L21.8481 33C22.1135 34.1755 23.0278 35 24.0688 35H35.9271C36.9681 35 37.8825 34.1796 38.1478 33L39.9194 25.2122C40.1276 24.2939 39.9276 23.3388 39.3765 22.6531ZM30 16.6653C32.4329 16.6653 34.4249 18.9429 34.5556 21.8041H25.4444C25.5751 18.9469 27.5671 16.6653 30 16.6653ZM38.2947 24.8408L36.5272 32.6327C36.4374 33.0327 36.1802 33.3347 35.9312 33.3347H24.0688C23.8198 33.3347 23.5626 33.0327 23.4728 32.6327L21.7053 24.8408C21.6114 24.4286 21.5542 23.4694 22.3012 23.4694H37.6988C38.5029 23.4694 38.3886 24.4286 38.2947 24.8408Z" fill="#262728"></path>
    <path d="M25.8649 25.1265C25.4036 25.1265 25.0321 25.498 25.0321 25.9592V31.1633C25.0321 31.6245 25.4036 31.9959 25.8649 31.9959C26.3261 31.9959 26.6976 31.6245 26.6976 31.1633V25.9592C26.7017 25.502 26.3261 25.1265 25.8649 25.1265Z" fill="#262728"></path>
    <path d="M29.902 25.1265C29.4408 25.1265 29.0693 25.498 29.0693 25.9592V31.1633C29.0693 31.6245 29.4408 31.9959 29.902 31.9959C30.3633 31.9959 30.7348 31.6245 30.7348 31.1633V25.9592C30.7348 25.502 30.3592 25.1265 29.902 25.1265Z" fill="#262728"></path>
    <path d="M33.9351 25.1265C33.4738 25.1265 33.1024 25.498 33.1024 25.9592V31.1633C33.1024 31.6245 33.4738 31.9959 33.9351 31.9959C34.3964 31.9959 34.7678 31.6245 34.7678 31.1633V25.9592C34.7678 25.502 34.3964 25.1265 33.9351 25.1265Z" fill="#262728"></path>
    <circle cx="10" cy="40" r="10" fill="#49A069"></circle>
    <path d="M9.99578 43.12C11.7958 43.12 12.9558 41.46 12.9558 39.5C12.9558 37.52 11.8158 35.88 10.0158 35.88C8.21578 35.88 7.04578 37.54 7.04578 39.5C7.04578 41.48 8.18578 43.12 9.99578 43.12ZM10.0158 42.4C8.70578 42.4 7.86578 41.03 7.86578 39.5C7.86578 37.94 8.68578 36.6 9.99578 36.6C11.2958 36.6 12.1358 37.97 12.1358 39.5C12.1358 41.05 11.3258 42.4 10.0158 42.4Z" fill="white"></path>
  </symbol>
  <symbol fill="none" xmlns="http://www.w3.org/2000/svg" viewBox="0 0 32 32" id="kard-mobal">
    <circle cx="15" cy="17" r="15" fill="white"></circle>
    <path d="M21.5635 15.3571C21.2578 14.9743 20.8406 14.7629 20.3891 14.7629H19.3576C19.2604 12.1171 17.3431 10 15 10C12.6569 10 10.7396 12.1171 10.6424 14.7629H9.61087C9.15939 14.7629 8.74221 14.9743 8.43646 15.3571C8.05071 15.8371 7.91069 16.5057 8.05642 17.1486L9.29369 22.6C9.47943 23.4229 10.1195 24 10.8481 24H19.149C19.8776 24 20.5177 23.4257 20.7034 22.6L21.9436 17.1486C22.0893 16.5057 21.9493 15.8371 21.5635 15.3571ZM15 11.1657C16.703 11.1657 18.0975 12.76 18.1889 14.7629H11.8111C11.9025 12.7629 13.297 11.1657 15 11.1657ZM20.8063 16.8886L19.569 22.3429C19.5062 22.6229 19.3262 22.8343 19.1519 22.8343H10.8481C10.6738 22.8343 10.4938 22.6229 10.431 22.3429L9.19368 16.8886C9.12796 16.6 9.08796 15.9286 9.61087 15.9286H20.3891C20.952 15.9286 20.872 16.6 20.8063 16.8886Z" fill="#262728"></path>
    <path d="M12.1054 17.0886C11.7825 17.0886 11.5225 17.3486 11.5225 17.6714V21.3143C11.5225 21.6371 11.7825 21.8971 12.1054 21.8971C12.4283 21.8971 12.6883 21.6371 12.6883 21.3143V17.6714C12.6912 17.3514 12.4283 17.0886 12.1054 17.0886Z" fill="#262728"></path>
    <path d="M14.9314 17.0886C14.6085 17.0886 14.3485 17.3486 14.3485 17.6714V21.3143C14.3485 21.6371 14.6085 21.8971 14.9314 21.8971C15.2543 21.8971 15.5143 21.6371 15.5143 21.3143V17.6714C15.5143 17.3514 15.2515 17.0886 14.9314 17.0886Z" fill="#262728"></path>
    <path d="M17.7546 17.0886C17.4317 17.0886 17.1717 17.3486 17.1717 17.6714V21.3143C17.1717 21.6371 17.4317 21.8971 17.7546 21.8971C18.0775 21.8971 18.3375 21.6371 18.3375 21.3143V17.6714C18.3375 17.3514 18.0775 17.0886 17.7546 17.0886Z" fill="#262728"></path>
    <circle cx="25" cy="7" r="6" fill="#49A069" stroke="white" stroke-width="2"></circle>
  </symbol>
  <symbol fill="none" xmlns="http://www.w3.org/2000/svg" viewBox="0 0 225 60" id="logo">
    <path d="M172.514 41.9311H168.001V32.4834L159.57 18.0684H164.958L170.206 27.8306H170.241L175.664 18.0684H180.911L172.514 32.4834V41.9311Z" fill="#2B3966"></path>
    <path d="M157.461 35.4581C157.461 37.5099 156.742 39.2072 155.309 40.5484C153.875 41.8896 151.91 42.5603 149.414 42.5603C146.569 42.5603 144.224 41.8481 142.382 40.4255V35.597H142.487C143.303 36.5535 144.306 37.2879 145.497 37.8021C146.684 38.3146 147.875 38.5717 149.065 38.5717C151.653 38.5717 152.948 37.6504 152.948 35.8078C152.948 34.944 152.587 34.2207 151.864 33.6379C151.14 33.0551 150.272 32.5537 149.256 32.1338C148.243 31.7138 147.222 31.2412 146.196 30.7175C145.169 30.1922 144.294 29.405 143.571 28.3544C142.848 27.3053 142.487 26.0216 142.487 24.5063C142.487 22.5232 143.123 20.8498 144.393 19.4847C145.664 18.1211 147.572 17.4377 150.114 17.4377C152.726 17.4377 154.895 18.1498 156.621 19.5725V24.4009H156.516C154.907 22.4178 152.901 21.4279 150.499 21.4279C149.379 21.4279 148.522 21.6594 147.927 22.1272C147.333 22.5934 147.036 23.2353 147.036 24.0512C147.036 24.7745 147.291 25.41 147.805 25.9577C148.318 26.507 148.959 26.9381 149.729 27.2526C150.499 27.5672 151.338 27.952 152.248 28.4071C153.158 28.8621 153.996 29.3411 154.768 29.8425C155.537 30.3439 156.177 31.0783 156.691 32.046C157.204 33.0136 157.461 34.152 157.461 35.4581Z" fill="#2B3966"></path>
    <path d="M138.905 41.9311H133.446L125.365 29.9287V29.7546L133.096 18.0684H138.45L130.577 29.7195V29.7898L138.905 41.9311Z" fill="#2B3966"></path>
    <path d="M124.909 41.9311H120.398V18.0684H124.909V41.9311Z" fill="#2B3966"></path>
    <path d="M112.977 20.8147C115.169 23.0661 116.264 26.127 116.264 29.999C116.264 33.871 115.169 36.9335 112.977 39.1848C110.784 41.4346 107.985 42.5603 104.58 42.5603C101.268 42.5603 98.5096 41.4346 96.3064 39.1848C94.1016 36.9335 93 33.871 93 29.999C93 26.127 94.1016 23.0661 96.3064 20.8147C98.5096 18.5634 101.315 17.4377 104.72 17.4377C108.031 17.4377 110.784 18.5634 112.977 20.8147ZM111.577 29.999C111.577 27.3868 110.935 25.3398 109.653 23.858C108.37 22.3779 106.725 21.637 104.72 21.637C102.691 21.637 101.018 22.3651 99.699 23.8245C98.3819 25.2823 97.7225 27.3405 97.7225 29.999C97.7225 32.6112 98.3643 34.6645 99.6479 36.1575C100.93 37.6504 102.574 38.396 104.58 38.396C106.609 38.396 108.283 37.6616 109.601 36.1926C110.918 34.7236 111.577 32.6591 111.577 29.999Z" fill="#2B3966"></path>
    <path d="M204.828 42.5603C201.515 42.5603 198.811 41.4458 196.711 39.2184C194.612 36.9909 193.563 33.9173 193.563 29.999C193.563 26.1733 194.641 23.1236 196.799 20.8498C198.956 18.5761 201.783 17.4377 205.283 17.4377C208.337 17.4377 211.054 18.2552 213.433 19.887V24.9949H213.294C211.265 22.7803 208.792 21.6721 205.877 21.6721C203.522 21.6721 201.667 22.4178 200.315 23.9107C198.962 25.4037 198.285 27.4794 198.285 30.1395C198.285 32.8683 198.897 34.9504 200.121 36.3842C201.346 37.8196 202.903 38.5366 204.793 38.5366C206.472 38.5366 207.836 38.0815 208.886 37.1714C209.935 36.2629 210.507 34.8514 210.599 32.9385H203.672V32.7629L205.283 28.704H215.253C215.299 29.3108 215.323 30.0453 215.323 30.9091C215.323 34.8035 214.356 37.7206 212.419 39.6559C210.483 41.5927 207.952 42.5603 204.828 42.5603Z" fill="#49A069"></path>
    <path fill-rule="evenodd" clip-rule="evenodd" d="M188.382 32.6863L187.129 28.1357C187.118 28.0957 187.105 28.0558 187.094 28.0159C186.431 25.541 186.364 22.9767 186.881 20.505C185.992 21.7967 185.33 23.2338 184.918 24.7666C183.968 28.3145 184.463 32.0667 186.299 35.2458C187.694 37.6648 189.762 39.5745 192.231 40.7688C190.234 38.4999 188.888 35.6977 188.382 32.6863ZM207.663 45.9597C204.703 46.5553 201.608 46.3221 198.748 45.2571L194.171 44.0644C194.131 44.0532 194.091 44.0436 194.051 44.0325C191.582 43.3714 189.327 42.1515 187.447 40.4718C188.119 41.8849 189.03 43.1734 190.149 44.2943C194.913 49.0573 202.291 49.6129 207.663 45.9597ZM214.811 42.5571L211.485 45.9277C211.457 45.9581 211.428 45.9868 211.399 46.0172C209.589 47.8278 207.401 49.1675 205.002 49.9562C206.565 50.0808 208.142 49.9355 209.673 49.5251C213.224 48.5751 216.221 46.2742 218.057 43.092C219.452 40.6762 220.073 37.9283 219.873 35.1915C218.907 38.0512 217.159 40.6139 214.811 42.5571ZM220.502 27.3118L221.757 31.864C221.768 31.9039 221.78 31.9438 221.791 31.9837C222.453 34.457 222.52 37.0213 222.003 39.493C222.892 38.2029 223.557 36.7642 223.967 35.2314C224.917 31.6851 224.422 27.9313 222.587 24.7522C221.19 22.3332 219.123 20.4252 216.653 19.2292C218.65 21.4998 219.996 24.3004 220.502 27.3118ZM201.221 14.0383C204.181 13.4428 207.278 13.6775 210.136 14.7409L214.713 15.9352C214.753 15.9448 214.795 15.9544 214.835 15.9656C217.305 16.6282 219.557 17.8465 221.438 19.5262C220.766 18.1147 219.854 16.8246 218.735 15.7053C213.971 10.9407 206.594 10.3851 201.221 14.0383ZM194.074 17.4425L197.399 14.0703C197.428 14.0415 197.457 14.0112 197.485 13.9825C199.297 12.1718 201.483 10.8306 203.883 10.0434C202.32 9.91884 200.742 10.0625 199.211 10.4729C195.662 11.4245 192.666 13.7238 190.828 16.906C189.433 19.3218 188.812 22.0698 189.011 24.8065C189.977 21.9468 191.725 19.3841 194.074 17.4425Z" fill="#49A069"></path>
    <path fill-rule="evenodd" clip-rule="evenodd" d="M41.6602 0L53.9029 17.632L41.6602 6.23419L29.4186 17.632L41.6602 0Z" fill="#49A069"></path>
    <path fill-rule="evenodd" clip-rule="evenodd" d="M37.3345 60H0L24.9114 24.1218L5.6898 57.0236L37.3345 60Z" fill="#49A069"></path>
    <path fill-rule="evenodd" clip-rule="evenodd" d="M45.9869 60H83.3215L58.4101 24.1218L77.6317 57.0236L45.9869 60Z" fill="#49A069"></path>
    <path fill-rule="evenodd" clip-rule="evenodd" d="M41.6602 53.7747C41.2937 53.8252 41.3318 54.1581 41.1311 54.6054C40.9764 54.9485 40.6772 55.314 40.5852 55.8285C40.4104 56.8207 40.5337 58.1883 40.1201 58.8621C39.0395 58.8621 37.9589 58.8621 36.8784 58.8621C36.8884 58.1345 37.1888 57.5863 37.1967 56.8599C37.2191 54.7927 36.8795 53.7882 36.9658 52.3723C37.0936 50.2827 37.6294 48.1964 37.9399 46.1336C38.0396 45.4666 38.3266 45.0989 38.3938 44.3893C38.4846 43.4442 38.1293 42.0384 37.6103 40.7716C37.237 39.858 36.7629 39.0172 36.3851 38.4723C36.0881 38.7022 35.457 38.9219 34.5334 38.8916C33.6288 38.8614 32.4395 38.5822 31.2827 38.4869C30.2739 38.4051 29.3861 38.6495 28.4176 38.5564C26.6533 38.3871 24.9775 37.8659 24.3319 37.6473C23.777 37.8838 23.0865 37.8692 22.3165 37.71C21.8042 37.7324 21.2931 37.7549 20.7808 37.7773C20.5409 37.7694 20.5645 37.5138 20.7449 37.46C21.181 37.4118 21.617 37.3636 22.0519 37.3165C21.4298 37.3042 20.8077 37.293 20.1856 37.2807C19.9121 37.2795 19.8919 36.8827 20.1542 36.8502C20.6878 36.821 21.2224 36.7908 21.7571 36.7605C21.7582 36.7325 21.7594 36.7044 21.7616 36.6764C21.1574 36.5778 20.5521 36.4791 19.948 36.3805C19.689 36.3334 19.763 36.0262 19.9569 36.0307C20.5914 36.0688 21.2258 36.1058 21.8603 36.1428C21.8703 36.098 21.8804 36.0531 21.8916 36.0083C21.459 35.7661 20.9747 35.598 20.458 35.4758C20.1452 35.3984 20.2741 35.0778 20.5297 35.0856C21.1597 35.1686 21.7683 35.3412 22.3613 35.5789C22.9319 35.6966 23.3253 35.6708 23.239 35.2516C22.9027 34.8614 22.7256 34.4679 22.9386 34.0655C23.0204 33.9993 23.0888 34.0049 23.1403 34.0834C23.3802 34.7392 23.7815 34.9287 24.1088 35.3031C24.3655 35.5968 24.546 35.9556 24.8015 36.2504C25.1221 36.3692 25.8227 36.6271 26.641 36.5946C27.3808 36.5654 28.2092 36.2527 29.1171 36.2291C29.886 36.2089 30.6438 36.4556 31.369 36.4589C31.8051 36.4601 32.194 36.2336 32.6749 36.1787C32.9787 36.1439 33.2925 36.1775 33.6131 36.1417C34.6455 36.0273 35.373 35.2303 36.3571 35.0016C37.1911 34.8065 37.8233 35.1607 38.4757 35.0868C38.9465 35.0329 39.2166 34.7179 39.5114 34.5049C39.8208 34.2818 40.1458 34.1518 40.249 33.7538C40.388 33.2157 40.2792 32.4142 40.3039 31.8974C39.8701 32.1171 39.4856 30.329 39.8701 30.2987C39.869 29.8929 39.7244 29.4905 39.7782 29.1541C39.8522 28.699 40.0842 28.3739 40.3252 28.0802C40.6783 27.6474 41.0919 27.301 41.6602 27.2853C42.2296 27.301 42.6433 27.6474 42.9963 28.0802C43.2373 28.3739 43.4694 28.699 43.5434 29.1541C43.5972 29.4905 43.4526 29.8929 43.4514 30.2987C43.8359 30.329 43.4514 32.1171 43.0176 31.8974C43.0423 32.4142 42.9336 33.2157 43.0726 33.7538C43.1757 34.1518 43.5008 34.2818 43.8101 34.5049C44.1049 34.7179 44.3751 35.0329 44.8459 35.0868C45.4982 35.1607 46.1304 34.8065 46.9644 35.0016C47.9475 35.2303 48.6761 36.0273 49.7084 36.1417C50.029 36.1775 50.3429 36.1439 50.6455 36.1787C51.1275 36.2336 51.5165 36.4601 51.9514 36.4589C52.6777 36.4556 53.4355 36.2089 54.2044 36.2291C55.1124 36.2527 55.9396 36.5654 56.6805 36.5946C57.4988 36.6271 58.1994 36.3692 58.52 36.2504C58.7756 35.9556 58.956 35.5968 59.2127 35.3031C59.54 34.9287 59.9413 34.7392 60.1812 34.0834C60.2327 34.0049 60.3 33.9993 60.3818 34.0655C60.5959 34.4679 60.4188 34.8614 60.0825 35.2516C59.9951 35.6708 60.3897 35.6966 60.9602 35.5789C61.5532 35.3412 62.1618 35.1686 62.7918 35.0856C63.0474 35.0778 63.1763 35.3984 62.8636 35.4758C62.3468 35.598 61.8626 35.7661 61.4299 36.0083C61.4411 36.0531 61.4512 36.098 61.4613 36.1428C62.0957 36.1058 62.7302 36.0688 63.3646 36.0307C63.5585 36.0262 63.6325 36.3334 63.3736 36.3805C62.7694 36.4791 62.1641 36.5778 61.5599 36.6764C61.561 36.7044 61.5633 36.7325 61.5644 36.7605C62.0991 36.7908 62.6338 36.821 63.1673 36.8502C63.4296 36.8827 63.4094 37.2795 63.1359 37.2807C62.5138 37.293 61.8917 37.3042 61.2685 37.3165C61.7045 37.3636 62.1406 37.4118 62.5766 37.46C62.7571 37.5138 62.7806 37.7694 62.5407 37.7773C62.0285 37.7549 61.5173 37.7324 61.0051 37.71C60.235 37.8692 59.5445 37.8838 58.9896 37.6473C58.344 37.8659 56.6682 38.3871 54.9039 38.5564C53.9354 38.6495 53.0465 38.4051 52.0388 38.4869C50.882 38.5822 49.6927 38.8614 48.7881 38.8916C47.8645 38.9219 47.2334 38.7022 46.9353 38.4723C46.5586 39.0172 46.0845 39.858 45.7112 40.7716C45.1922 42.0384 44.8369 43.4442 44.9277 44.3893C44.9949 45.0989 45.2819 45.4666 45.3817 46.1336C45.6922 48.1964 46.228 50.2827 46.3557 52.3723C46.4421 53.7882 46.1024 54.7927 46.1248 56.8599C46.1327 57.5863 46.4331 58.1345 46.4432 58.8621C45.3626 58.8621 44.282 58.8621 43.2015 58.8621C42.7879 58.1883 42.9112 56.8207 42.7363 55.8285C42.6444 55.314 42.3451 54.9485 42.1904 54.6054C41.9886 54.1581 42.0279 53.8252 41.6602 53.7747Z" fill="#2B3966"></path>
    <path fill-rule="evenodd" clip-rule="evenodd" d="M55.0137 56.7736L73.7174 55.0146L65.5874 41.099L70.1248 53.1357L55.0137 56.7736Z" fill="#2B3966"></path>
    <path fill-rule="evenodd" clip-rule="evenodd" d="M28.3078 56.7736L9.6041 55.0146L17.7341 41.099L13.1966 53.1357L28.3078 56.7736Z" fill="#2B3966"></path>
    <path fill-rule="evenodd" clip-rule="evenodd" d="M41.6601 12.5412L34.7104 15.938L41.6601 9.46729L48.611 15.938L41.6601 12.5412Z" fill="#2B3966"></path>
    <path d="M44.2054 20.2618L41.6606 16.1922L39.1158 20.2618L41.6606 24.3315L44.2054 20.2618Z" fill="#49A069"></path>
  </symbol>
  <symbol fill="none" xmlns="http://www.w3.org/2000/svg" viewBox="0 0 113 30" id="logo-mobal">
    <path d="M86.2572 20.9655H84.0005V16.2417L79.7849 9.03415H82.479L85.1029 13.9153H85.1205L87.8321 9.03415H90.4552L86.2572 16.2417V20.9655Z" fill="#2B3966"></path>
    <path d="M78.7302 17.7291C78.7302 18.7549 78.371 19.6036 77.6542 20.2742C76.9373 20.9448 75.9547 21.2801 74.707 21.2801C73.2845 21.2801 72.1119 20.9241 71.1907 20.2127V17.7985H71.2434C71.6513 18.2767 72.1526 18.644 72.7481 18.901C73.342 19.1573 73.9375 19.2858 74.5322 19.2858C75.8262 19.2858 76.4735 18.8252 76.4735 17.9039C76.4735 17.472 76.2931 17.1103 75.9315 16.8189C75.5699 16.5275 75.1357 16.2769 74.628 16.0669C74.1211 15.8569 73.611 15.6206 73.0977 15.3587C72.5844 15.0961 72.147 14.7025 71.7854 14.1772C71.4238 13.6527 71.2434 13.0108 71.2434 12.2532C71.2434 11.2616 71.5611 10.4249 72.1965 9.74233C72.8319 9.06053 73.7858 8.71884 75.0566 8.71884C76.3626 8.71884 77.4474 9.07491 78.3103 9.78624V12.2005H78.2576C77.453 11.2089 76.4504 10.7139 75.249 10.7139C74.6894 10.7139 74.2608 10.8297 73.963 11.0636C73.6661 11.2967 73.5176 11.6177 73.5176 12.0256C73.5176 12.3873 73.6453 12.705 73.9024 12.9789C74.1586 13.2535 74.4795 13.469 74.8643 13.6263C75.249 13.7836 75.6689 13.976 76.1239 14.2035C76.5789 14.4311 76.998 14.6706 77.3836 14.9212C77.7683 15.1719 78.0884 15.5392 78.3455 16.023C78.6017 16.5068 78.7302 17.076 78.7302 17.7291Z" fill="#2B3966"></path>
    <path d="M69.4522 20.9655H66.7229L62.6821 14.9643V14.8773L66.5481 9.03415H69.2246L65.2884 14.8597V14.8949L69.4522 20.9655Z" fill="#2B3966"></path>
    <path d="M62.4546 20.9655H60.1987V9.03415H62.4546V20.9655Z" fill="#2B3966"></path>
    <path d="M56.4886 10.4074C57.5846 11.533 58.1322 13.0635 58.1322 14.9995C58.1322 16.9355 57.5846 18.4667 56.4886 19.5924C55.3918 20.7173 53.9924 21.2801 52.2898 21.2801C50.6342 21.2801 49.2548 20.7173 48.1532 19.5924C47.0508 18.4667 46.5 16.9355 46.5 14.9995C46.5 13.0635 47.0508 11.533 48.1532 10.4074C49.2548 9.28168 50.6573 8.71884 52.36 8.71884C54.0156 8.71884 55.3918 9.28168 56.4886 10.4074ZM55.7885 14.9995C55.7885 13.6934 55.4676 12.6699 54.8266 11.929C54.1848 11.1889 53.3626 10.8185 52.36 10.8185C51.3454 10.8185 50.5089 11.1826 49.8495 11.9123C49.1909 12.6412 48.8612 13.6702 48.8612 14.9995C48.8612 16.3056 49.1821 17.3323 49.8239 18.0787C50.4649 18.8252 51.2872 19.198 52.2898 19.198C53.3043 19.198 54.1417 18.8308 54.8003 18.0963C55.4588 17.3618 55.7885 16.3295 55.7885 14.9995Z" fill="#2B3966"></path>
    <path d="M102.414 21.2801C100.758 21.2801 99.4054 20.7229 98.3557 19.6092C97.3059 18.4955 96.7815 16.9586 96.7815 14.9995C96.7815 13.0866 97.3203 11.5618 98.3996 10.4249C99.478 9.28807 100.892 8.71884 102.642 8.71884C104.169 8.71884 105.527 9.1276 106.717 9.94351V12.4974H106.647C105.633 11.3901 104.396 10.8361 102.938 10.8361C101.761 10.8361 100.833 11.2089 100.157 11.9554C99.4812 12.7018 99.1427 13.7397 99.1427 15.0697C99.1427 16.4341 99.4485 17.4752 100.061 18.1921C100.673 18.9098 101.451 19.2683 102.396 19.2683C103.236 19.2683 103.918 19.0408 104.443 18.5857C104.968 18.1314 105.253 17.4257 105.3 16.4693H101.836V16.3814L102.642 14.352H107.627C107.65 14.6554 107.662 15.0226 107.662 15.4545C107.662 17.4017 107.178 18.8603 106.21 19.8279C105.241 20.7963 103.976 21.2801 102.414 21.2801Z" fill="#49A069"></path>
    <path fill-rule="evenodd" clip-rule="evenodd" d="M94.1912 16.3431L93.5646 14.0678C93.559 14.0478 93.5526 14.0279 93.547 14.0079C93.2157 12.7705 93.1822 11.4883 93.4408 10.2525C92.9962 10.8983 92.6649 11.6169 92.459 12.3833C91.984 14.1572 92.2315 16.0333 93.1495 17.6229C93.8471 18.8324 94.8809 19.7872 96.1158 20.3844C95.1172 19.2499 94.4442 17.8488 94.1912 16.3431ZM103.832 22.9798C102.352 23.2776 100.804 23.161 99.3743 22.6285L97.0857 22.0322C97.0657 22.0266 97.0458 22.0218 97.0258 22.0162C95.7909 21.6857 94.6638 21.0757 93.7234 20.2359C94.0595 20.9424 94.5153 21.5867 95.0749 22.1471C97.4569 24.5286 101.146 24.8064 103.832 22.9798ZM107.406 21.2785L105.743 22.9638C105.728 22.979 105.714 22.9934 105.7 23.0086C104.794 23.9139 103.701 24.5837 102.501 24.9781C103.283 25.0404 104.071 24.9677 104.837 24.7625C106.612 24.2875 108.11 23.1371 109.028 21.546C109.726 20.3381 110.037 18.9641 109.937 17.5957C109.454 19.0256 108.58 20.3069 107.406 21.2785ZM110.251 13.6558L110.879 15.932C110.884 15.9519 110.89 15.9719 110.896 15.9918C111.227 17.2285 111.26 18.5106 111.002 19.7465C111.446 19.1014 111.778 18.3821 111.984 17.6157C112.459 15.8425 112.211 13.9656 111.294 12.3761C110.595 11.1666 109.562 10.2126 108.327 9.61459C109.325 10.7498 109.998 12.1502 110.251 13.6558ZM100.611 7.01914C102.091 6.72136 103.639 6.83871 105.068 7.37041L107.357 7.96758C107.377 7.97237 107.398 7.97717 107.418 7.98276C108.652 8.31407 109.779 8.92321 110.719 9.76308C110.383 9.05734 109.927 8.41227 109.368 7.85262C106.986 5.47034 103.297 5.19251 100.611 7.01914ZM97.037 8.72123L98.6998 7.03511C98.7141 7.02074 98.7285 7.00557 98.7429 6.9912C99.6489 6.08587 100.742 5.41525 101.941 5.02166C101.16 4.95939 100.371 5.03124 99.6058 5.23642C97.8312 5.71224 96.3329 6.86187 95.4141 8.45298C94.7165 9.66089 94.4059 11.0349 94.5057 12.4032C94.9887 10.9734 95.8627 9.69203 97.037 8.72123Z" fill="#49A069"></path>
    <path fill-rule="evenodd" clip-rule="evenodd" d="M20.83 0L26.9514 8.81598L20.83 3.11709L14.7092 8.81598L20.83 0Z" fill="#49A069"></path>
    <path fill-rule="evenodd" clip-rule="evenodd" d="M18.6673 30H0L12.4557 12.0609L2.8449 28.5118L18.6673 30Z" fill="#49A069"></path>
    <path fill-rule="evenodd" clip-rule="evenodd" d="M22.9937 30H41.6609L29.2052 12.0609L38.816 28.5118L22.9937 30Z" fill="#49A069"></path>
    <path fill-rule="evenodd" clip-rule="evenodd" d="M20.8301 26.8873C20.6468 26.9126 20.6659 27.079 20.5656 27.3027C20.4882 27.4742 20.3386 27.6569 20.2926 27.9142C20.2052 28.4103 20.2669 29.0941 20.06 29.431C19.5198 29.431 18.9795 29.431 18.4392 29.431C18.4442 29.0672 18.5944 28.7931 18.5984 28.4299C18.6096 27.3963 18.4398 26.8941 18.4829 26.1861C18.5468 25.1413 18.8147 24.0982 18.9699 23.0668C19.0198 22.7333 19.1633 22.5494 19.1969 22.1946C19.2423 21.7221 19.0647 21.0192 18.8052 20.3858C18.6185 19.929 18.3815 19.5086 18.1926 19.2361C18.0441 19.3511 17.7285 19.4609 17.2667 19.4458C16.8144 19.4306 16.2198 19.2911 15.6414 19.2434C15.137 19.2025 14.6931 19.3247 14.2088 19.2782C13.3267 19.1935 12.4888 18.9329 12.166 18.8236C11.8885 18.9419 11.5433 18.9346 11.1582 18.855C10.9021 18.8662 10.6465 18.8774 10.3904 18.8886C10.2705 18.8847 10.2822 18.7569 10.3725 18.73C10.5905 18.7059 10.8085 18.6818 11.026 18.6582C10.7149 18.6521 10.4039 18.6465 10.0928 18.6403C9.95606 18.6397 9.94597 18.4413 10.0771 18.4251C10.3439 18.4105 10.6112 18.3954 10.8786 18.3802C10.8791 18.3662 10.8797 18.3522 10.8808 18.3382C10.5787 18.2889 10.2761 18.2395 9.974 18.1902C9.84453 18.1667 9.88152 18.0131 9.97848 18.0153C10.2957 18.0344 10.6129 18.0529 10.9301 18.0714C10.9352 18.0489 10.9402 18.0265 10.9458 18.0041C10.7295 17.883 10.4874 17.799 10.229 17.7379C10.0726 17.6992 10.1371 17.5389 10.2649 17.5428C10.5799 17.5843 10.8842 17.6706 11.1807 17.7894C11.4659 17.8483 11.6627 17.8354 11.6195 17.6257C11.4514 17.4307 11.3628 17.2339 11.4693 17.0327C11.5102 16.9996 11.5444 17.0024 11.5702 17.0417C11.6901 17.3696 11.8908 17.4643 12.0544 17.6515C12.1828 17.7984 12.273 17.9778 12.4008 18.1252C12.5611 18.1846 12.9114 18.3135 13.3205 18.2973C13.6904 18.2827 14.1046 18.1263 14.5586 18.1145C14.943 18.1044 15.3219 18.2278 15.6845 18.2294C15.9025 18.23 16.097 18.1168 16.3375 18.0893C16.4893 18.0719 16.6463 18.0887 16.8066 18.0708C17.3228 18.0136 17.6865 17.6151 18.1786 17.5007C18.5956 17.4032 18.9117 17.5803 19.2379 17.5433C19.4732 17.5164 19.6083 17.3589 19.7557 17.2524C19.9104 17.1409 20.0729 17.0759 20.1245 16.8769C20.194 16.6078 20.1396 16.2071 20.152 15.9486C19.9351 16.0585 19.7428 15.1645 19.9351 15.1493C19.9345 14.9464 19.8622 14.7452 19.8891 14.577C19.9261 14.3495 20.0421 14.1869 20.1626 14.0401C20.3392 13.8237 20.546 13.6505 20.8301 13.6426C21.1148 13.6505 21.3216 13.8237 21.4982 14.0401C21.6187 14.1869 21.7347 14.3495 21.7717 14.577C21.7986 14.7452 21.7263 14.9464 21.7257 15.1493C21.918 15.1645 21.7257 16.0585 21.5088 15.9486C21.5212 16.2071 21.4668 16.6078 21.5363 16.8769C21.5879 17.0759 21.7504 17.1409 21.9051 17.2524C22.0525 17.3589 22.1876 17.5164 22.4229 17.5433C22.7491 17.5803 23.0652 17.4032 23.4822 17.5007C23.9737 17.6151 24.338 18.0136 24.8542 18.0708C25.0145 18.0887 25.1714 18.0719 25.3228 18.0893C25.5638 18.1168 25.7582 18.23 25.9757 18.2294C26.3389 18.2278 26.7178 18.1044 27.1022 18.1145C27.5562 18.1263 27.9698 18.2827 28.3403 18.2973C28.7494 18.3135 29.0997 18.1846 29.26 18.1252C29.3878 17.9778 29.478 17.7984 29.6064 17.6515C29.77 17.4643 29.9707 17.3696 30.0906 17.0417C30.1164 17.0024 30.15 16.9996 30.1909 17.0327C30.298 17.2339 30.2094 17.4307 30.0413 17.6257C29.9976 17.8354 30.1949 17.8483 30.4801 17.7894C30.7766 17.6706 31.0809 17.5843 31.3959 17.5428C31.5237 17.5389 31.5882 17.6992 31.4318 17.7379C31.1734 17.799 30.9313 17.883 30.715 18.0041C30.7206 18.0265 30.7256 18.0489 30.7307 18.0714C31.0479 18.0529 31.3651 18.0344 31.6823 18.0153C31.7793 18.0131 31.8163 18.1667 31.6868 18.1902C31.3847 18.2395 31.0821 18.2889 30.78 18.3382C30.7805 18.3522 30.7817 18.3662 30.7822 18.3802C31.0496 18.3954 31.3169 18.4105 31.5837 18.4251C31.7148 18.4413 31.7047 18.6397 31.568 18.6403C31.2569 18.6465 30.9459 18.6521 30.6343 18.6582C30.8523 18.6818 31.0703 18.7059 31.2883 18.73C31.3785 18.7569 31.3903 18.8847 31.2704 18.8886C31.0142 18.8774 30.7587 18.8662 30.5025 18.855C30.1175 18.9346 29.7723 18.9419 29.4948 18.8236C29.172 18.9329 28.3341 19.1935 27.452 19.2782C26.9677 19.3247 26.5233 19.2025 26.0194 19.2434C25.441 19.2911 24.8464 19.4306 24.3941 19.4458C23.9323 19.4609 23.6167 19.3511 23.4676 19.2361C23.2793 19.5086 23.0423 19.929 22.8556 20.3858C22.5961 21.0192 22.4185 21.7221 22.4639 22.1946C22.4975 22.5494 22.641 22.7333 22.6908 23.0668C22.8461 24.0982 23.114 25.1413 23.1779 26.1861C23.221 26.8941 23.0512 27.3963 23.0624 28.4299C23.0664 28.7931 23.2166 29.0672 23.2216 29.431C22.6813 29.431 22.141 29.431 21.6008 29.431C21.3939 29.0941 21.4556 28.4103 21.3682 27.9142C21.3222 27.6569 21.1726 27.4742 21.0952 27.3027C20.9943 27.079 21.0139 26.9126 20.8301 26.8873Z" fill="#2B3966"></path>
    <path fill-rule="evenodd" clip-rule="evenodd" d="M27.5068 28.3868L36.8587 27.5073L32.7937 20.5495L35.0624 26.5679L27.5068 28.3868Z" fill="#2B3966"></path>
    <path fill-rule="evenodd" clip-rule="evenodd" d="M14.154 28.3868L4.80212 27.5073L8.86714 20.5495L6.5984 26.5679L14.154 28.3868Z" fill="#2B3966"></path>
    <path fill-rule="evenodd" clip-rule="evenodd" d="M20.8298 6.27061L17.355 7.96901L20.8298 4.73364L24.3053 7.96901L20.8298 6.27061Z" fill="#2B3966"></path>
    <path d="M22.103 10.1309L20.8306 8.0961L19.5582 10.1309L20.8306 12.1657L22.103 10.1309Z" fill="#49A069"></path>
  </symbol>
  <symbol fill="none" xmlns="http://www.w3.org/2000/svg" viewBox="0 0 225 60" id="logo-wt">
    <path d="M172.514 41.9311H168.001V32.4834L159.57 18.0684H164.958L170.206 27.8306H170.241L175.664 18.0684H180.911L172.514 32.4834V41.9311Z" fill="white"></path>
    <path d="M157.461 35.4579C157.461 37.5097 156.742 39.207 155.309 40.5482C153.875 41.8895 151.91 42.5601 149.414 42.5601C146.569 42.5601 144.224 41.848 142.382 40.4253V35.5968H142.487C143.303 36.5533 144.306 37.2878 145.497 37.8019C146.684 38.3144 147.875 38.5715 149.065 38.5715C151.653 38.5715 152.948 37.6502 152.948 35.8076C152.948 34.9438 152.587 34.2205 151.864 33.6377C151.14 33.0549 150.272 32.5535 149.256 32.1336C148.243 31.7137 147.222 31.241 146.196 30.7173C145.169 30.192 144.294 29.4048 143.571 28.3542C142.848 27.3051 142.487 26.0214 142.487 24.5061C142.487 22.523 143.123 20.8497 144.393 19.4845C145.664 18.1209 147.572 17.4375 150.114 17.4375C152.726 17.4375 154.895 18.1496 156.621 19.5723V24.4007H156.516C154.907 22.4176 152.901 21.4277 150.499 21.4277C149.379 21.4277 148.522 21.6592 147.927 22.127C147.333 22.5933 147.036 23.2351 147.036 24.0511C147.036 24.7744 147.291 25.4099 147.805 25.9575C148.318 26.5068 148.959 26.9379 149.729 27.2525C150.499 27.567 151.338 27.9518 152.248 28.4069C153.158 28.8619 153.996 29.3409 154.768 29.8423C155.537 30.3437 156.177 31.0782 156.691 32.0458C157.204 33.0134 157.461 34.1518 157.461 35.4579Z" fill="white"></path>
    <path d="M138.905 41.9311H133.446L125.365 29.9287V29.7546L133.097 18.0684H138.45L130.577 29.7195V29.7898L138.905 41.9311Z" fill="white"></path>
    <path d="M124.909 41.9311H120.398V18.0684H124.909V41.9311Z" fill="white"></path>
    <path d="M112.977 20.8145C115.169 23.0659 116.264 26.1268 116.264 29.9988C116.264 33.8708 115.169 36.9333 112.977 39.1846C110.784 41.4344 107.985 42.5601 104.58 42.5601C101.268 42.5601 98.5096 41.4344 96.3064 39.1846C94.1016 36.9333 93 33.8708 93 29.9988C93 26.1268 94.1016 23.0659 96.3064 20.8145C98.5096 18.5632 101.315 17.4375 104.72 17.4375C108.031 17.4375 110.784 18.5632 112.977 20.8145ZM111.577 29.9988C111.577 27.3866 110.935 25.3396 109.653 23.8579C108.37 22.3777 106.725 21.6368 104.72 21.6368C102.691 21.6368 101.018 22.3649 99.699 23.8243C98.3819 25.2821 97.7225 27.3403 97.7225 29.9988C97.7225 32.611 98.3643 34.6644 99.6479 36.1573C100.93 37.6502 102.574 38.3959 104.58 38.3959C106.609 38.3959 108.283 37.6614 109.601 36.1924C110.918 34.7234 111.577 32.6589 111.577 29.9988Z" fill="white"></path>
    <path d="M204.828 42.5601C201.515 42.5601 198.811 41.4456 196.711 39.2182C194.612 36.9908 193.563 33.9171 193.563 29.9988C193.563 26.1731 194.641 23.1234 196.799 20.8497C198.956 18.576 201.783 17.4375 205.283 17.4375C208.337 17.4375 211.054 18.255 213.433 19.8868V24.9947H213.294C211.265 22.7801 208.792 21.672 205.877 21.672C203.522 21.672 201.667 22.4176 200.315 23.9105C198.962 25.4035 198.285 27.4792 198.285 30.1393C198.285 32.8681 198.897 34.9502 200.121 36.384C201.346 37.8195 202.903 38.5364 204.793 38.5364C206.472 38.5364 207.836 38.0813 208.886 37.1712C209.935 36.2627 210.507 34.8512 210.599 32.9383H203.672V32.7627L205.283 28.7039H215.253C215.299 29.3106 215.323 30.0451 215.323 30.9089C215.323 34.8033 214.356 37.7205 212.419 39.6557C210.483 41.5925 207.952 42.5601 204.828 42.5601Z" fill="white"></path>
    <path fill-rule="evenodd" clip-rule="evenodd" d="M188.382 32.6863L187.129 28.1357C187.118 28.0957 187.105 28.0558 187.094 28.0159C186.431 25.541 186.364 22.9767 186.881 20.505C185.992 21.7967 185.33 23.2338 184.918 24.7666C183.968 28.3145 184.463 32.0667 186.299 35.2458C187.694 37.6648 189.762 39.5745 192.231 40.7688C190.234 38.4999 188.888 35.6977 188.382 32.6863ZM207.663 45.9597C204.703 46.5553 201.608 46.3221 198.748 45.2571L194.171 44.0644C194.131 44.0532 194.091 44.0436 194.051 44.0325C191.582 43.3714 189.327 42.1515 187.447 40.4718C188.119 41.8849 189.03 43.1734 190.149 44.2943C194.913 49.0573 202.291 49.6129 207.663 45.9597ZM214.811 42.5571L211.485 45.9277C211.457 45.9581 211.428 45.9868 211.399 46.0172C209.589 47.8278 207.401 49.1675 205.002 49.9562C206.565 50.0808 208.142 49.9355 209.673 49.5251C213.224 48.5751 216.221 46.2742 218.057 43.092C219.452 40.6762 220.073 37.9283 219.873 35.1915C218.907 38.0512 217.159 40.6139 214.811 42.5571ZM220.502 27.3118L221.757 31.864C221.768 31.9039 221.78 31.9438 221.791 31.9837C222.453 34.457 222.52 37.0213 222.003 39.493C222.892 38.2029 223.557 36.7642 223.967 35.2314C224.917 31.6851 224.422 27.9313 222.587 24.7522C221.19 22.3332 219.123 20.4252 216.653 19.2292C218.65 21.4998 219.996 24.3004 220.502 27.3118ZM201.221 14.0383C204.181 13.4428 207.278 13.6775 210.136 14.7409L214.713 15.9352C214.753 15.9448 214.795 15.9544 214.835 15.9656C217.305 16.6282 219.557 17.8465 221.438 19.5262C220.766 18.1147 219.854 16.8246 218.735 15.7053C213.971 10.9407 206.594 10.3851 201.221 14.0383ZM194.074 17.4425L197.399 14.0703C197.428 14.0415 197.457 14.0112 197.485 13.9825C199.297 12.1718 201.483 10.8306 203.883 10.0434C202.32 9.91884 200.742 10.0625 199.211 10.4729C195.662 11.4245 192.666 13.7238 190.828 16.906C189.433 19.3218 188.812 22.0698 189.011 24.8065C189.977 21.9468 191.725 19.3841 194.074 17.4425Z" fill="white"></path>
    <path fill-rule="evenodd" clip-rule="evenodd" d="M41.6602 0L53.9029 17.632L41.6602 6.23419L29.4186 17.632L41.6602 0Z" fill="white"></path>
    <path fill-rule="evenodd" clip-rule="evenodd" d="M37.3345 59.9998H0L24.9114 24.1216L5.6898 57.0234L37.3345 59.9998Z" fill="white"></path>
    <path fill-rule="evenodd" clip-rule="evenodd" d="M45.9869 59.9998H83.3215L58.4101 24.1216L77.6317 57.0234L45.9869 59.9998Z" fill="white"></path>
    <path fill-rule="evenodd" clip-rule="evenodd" d="M41.6602 53.7746C41.2937 53.825 41.3318 54.158 41.1311 54.6053C40.9764 54.9483 40.6772 55.3138 40.5852 55.8283C40.4104 56.8205 40.5337 58.1882 40.1201 58.8619C39.0395 58.8619 37.9589 58.8619 36.8784 58.8619C36.8884 58.1343 37.1888 57.5861 37.1967 56.8597C37.2191 54.7925 36.8795 53.788 36.9658 52.3721C37.0936 50.2825 37.6294 48.1962 37.9399 46.1335C38.0396 45.4664 38.3266 45.0987 38.3938 44.3891C38.4846 43.444 38.1293 42.0382 37.6103 40.7714C37.237 39.8578 36.7629 39.017 36.3851 38.4722C36.0881 38.702 35.457 38.9217 34.5334 38.8914C33.6288 38.8612 32.4395 38.582 31.2827 38.4867C30.2739 38.4049 29.3861 38.6493 28.4176 38.5562C26.6533 38.387 24.9775 37.8657 24.3319 37.6471C23.777 37.8836 23.0865 37.869 22.3165 37.7098C21.8042 37.7323 21.2931 37.7547 20.7808 37.7771C20.5409 37.7693 20.5645 37.5137 20.7449 37.4599C21.181 37.4116 21.617 37.3634 22.0519 37.3164C21.4298 37.304 20.8077 37.2928 20.1856 37.2805C19.9121 37.2794 19.8919 36.8825 20.1542 36.85C20.6878 36.8208 21.2224 36.7906 21.7571 36.7603C21.7582 36.7323 21.7594 36.7043 21.7616 36.6762C21.1574 36.5776 20.5521 36.4789 19.948 36.3803C19.689 36.3332 19.763 36.026 19.9569 36.0305C20.5914 36.0686 21.2258 36.1056 21.8603 36.1426C21.8703 36.0978 21.8804 36.0529 21.8916 36.0081C21.459 35.7659 20.9747 35.5978 20.458 35.4756C20.1452 35.3982 20.2741 35.0776 20.5297 35.0855C21.1597 35.1684 21.7683 35.3411 22.3613 35.5787C22.9319 35.6964 23.3253 35.6706 23.239 35.2514C22.9027 34.8612 22.7256 34.4678 22.9386 34.0653C23.0204 33.9992 23.0888 34.0048 23.1403 34.0832C23.3802 34.739 23.7815 34.9285 24.1088 35.3029C24.3655 35.5967 24.546 35.9554 24.8015 36.2502C25.1221 36.3691 25.8227 36.6269 26.641 36.5944C27.3808 36.5652 28.2092 36.2525 29.1171 36.2289C29.886 36.2088 30.6438 36.4554 31.369 36.4587C31.8051 36.4599 32.194 36.2334 32.6749 36.1785C32.9787 36.1437 33.2925 36.1774 33.6131 36.1415C34.6455 36.0271 35.373 35.2301 36.3571 35.0014C37.1911 34.8063 37.8233 35.1606 38.4757 35.0866C38.9465 35.0328 39.2166 34.7177 39.5114 34.5047C39.8208 34.2817 40.1458 34.1516 40.249 33.7536C40.388 33.2155 40.2792 32.414 40.3039 31.8972C39.8701 32.1169 39.4856 30.3288 39.8701 30.2986C39.869 29.8927 39.7244 29.4903 39.7782 29.154C39.8522 28.6988 40.0842 28.3737 40.3252 28.08C40.6783 27.6473 41.0919 27.3009 41.6602 27.2852C42.2296 27.3009 42.6433 27.6473 42.9963 28.08C43.2373 28.3737 43.4694 28.6988 43.5434 29.154C43.5972 29.4903 43.4526 29.8927 43.4514 30.2986C43.8359 30.3288 43.4514 32.1169 43.0176 31.8972C43.0423 32.414 42.9336 33.2155 43.0726 33.7536C43.1757 34.1516 43.5008 34.2817 43.8101 34.5047C44.1049 34.7177 44.3751 35.0328 44.8459 35.0866C45.4982 35.1606 46.1304 34.8063 46.9644 35.0014C47.9475 35.2301 48.6761 36.0271 49.7084 36.1415C50.029 36.1774 50.3429 36.1437 50.6455 36.1785C51.1275 36.2334 51.5165 36.4599 51.9514 36.4587C52.6777 36.4554 53.4355 36.2088 54.2044 36.2289C55.1124 36.2525 55.9396 36.5652 56.6805 36.5944C57.4988 36.6269 58.1994 36.3691 58.52 36.2502C58.7756 35.9554 58.956 35.5967 59.2127 35.3029C59.54 34.9285 59.9413 34.739 60.1812 34.0832C60.2327 34.0048 60.3 33.9992 60.3818 34.0653C60.5959 34.4678 60.4188 34.8612 60.0825 35.2514C59.9951 35.6706 60.3897 35.6964 60.9602 35.5787C61.5532 35.3411 62.1618 35.1684 62.7918 35.0855C63.0474 35.0776 63.1763 35.3982 62.8636 35.4756C62.3468 35.5978 61.8626 35.7659 61.4299 36.0081C61.4411 36.0529 61.4512 36.0978 61.4613 36.1426C62.0957 36.1056 62.7302 36.0686 63.3646 36.0305C63.5585 36.026 63.6325 36.3332 63.3736 36.3803C62.7694 36.4789 62.1641 36.5776 61.5599 36.6762C61.561 36.7043 61.5633 36.7323 61.5644 36.7603C62.0991 36.7906 62.6338 36.8208 63.1673 36.85C63.4296 36.8825 63.4094 37.2794 63.1359 37.2805C62.5138 37.2928 61.8917 37.304 61.2685 37.3164C61.7045 37.3634 62.1406 37.4116 62.5766 37.4599C62.7571 37.5137 62.7806 37.7693 62.5407 37.7771C62.0285 37.7547 61.5173 37.7323 61.0051 37.7098C60.235 37.869 59.5445 37.8836 58.9896 37.6471C58.344 37.8657 56.6682 38.387 54.9039 38.5562C53.9354 38.6493 53.0465 38.4049 52.0388 38.4867C50.882 38.582 49.6927 38.8612 48.7881 38.8914C47.8645 38.9217 47.2334 38.702 46.9353 38.4722C46.5586 39.017 46.0845 39.8578 45.7112 40.7714C45.1922 42.0382 44.8369 43.444 44.9277 44.3891C44.9949 45.0987 45.2819 45.4664 45.3817 46.1335C45.6922 48.1962 46.228 50.2825 46.3557 52.3721C46.4421 53.788 46.1024 54.7925 46.1248 56.8597C46.1327 57.5861 46.4331 58.1343 46.4432 58.8619C45.3626 58.8619 44.282 58.8619 43.2015 58.8619C42.7879 58.1882 42.9112 56.8205 42.7363 55.8283C42.6444 55.3138 42.3451 54.9483 42.1904 54.6053C41.9886 54.158 42.0279 53.825 41.6602 53.7746Z" fill="white"></path>
    <path fill-rule="evenodd" clip-rule="evenodd" d="M55.0137 56.7737L73.7174 55.0148L65.5874 41.0991L70.1249 53.1359L55.0137 56.7737Z" fill="white"></path>
    <path fill-rule="evenodd" clip-rule="evenodd" d="M28.3078 56.7737L9.6041 55.0148L17.7341 41.0991L13.1966 53.1359L28.3078 56.7737Z" fill="white"></path>
    <path fill-rule="evenodd" clip-rule="evenodd" d="M41.6601 12.5412L34.7104 15.938L41.6601 9.46729L48.611 15.938L41.6601 12.5412Z" fill="white"></path>
    <path d="M44.2054 20.262L41.6606 16.1924L39.1158 20.262L41.6606 24.3317L44.2054 20.262Z" fill="white"></path>
  </symbol>
  <symbol fill="none" xmlns="http://www.w3.org/2000/svg" viewBox="0 0 113 30" id="logo-wt-mobal">
    <path d="M86.2572 20.9656H84.0005V16.2417L79.7849 9.03418H82.479L85.1029 13.9153H85.1205L87.8322 9.03418H90.4553L86.2572 16.2417V20.9656Z" fill="white"></path>
    <path d="M78.7305 17.729C78.7305 18.7549 78.3713 19.6035 77.6544 20.2741C76.9376 20.9448 75.9549 21.2801 74.7073 21.2801C73.2848 21.2801 72.1121 20.924 71.1909 20.2127V17.7984H71.2436C71.6515 18.2767 72.1528 18.6439 72.7483 18.901C73.3422 19.1572 73.9377 19.2858 74.5324 19.2858C75.8264 19.2858 76.4738 18.8251 76.4738 17.9038C76.4738 17.4719 76.2934 17.1103 75.9318 16.8189C75.5702 16.5275 75.1359 16.2768 74.6282 16.0668C74.1213 15.8568 73.6112 15.6205 73.098 15.3587C72.5847 15.096 72.1472 14.7024 71.7856 14.1771C71.424 13.6526 71.2436 13.0107 71.2436 12.2531C71.2436 11.2615 71.5613 10.4248 72.1967 9.74224C72.8321 9.06044 73.7861 8.71875 75.0569 8.71875C76.3628 8.71875 77.4477 9.07481 78.3106 9.78615V12.2004H78.2579C77.4533 11.2088 76.4507 10.7138 75.2493 10.7138C74.6897 10.7138 74.261 10.8296 73.9633 11.0635C73.6663 11.2966 73.5178 11.6176 73.5178 12.0255C73.5178 12.3872 73.6456 12.7049 73.9026 12.9788C74.1588 13.2534 74.4798 13.469 74.8645 13.6262C75.2493 13.7835 75.6692 13.9759 76.1242 14.2035C76.5792 14.431 76.9983 14.6705 77.3838 14.9212C77.7686 15.1719 78.0887 15.5391 78.3457 16.0229C78.602 16.5067 78.7305 17.0759 78.7305 17.729Z" fill="white"></path>
    <path d="M69.4524 20.9656H66.7232L62.6824 14.9644V14.8773L66.5483 9.03418H69.2249L65.2887 14.8598V14.8949L69.4524 20.9656Z" fill="white"></path>
    <path d="M62.4549 20.9656H60.199V9.03418H62.4549V20.9656Z" fill="white"></path>
    <path d="M56.4886 10.4073C57.5846 11.533 58.1322 13.0634 58.1322 14.9994C58.1322 16.9354 57.5846 18.4667 56.4886 19.5924C55.3918 20.7172 53.9925 21.2801 52.2898 21.2801C50.6342 21.2801 49.2548 20.7172 48.1532 19.5924C47.0508 18.4667 46.5 16.9354 46.5 14.9994C46.5 13.0634 47.0508 11.533 48.1532 10.4073C49.2548 9.28159 50.6573 8.71875 52.36 8.71875C54.0156 8.71875 55.3918 9.28159 56.4886 10.4073ZM55.7886 14.9994C55.7886 13.6933 55.4677 12.6698 54.8266 11.9289C54.1848 11.1889 53.3626 10.8184 52.36 10.8184C51.3454 10.8184 50.5089 11.1825 49.8495 11.9122C49.1909 12.6411 48.8613 13.6701 48.8613 14.9994C48.8613 16.3055 49.1822 17.3322 49.824 18.0787C50.465 18.8251 51.2872 19.198 52.2898 19.198C53.3044 19.198 54.1417 18.8307 54.8003 18.0962C55.4589 17.3617 55.7886 16.3295 55.7886 14.9994Z" fill="white"></path>
    <path d="M102.414 21.2801C100.758 21.2801 99.4056 20.7228 98.3559 19.6091C97.3062 18.4954 96.7817 16.9586 96.7817 14.9994C96.7817 13.0866 97.3206 11.5617 98.3998 10.4248C99.4783 9.28798 100.892 8.71875 102.642 8.71875C104.169 8.71875 105.527 9.12751 106.717 9.94342V12.4974H106.647C105.633 11.39 104.396 10.836 102.939 10.836C101.761 10.836 100.834 11.2088 100.158 11.9553C99.4815 12.7017 99.143 13.7396 99.143 15.0697C99.143 16.4341 99.4487 17.4751 100.061 18.192C100.673 18.9098 101.452 19.2682 102.397 19.2682C103.236 19.2682 103.918 19.0407 104.443 18.5856C104.968 18.1314 105.254 17.4256 105.3 16.4692H101.836V16.3814L102.642 14.3519H107.627C107.65 14.6553 107.662 15.0226 107.662 15.4545C107.662 17.4017 107.178 18.8603 106.21 19.8279C105.242 20.7963 103.976 21.2801 102.414 21.2801Z" fill="white"></path>
    <path fill-rule="evenodd" clip-rule="evenodd" d="M94.1912 16.3432L93.5646 14.0679C93.559 14.0479 93.5526 14.0279 93.547 14.008C93.2157 12.7705 93.1822 11.4884 93.4408 10.2525C92.9962 10.8984 92.6649 11.6169 92.459 12.3833C91.984 14.1573 92.2315 16.0334 93.1495 17.6229C93.8472 18.8324 94.8809 19.7873 96.1158 20.3844C95.1172 19.25 94.4442 17.8489 94.1912 16.3432ZM103.832 22.9799C102.352 23.2777 100.804 23.1611 99.3743 22.6286L97.0857 22.0322C97.0657 22.0267 97.0458 22.0219 97.0258 22.0163C95.7909 21.6858 94.6638 21.0758 93.7234 20.236C94.0595 20.9425 94.5153 21.5868 95.0749 22.1472C97.4569 24.5287 101.146 24.8065 103.832 22.9799ZM107.406 21.2786L105.743 22.9639C105.728 22.9791 105.714 22.9935 105.7 23.0086C104.794 23.914 103.701 24.5838 102.501 24.9782C103.283 25.0404 104.071 24.9678 104.837 24.7626C106.612 24.2876 108.11 23.1372 109.028 21.546C109.726 20.3381 110.037 18.9642 109.937 17.5958C109.454 19.0256 108.58 20.307 107.406 21.2786ZM110.251 13.6559L110.879 15.932C110.884 15.952 110.89 15.9719 110.896 15.9919C111.227 17.2285 111.26 18.5107 111.002 19.7466C111.446 19.1015 111.778 18.3822 111.984 17.6157C112.459 15.8426 112.211 13.9657 111.294 12.3761C110.595 11.1666 109.562 10.2126 108.327 9.61463C109.325 10.7499 109.998 12.1502 110.251 13.6559ZM100.611 7.01918C102.091 6.72139 103.639 6.83875 105.068 7.37045L107.357 7.96762C107.377 7.97241 107.398 7.97721 107.418 7.9828C108.652 8.31411 109.779 8.92325 110.719 9.76312C110.383 9.05738 109.927 8.41231 109.368 7.85266C106.986 5.47037 103.297 5.19254 100.611 7.01918ZM97.037 8.72127L98.6998 7.03514C98.7141 7.02077 98.7285 7.00561 98.7429 6.99124C99.6489 6.0859 100.742 5.41528 101.942 5.02169C101.16 4.95942 100.371 5.03127 99.6058 5.23645C97.8313 5.71227 96.3329 6.8619 95.4141 8.45302C94.7165 9.66094 94.4059 11.0349 94.5057 12.4033C94.9887 10.9734 95.8628 9.69207 97.037 8.72127Z" fill="white"></path>
    <path fill-rule="evenodd" clip-rule="evenodd" d="M20.8303 0L26.9516 8.816L20.8303 3.1171L14.7095 8.816L20.8303 0Z" fill="white"></path>
    <path fill-rule="evenodd" clip-rule="evenodd" d="M18.6673 30.0002H0L12.4557 12.061L2.84491 28.512L18.6673 30.0002Z" fill="white"></path>
    <path fill-rule="evenodd" clip-rule="evenodd" d="M22.9937 30.0002H41.661L29.2053 12.061L38.8161 28.512L22.9937 30.0002Z" fill="white"></path>
    <path fill-rule="evenodd" clip-rule="evenodd" d="M20.8302 26.8873C20.6469 26.9125 20.6659 27.079 20.5656 27.3027C20.4883 27.4742 20.3386 27.6569 20.2927 27.9142C20.2052 28.4103 20.2669 29.0941 20.0601 29.431C19.5198 29.431 18.9795 29.431 18.4392 29.431C18.4443 29.0672 18.5945 28.7931 18.5984 28.4299C18.6096 27.3963 18.4398 26.894 18.4829 26.1861C18.5468 25.1413 18.8147 24.0981 18.97 23.0668C19.0199 22.7332 19.1633 22.5494 19.197 22.1946C19.2424 21.722 19.0647 21.0191 18.8052 20.3857C18.6186 19.9289 18.3815 19.5085 18.1926 19.2361C18.0441 19.351 17.7286 19.4609 17.2667 19.4457C16.8144 19.4306 16.2198 19.291 15.6414 19.2434C15.137 19.2025 14.6931 19.3247 14.2088 19.2781C13.3267 19.1935 12.4888 18.9329 12.166 18.8235C11.8885 18.9418 11.5433 18.9345 11.1583 18.8549C10.9021 18.8661 10.6466 18.8774 10.3904 18.8886C10.2705 18.8846 10.2822 18.7568 10.3725 18.7299C10.5905 18.7058 10.8085 18.6817 11.026 18.6582C10.7149 18.652 10.4039 18.6464 10.0928 18.6403C9.95606 18.6397 9.94597 18.4413 10.0771 18.425C10.3439 18.4104 10.6112 18.3953 10.8786 18.3802C10.8791 18.3662 10.8797 18.3521 10.8808 18.3381C10.5787 18.2888 10.2761 18.2395 9.974 18.1902C9.84453 18.1666 9.88152 18.013 9.97848 18.0153C10.2957 18.0343 10.6129 18.0528 10.9301 18.0713C10.9352 18.0489 10.9402 18.0265 10.9458 18.0041C10.7295 17.883 10.4874 17.7989 10.229 17.7378C10.0726 17.6991 10.1371 17.5388 10.2649 17.5427C10.5799 17.5842 10.8842 17.6705 11.1807 17.7894C11.4659 17.8482 11.6627 17.8353 11.6195 17.6257C11.4514 17.4306 11.3628 17.2339 11.4693 17.0327C11.5102 16.9996 11.5444 17.0024 11.5702 17.0416C11.6901 17.3695 11.8908 17.4643 12.0544 17.6515C12.1828 17.7983 12.273 17.9777 12.4008 18.1251C12.5611 18.1845 12.9114 18.3135 13.3205 18.2972C13.6904 18.2826 14.1046 18.1263 14.5586 18.1145C14.9431 18.1044 15.3219 18.2277 15.6845 18.2294C15.9026 18.2299 16.097 18.1167 16.3375 18.0893C16.4894 18.0719 16.6463 18.0887 16.8066 18.0708C17.3228 18.0136 17.6865 17.615 18.1786 17.5007C18.5956 17.4032 18.9117 17.5803 19.2379 17.5433C19.4733 17.5164 19.6083 17.3589 19.7557 17.2524C19.9104 17.1408 20.073 17.0758 20.1245 16.8768C20.194 16.6078 20.1397 16.207 20.152 15.9486C19.9351 16.0585 19.7429 15.1644 19.9351 15.1493C19.9345 14.9464 19.8622 14.7451 19.8891 14.577C19.9261 14.3494 20.0421 14.1869 20.1626 14.04C20.3392 13.8236 20.546 13.6504 20.8302 13.6426C21.1149 13.6504 21.3217 13.8236 21.4982 14.04C21.6187 14.1869 21.7347 14.3494 21.7717 14.577C21.7986 14.7451 21.7263 14.9464 21.7258 15.1493C21.918 15.1644 21.7258 16.0585 21.5089 15.9486C21.5212 16.207 21.4668 16.6078 21.5363 16.8768C21.5879 17.0758 21.7504 17.1408 21.9051 17.2524C22.0525 17.3589 22.1876 17.5164 22.423 17.5433C22.7492 17.5803 23.0653 17.4032 23.4823 17.5007C23.9738 17.615 24.3381 18.0136 24.8543 18.0708C25.0146 18.0887 25.1715 18.0719 25.3228 18.0893C25.5638 18.1167 25.7583 18.2299 25.9758 18.2294C26.3389 18.2277 26.7178 18.1044 27.1023 18.1145C27.5563 18.1263 27.9699 18.2826 28.3403 18.2972C28.7495 18.3135 29.0998 18.1845 29.2601 18.1251C29.3878 17.9777 29.4781 17.7983 29.6064 17.6515C29.7701 17.4643 29.9707 17.3695 30.0907 17.0416C30.1164 17.0024 30.1501 16.9996 30.191 17.0327C30.298 17.2339 30.2095 17.4306 30.0413 17.6257C29.9976 17.8353 30.1949 17.8482 30.4802 17.7894C30.7767 17.6705 31.081 17.5842 31.396 17.5427C31.5238 17.5388 31.5882 17.6991 31.4319 17.7378C31.1735 17.7989 30.9314 17.883 30.715 18.0041C30.7206 18.0265 30.7257 18.0489 30.7307 18.0713C31.0479 18.0528 31.3652 18.0343 31.6824 18.0153C31.7793 18.013 31.8163 18.1666 31.6869 18.1902C31.3848 18.2395 31.0821 18.2888 30.78 18.3381C30.7806 18.3521 30.7817 18.3662 30.7823 18.3802C31.0496 18.3953 31.317 18.4104 31.5837 18.425C31.7149 18.4413 31.7048 18.6397 31.568 18.6403C31.257 18.6464 30.9459 18.652 30.6343 18.6582C30.8523 18.6817 31.0704 18.7058 31.2884 18.7299C31.3786 18.7568 31.3904 18.8846 31.2704 18.8886C31.0143 18.8774 30.7587 18.8661 30.5026 18.8549C30.1176 18.9345 29.7723 18.9418 29.4949 18.8235C29.1721 18.9329 28.3342 19.1935 27.452 19.2781C26.9678 19.3247 26.5233 19.2025 26.0195 19.2434C25.4411 19.291 24.8464 19.4306 24.3941 19.4457C23.9323 19.4609 23.6168 19.351 23.4677 19.2361C23.2794 19.5085 23.0423 19.9289 22.8557 20.3857C22.5962 21.0191 22.4185 21.722 22.4639 22.1946C22.4975 22.5494 22.641 22.7332 22.6909 23.0668C22.8461 24.0981 23.114 25.1413 23.1779 26.1861C23.2211 26.894 23.0513 27.3963 23.0625 28.4299C23.0664 28.7931 23.2166 29.0672 23.2216 29.431C22.6814 29.431 22.1411 29.431 21.6008 29.431C21.394 29.0941 21.4556 28.4103 21.3682 27.9142C21.3222 27.6569 21.1726 27.4742 21.0952 27.3027C20.9944 27.079 21.014 26.9125 20.8302 26.8873Z" fill="white"></path>
    <path fill-rule="evenodd" clip-rule="evenodd" d="M27.5068 28.3871L36.8587 27.5077L32.7937 20.5498L35.0624 26.5682L27.5068 28.3871Z" fill="white"></path>
    <path fill-rule="evenodd" clip-rule="evenodd" d="M14.1539 28.3871L4.802 27.5077L8.86703 20.5498L6.59828 26.5682L14.1539 28.3871Z" fill="white"></path>
    <path fill-rule="evenodd" clip-rule="evenodd" d="M20.8301 6.27086L17.3552 7.96926L20.8301 4.73389L24.3055 7.96926L20.8301 6.27086Z" fill="white"></path>
    <path d="M22.1027 10.131L20.8303 8.09619L19.5579 10.131L20.8303 12.1658L22.1027 10.131Z" fill="white"></path>
  </symbol>
  <symbol fill="none" xmlns="http://www.w3.org/2000/svg" viewBox="0 0 30 30" id="lorry-desk">
    <circle cx="15" cy="15" r="15" fill="#49A069"></circle>
    <path d="M23.7216 14.4431C23.6588 14.4299 23.5995 14.4175 23.5468 14.4038C22.9492 14.2484 22.6764 14.1632 22.4747 13.7738L21.7108 12.2272C21.4653 11.7532 20.8313 11.3676 20.2976 11.3676H18.9375V9.58159C18.9375 9.26092 18.6766 9 18.3558 9L8.88301 9.00951C8.57089 9.00951 8.33553 9.25754 8.33553 9.58648V10.1144H5.90884C5.40772 10.1144 5 10.5221 5 11.0233C5 11.5244 5.40772 11.9321 5.90884 11.9321H8.33549V12.8032H6.74668C6.24556 12.8032 5.83784 13.2109 5.83784 13.712C5.83784 14.2131 6.24556 14.6209 6.74668 14.6209H8.33549V15.492H7.58452C7.0834 15.492 6.67568 15.8997 6.67568 16.4008C6.67568 16.9019 7.0834 17.3096 7.58452 17.3096H8.33549V18.2207C8.33549 18.5414 8.5964 18.8023 8.91708 18.8023H9.90246C10.0559 19.8541 10.9637 20.6645 12.0575 20.6645C13.1513 20.6645 14.0591 19.8541 14.2126 18.8023H18.2005C18.2212 18.8023 18.2425 18.8009 18.2636 18.7996C18.4159 19.8526 19.3243 20.6645 20.419 20.6645C21.5129 20.6645 22.4207 19.8541 22.5742 18.8023H23.9895C24.5467 18.8023 25 18.3491 25 17.792V16.0775C25 14.7113 24.2306 14.5499 23.7216 14.4431ZM20.419 17.6947C20.8557 17.6947 21.211 18.0499 21.211 18.4865C21.211 18.9231 20.8557 19.2783 20.419 19.2783C19.9824 19.2783 19.6273 18.9231 19.6273 18.4865C19.6273 18.0499 19.9824 17.6947 20.419 17.6947ZM18.9375 14.32V12.2111H19.9769C20.3763 12.2111 20.8691 12.5108 21.052 12.8638L21.7318 14.2401C21.7462 14.2679 21.7612 14.2945 21.7767 14.3199H18.9375V14.32ZM12.8495 18.4865C12.8495 18.9231 12.4942 19.2783 12.0575 19.2783C11.6209 19.2783 11.2658 18.9231 11.2658 18.4865C11.2658 18.0499 11.6209 17.6947 12.0575 17.6947C12.4942 17.6947 12.8495 18.0499 12.8495 18.4865Z" fill="white"></path>
  </symbol>
  <symbol fill="none" xmlns="http://www.w3.org/2000/svg" viewBox="0 0 15 20" id="map-adress-desk">
    <path d="M7.24325 0C3.2493 0 0 3.2493 0 7.24321C0 12.1998 6.482 19.4763 6.75798 19.7837C7.0172 20.0724 7.46978 20.0719 7.72853 19.7837C8.0045 19.4763 14.4865 12.1998 14.4865 7.24321C14.4864 3.2493 11.2372 0 7.24325 0ZM7.24325 10.8875C5.2338 10.8875 3.59903 9.25267 3.59903 7.24321C3.59903 5.23376 5.23383 3.59899 7.24325 3.59899C9.25267 3.59899 10.8874 5.2338 10.8874 7.24325C10.8874 9.25271 9.25267 10.8875 7.24325 10.8875Z" fill="#49A069"></path>
  </symbol>
  <symbol fill="none" xmlns="http://www.w3.org/2000/svg" viewBox="0 0 8 10" id="map-adress-mobal">
    <path d="M3.62163 0C1.62465 0 0 1.62465 0 3.62161C0 6.09989 3.241 9.73816 3.37899 9.89183C3.5086 10.0362 3.73489 10.0359 3.86426 9.89183C4.00225 9.73816 7.24325 6.09989 7.24325 3.62161C7.24321 1.62465 5.61858 0 3.62163 0ZM3.62163 5.44374C2.6169 5.44374 1.79951 4.62633 1.79951 3.62161C1.79951 2.61688 2.61692 1.79949 3.62163 1.79949C4.62633 1.79949 5.44372 2.6169 5.44372 3.62163C5.44372 4.62635 4.62633 5.44374 3.62163 5.44374Z" fill="#49A069"></path>
  </symbol>
  <symbol fill="none" xmlns="http://www.w3.org/2000/svg" viewBox="0 0 20 20" id="map-phone-desk">
    <path d="M19.4346 14.678L16.6436 11.8869C15.6468 10.8901 13.9522 11.2889 13.5535 12.5847C13.2544 13.4818 12.2576 13.9802 11.3605 13.7808C9.36689 13.2824 6.67552 10.6907 6.17711 8.59745C5.87807 7.70029 6.47615 6.70348 7.37328 6.40448C8.66913 6.00575 9.06785 4.31119 8.07104 3.31438L5.27999 0.523323C4.48254 -0.174441 3.28638 -0.174441 2.58861 0.523323L0.694681 2.41725C-1.19925 4.41087 0.894042 9.69394 5.57903 14.3789C10.264 19.0639 15.5471 21.2569 17.5407 19.2633L19.4346 17.3693C20.1324 16.5719 20.1324 15.3757 19.4346 14.678Z" fill="#49A069"></path>
  </symbol>
  <symbol fill="none" xmlns="http://www.w3.org/2000/svg" viewBox="0 0 10 10" id="map-phone-modal">
    <path d="M9.71732 7.33898L8.32179 5.94345C7.82338 5.44505 6.9761 5.64443 6.77674 6.29234C6.62722 6.74092 6.12881 6.99012 5.68025 6.89042C4.68345 6.64122 3.33776 5.34537 3.08856 4.29873C2.93904 3.85014 3.23808 3.35174 3.68664 3.20224C4.33456 3.00288 4.53393 2.15559 4.03552 1.65719L2.63999 0.261662C2.24127 -0.0872205 1.64319 -0.0872205 1.29431 0.261662L0.347341 1.20863C-0.599625 2.20543 0.447021 4.84697 2.78952 7.18946C5.13201 9.53196 7.77354 10.6285 8.77035 9.63164L9.71732 8.68467C10.0662 8.28595 10.0662 7.68787 9.71732 7.33898Z" fill="#49A069"></path>
  </symbol>
  <symbol fill="none" xmlns="http://www.w3.org/2000/svg" viewBox="0 0 30 30" id="menu-mobal">
    <rect x="0.5" y="0.5" width="29" height="29" rx="9.5" fill="white" stroke="#49A069"></rect>
    <path d="M22.375 14.037H7.625C7.27981 14.037 7 14.3189 7 14.6667C7 15.0144 7.27981 15.2963 7.625 15.2963H22.375C22.7202 15.2963 23 15.0144 23 14.6667C23 14.3189 22.7202 14.037 22.375 14.037Z" fill="#49A069"></path>
    <path d="M22.375 9H7.625C7.27981 9 7 9.28189 7 9.62963C7 9.97737 7.27981 10.2593 7.625 10.2593H22.375C22.7202 10.2593 23 9.97737 23 9.62963C23 9.28189 22.7202 9 22.375 9Z" fill="#49A069"></path>
    <path d="M22.375 19.0741H7.625C7.27981 19.0741 7 19.356 7 19.7037C7 20.0514 7.27981 20.3333 7.625 20.3333H22.375C22.7202 20.3333 23 20.0514 23 19.7037C23 19.356 22.7202 19.0741 22.375 19.0741Z" fill="#49A069"></path>
  </symbol>
  <symbol fill="none" xmlns="http://www.w3.org/2000/svg" viewBox="0 0 30 30" id="menu-mobal-close">
    <rect width="30" height="30" rx="10" transform="matrix(1 0 0 -1 0 30)" fill="white"></rect>
    <path d="M15.8839 15L22.817 21.933C23.0611 22.1771 23.0611 22.5729 22.817 22.8169C22.5729 23.061 22.1771 23.061 21.9331 22.8169L15 15.8839L8.06698 22.8169C7.82288 23.061 7.42713 23.061 7.18307 22.8169C6.93901 22.5728 6.93898 22.1771 7.18307 21.933L14.1161 15L7.18307 8.06694C6.93898 7.82284 6.93898 7.42709 7.18307 7.18303C7.3051 7.061 7.46507 7 7.62504 7C7.78501 7 7.94494 7.061 8.06701 7.18303L15 14.1161L21.933 7.18303C22.0551 7.061 22.215 7 22.375 7C22.535 7 22.6949 7.061 22.817 7.18303C23.0611 7.42712 23.0611 7.82288 22.817 8.06694L15.8839 15Z" fill="#49A069"></path>
  </symbol>
  <symbol fill="none" xmlns="http://www.w3.org/2000/svg" viewBox="0 0 16 16" id="paginat-desk">
    <circle opacity="0.5" cx="8" cy="8" r="8" fill="white"></circle>
  </symbol>
  <symbol fill="none" xmlns="http://www.w3.org/2000/svg" viewBox="0 0 16 16" id="paginat-desk-full">
    <circle cx="8" cy="8" r="8" fill="white"></circle>
  </symbol>
  <symbol fill="none" xmlns="http://www.w3.org/2000/svg" viewBox="0 0 8 8" id="paginat-mobal">
    <circle opacity="0.5" cx="4" cy="4" r="4" fill="white"></circle>
  </symbol>
  <symbol fill="none" xmlns="http://www.w3.org/2000/svg" viewBox="0 0 8 8" id="paginat-mobal-full">
    <circle cx="4" cy="4" r="4" fill="white"></circle>
  </symbol>
  <symbol fill="none" xmlns="http://www.w3.org/2000/svg" viewBox="0 0 14 16" id="person-desk">
    <path d="M6.57344 7.70722C7.63227 7.70722 8.54913 7.32746 9.29827 6.5782C10.0474 5.82906 10.4272 4.91244 10.4272 3.85349C10.4272 2.7949 10.0474 1.87816 9.29815 1.12878C8.54889 0.379758 7.63214 0 6.57344 0C5.51448 0 4.59787 0.379758 3.84873 1.1289C3.09959 1.87804 2.71971 2.79478 2.71971 3.85349C2.71971 4.91244 3.09959 5.82918 3.84885 6.57832C4.59811 7.32734 5.51485 7.70722 6.57344 7.70722Z" fill="#49A069"></path>
    <path d="M13.3164 12.3031C13.2948 11.9914 13.2511 11.6513 13.1868 11.2922C13.1218 10.9303 13.0382 10.5883 12.9381 10.2757C12.8347 9.95256 12.6941 9.63347 12.5203 9.32769C12.3399 9.01031 12.128 8.73394 11.8902 8.50653C11.6415 8.26861 11.3371 8.07733 10.985 7.93781C10.6342 7.79901 10.2454 7.7287 9.82951 7.7287C9.66619 7.7287 9.50823 7.79572 9.20318 7.99432C9.01543 8.11676 8.79583 8.25836 8.55072 8.41498C8.34112 8.54852 8.05719 8.67364 7.70648 8.78692C7.36432 8.89764 7.01691 8.95379 6.67402 8.95379C6.33113 8.95379 5.98384 8.89764 5.64131 8.78692C5.29098 8.67376 5.00704 8.54864 4.79769 8.4151C4.5549 8.25995 4.33517 8.11835 4.14462 7.9942C3.83994 7.79559 3.68186 7.72858 3.51853 7.72858C3.10252 7.72858 2.71385 7.79901 2.36314 7.93793C2.01134 8.07721 1.70677 8.26849 1.45787 8.50665C1.22021 8.73419 1.00817 9.01043 0.827997 9.32769C0.654292 9.63347 0.513668 9.95244 0.410153 10.2758C0.310178 10.5884 0.226561 10.9303 0.16162 11.2922C0.0972893 11.6508 0.0535885 11.991 0.0319822 12.3035C0.0107421 12.6096 0 12.9274 0 13.2483C0 14.0835 0.265501 14.7597 0.789056 15.2583C1.30614 15.7504 1.99034 16 2.82237 16H10.5264C11.3584 16 12.0424 15.7505 12.5596 15.2583C13.0833 14.76 13.3488 14.0838 13.3488 13.2482C13.3487 12.9258 13.3378 12.6078 13.3164 12.3031Z" fill="#49A069"></path>
  </symbol>
  <symbol fill="none" xmlns="http://www.w3.org/2000/svg" viewBox="0 0 9 10" id="person-modal">
    <path d="M4.1084 4.81701C4.77017 4.81701 5.34321 4.57966 5.81142 4.11137C6.27963 3.64316 6.51698 3.07027 6.51698 2.40843C6.51698 1.74681 6.27963 1.17385 5.81134 0.705485C5.34305 0.237349 4.77009 0 4.1084 0C3.44655 0 2.87367 0.237349 2.40545 0.705561C1.93724 1.17377 1.69982 1.74674 1.69982 2.40843C1.69982 3.07027 1.93724 3.64324 2.40553 4.11145C2.87382 4.57959 3.44678 4.81701 4.1084 4.81701Z" fill="#49A069"></path>
    <path d="M8.32277 7.68946C8.30926 7.4946 8.28195 7.28205 8.24174 7.05759C8.20115 6.83146 8.14889 6.61769 8.08633 6.4223C8.02171 6.22035 7.93382 6.02092 7.82518 5.8298C7.71242 5.63144 7.57997 5.45871 7.43135 5.31658C7.27595 5.16788 7.08567 5.04833 6.86564 4.96113C6.64637 4.87438 6.40338 4.83044 6.14345 4.83044C6.04137 4.83044 5.94264 4.87232 5.75199 4.99645C5.63465 5.07297 5.49739 5.16147 5.3442 5.25936C5.2132 5.34282 5.03574 5.42102 4.81655 5.49183C4.6027 5.56102 4.38557 5.59612 4.17126 5.59612C3.95696 5.59612 3.7399 5.56102 3.52582 5.49183C3.30686 5.4211 3.1294 5.3429 2.99856 5.25944C2.84681 5.16247 2.70948 5.07397 2.59039 4.99638C2.39996 4.87225 2.30116 4.83036 2.19908 4.83036C1.93907 4.83036 1.69615 4.87438 1.47696 4.96121C1.25709 5.04826 1.06673 5.16781 0.911172 5.31666C0.762628 5.45887 0.630107 5.63152 0.517498 5.8298C0.408932 6.02092 0.321042 6.22027 0.256346 6.42238C0.193861 6.61776 0.1416 6.83146 0.101012 7.05759C0.0608058 7.28174 0.0334928 7.49437 0.0199889 7.68968C0.00671382 7.88103 0 8.07962 0 8.2802C0 8.80219 0.165938 9.22478 0.49316 9.53644C0.816339 9.84398 1.24396 10 1.76398 10H6.57901C7.09902 10 7.52649 9.84406 7.84975 9.53644C8.17705 9.22501 8.34298 8.80235 8.34298 8.28012C8.34291 8.07863 8.33612 7.87988 8.32277 7.68946Z" fill="#49A069"></path>
  </symbol>
  <symbol fill="none" xmlns="http://www.w3.org/2000/svg" viewBox="0 0 12 12" id="phone-cont-desk">
    <path d="M11.6608 8.80678L9.98615 7.13215C9.38806 6.53406 8.37132 6.77332 8.13209 7.55081C7.95266 8.0891 7.35458 8.38815 6.8163 8.26851C5.62013 7.96946 4.00531 6.41445 3.70627 5.15847C3.52684 4.62017 3.88569 4.02209 4.42397 3.84269C5.20148 3.60345 5.44071 2.58671 4.84263 1.98863L3.16799 0.313994C2.68953 -0.104665 1.97183 -0.104665 1.55317 0.313994L0.416809 1.45035C-0.71955 2.64652 0.536425 5.81636 3.34742 8.62735C6.15841 11.4383 9.32825 12.7542 10.5244 11.558L11.6608 10.4216C12.0795 9.94314 12.0795 9.22544 11.6608 8.80678Z" fill="white"></path>
  </symbol>
  <symbol fill="none" xmlns="http://www.w3.org/2000/svg" viewBox="0 0 10 10" id="phone-cont-mobal">
    <path d="M9.71732 7.33898L8.32179 5.94345C7.82338 5.44505 6.9761 5.64443 6.77674 6.29234C6.62722 6.74092 6.12881 6.99012 5.68025 6.89042C4.68345 6.64122 3.33776 5.34537 3.08856 4.29873C2.93904 3.85014 3.23808 3.35174 3.68664 3.20224C4.33456 3.00288 4.53393 2.15559 4.03552 1.65719L2.63999 0.261662C2.24127 -0.0872205 1.64319 -0.0872205 1.29431 0.261662L0.347341 1.20863C-0.599625 2.20543 0.447021 4.84697 2.78952 7.18946C5.13201 9.53196 7.77354 10.6285 8.77035 9.63164L9.71732 8.68467C10.0662 8.28595 10.0662 7.68787 9.71732 7.33898Z" fill="white"></path>
  </symbol>
  <symbol fill="none" xmlns="http://www.w3.org/2000/svg" viewBox="0 0 16 16" id="phone-inp-desk">
    <path d="M15.5477 11.7424L13.3149 9.50953C12.5174 8.71208 11.1618 9.03109 10.8428 10.0677C10.6035 10.7855 9.8061 11.1842 9.0884 11.0247C7.49351 10.626 5.34041 8.5526 4.94169 6.87796C4.70246 6.16023 5.18092 5.36278 5.89862 5.12358C6.9353 4.8046 7.25428 3.44895 6.45684 2.6515L4.22399 0.418658C3.58603 -0.139553 2.6291 -0.139553 2.07089 0.418658L0.555745 1.9338C-0.9594 3.52869 0.715234 7.75515 4.46322 11.5031C8.21121 15.2511 12.4377 17.0055 14.0326 15.4106L15.5477 13.8955C16.1059 13.2575 16.1059 12.3006 15.5477 11.7424Z" fill="#49A069"></path>
  </symbol>
  <symbol fill="none" xmlns="http://www.w3.org/2000/svg" viewBox="0 0 10 10" id="phone-inp-mobal">
    <path d="M9.71732 7.33898L8.32179 5.94345C7.82338 5.44505 6.9761 5.64443 6.77674 6.29234C6.62722 6.74092 6.12881 6.99012 5.68025 6.89042C4.68345 6.64122 3.33776 5.34537 3.08856 4.29873C2.93904 3.85014 3.23808 3.35174 3.68664 3.20224C4.33456 3.00288 4.53393 2.15559 4.03552 1.65719L2.63999 0.261662C2.24127 -0.0872205 1.64319 -0.0872205 1.29431 0.261662L0.347341 1.20863C-0.599625 2.20543 0.447021 4.84697 2.78952 7.18946C5.13201 9.53196 7.77354 10.6285 8.77035 9.63164L9.71732 8.68467C10.0662 8.28595 10.0662 7.68787 9.71732 7.33898Z" fill="#49A069"></path>
  </symbol>
  <symbol fill="none" xmlns="http://www.w3.org/2000/svg" viewBox="0 0 36 30" id="quotes-desk">
    <path d="M0 15V30H15.1128V15H5.03763C5.03763 9.48612 9.55746 5.00003 15.1128 5.00003V0C6.7791 0 0 6.7285 0 15Z" fill="white"></path>
    <path d="M35.2632 5.00003V0C26.9295 0 20.1504 6.7285 20.1504 15V30H35.2632V15H25.188C25.188 9.48612 29.7078 5.00003 35.2632 5.00003Z" fill="white"></path>
  </symbol>
  <symbol fill="none" xmlns="http://www.w3.org/2000/svg" viewBox="0 0 19 16" id="quotes-mobal">
    <path d="M0 8V16H8.06016V8H2.68674C2.68674 5.05927 5.09731 2.66668 8.06016 2.66668V0C3.61552 0 0 3.58853 0 8Z" fill="white"></path>
    <path d="M18.807 2.66668V0C14.3624 0 10.7469 3.58853 10.7469 8V16H18.807V8H13.4336C13.4336 5.05927 15.8442 2.66668 18.807 2.66668Z" fill="white"></path>
  </symbol>
  <symbol fill="none" xmlns="http://www.w3.org/2000/svg" viewBox="0 0 25 20" id="ticking-desk">
    <path d="M10.3556 19.7937C10.1344 20.0508 9.75184 20.0704 9.50547 19.8373L0.19204 11.0225C-0.0543311 10.7893 -0.0650429 10.397 0.167974 10.1506L3.13528 7.01512C3.36844 6.76875 3.76074 6.75804 4.00711 6.99106L9.09466 11.8059C9.34103 12.0391 9.7236 12.0195 9.94479 11.7624L19.8841 0.213826C20.1053 -0.0432576 20.4967 -0.0726105 20.7537 0.14872L24.0254 2.96467C24.2825 3.18586 24.3118 3.57733 24.0905 3.83442L10.3556 19.7937Z" fill="white"></path>
  </symbol>
  <symbol fill="none" xmlns="http://www.w3.org/2000/svg" viewBox="0 0 13 10" id="ticking-mobal">
    <path d="M5.1778 9.89681C5.0672 10.0254 4.87592 10.0352 4.75273 9.91858L0.0960202 5.51117C-0.0271656 5.39459 -0.0325214 5.19844 0.0839868 5.07525L1.56764 3.5075C1.68422 3.38432 1.88037 3.37896 2.00356 3.49547L4.54733 5.90291C4.67052 6.01949 4.8618 6.00968 4.97239 5.88114L9.94204 0.106852C10.0526 -0.0216898 10.2484 -0.0363663 10.3768 0.0742992L12.0127 1.48228C12.1412 1.59287 12.1559 1.7886 12.0452 1.91715L5.1778 9.89681Z" fill="white"></path>
  </symbol>
  <symbol fill="none" xmlns="http://www.w3.org/2000/svg" viewBox="0 0 1 30" id="vertikal">
    <rect width="1" height="30" fill="#DADBDC"></rect>
  </symbol>
</svg>

<svg class="icon">
  <use xlink:href="#adress-desk"></use>
</svg><svg class="icon">
  <use xlink:href="#adress-mobal"></use>
</svg><svg class="icon">
  <use xlink:href="#arr-left"></use>
</svg><svg class="icon">
  <use xlink:href="#arr-left-mobal"></use>
</svg><svg class="icon">
  <use xlink:href="#arr-rigth"></use>
</svg><svg class="icon">
  <use xlink:href="#arr-rigth-mobal"></use>
</svg><svg class="icon">
  <use xlink:href="#buttel-desk"></use>
</svg><svg class="icon">
  <use xlink:href="#calendar-desk"></use>
</svg><svg class="icon">
  <use xlink:href="#close_x"></use>
</svg><svg class="icon">
  <use xlink:href="#favicon"></use>
</svg><svg class="icon">
  <use xlink:href="#footer-fasebook"></use>
</svg><svg class="icon">
  <use xlink:href="#footer-insta"></use>
</svg><svg class="icon">
  <use xlink:href="#footer-tiktok"></use>
</svg><svg class="icon">
  <use xlink:href="#footer-youtube"></use>
</svg><svg class="icon">
  <use xlink:href="#header-fasebook"></use>
</svg><svg class="icon">
  <use xlink:href="#header-insta"></use>
</svg><svg class="icon">
  <use xlink:href="#header-tiktok"></use>
</svg><svg class="icon">
  <use xlink:href="#header-youtube"></use>
</svg><svg class="icon">
  <use xlink:href="#kard-desk"></use>
</svg><svg class="icon">
  <use xlink:href="#kard-mobal"></use>
</svg><svg class="icon">
  <use xlink:href="#logo"></use>
</svg><svg class="icon">
  <use xlink:href="#logo-mobal"></use>
</svg><svg class="icon">
  <use xlink:href="#logo-wt"></use>
</svg><svg class="icon">
  <use xlink:href="#logo-wt-mobal"></use>
</svg><svg class="icon">
  <use xlink:href="#lorry-desk"></use>
</svg><svg class="icon">
  <use xlink:href="#map-adress-desk"></use>
</svg><svg class="icon">
  <use xlink:href="#map-adress-mobal"></use>
</svg><svg class="icon">
  <use xlink:href="#map-phone-desk"></use>
</svg><svg class="icon">
  <use xlink:href="#map-phone-modal"></use>
</svg><svg class="icon">
  <use xlink:href="#menu-mobal"></use>
</svg><svg class="icon">
  <use xlink:href="#menu-mobal-close"></use>
</svg><svg class="icon">
  <use xlink:href="#paginat-desk"></use>
</svg><svg class="icon">
  <use xlink:href="#paginat-desk-full"></use>
</svg><svg class="icon">
  <use xlink:href="#paginat-mobal"></use>
</svg><svg class="icon">
  <use xlink:href="#paginat-mobal-full"></use>
</svg><svg class="icon">
  <use xlink:href="#person-desk"></use>
</svg><svg class="icon">
  <use xlink:href="#person-modal"></use>
</svg><svg class="icon">
  <use xlink:href="#phone-cont-desk"></use>
</svg><svg class="icon">
  <use xlink:href="#phone-cont-mobal"></use>
</svg><svg class="icon">
  <use xlink:href="#phone-inp-desk"></use>
</svg><svg class="icon">
  <use xlink:href="#phone-inp-mobal"></use>
</svg><svg class="icon">
  <use xlink:href="#quotes-desk"></use>
</svg><svg class="icon">
  <use xlink:href="#quotes-mobal"></use>
</svg><svg class="icon">
  <use xlink:href="#ticking-desk"></use>
</svg><svg class="icon">
  <use xlink:href="#ticking-mobal"></use>
</svg><svg class="icon">
  <use xlink:href="#vertikal"></use>
</svg>