<svg width="113" height="30" viewBox="0 0 113 30" fill="none" xmlns="http://www.w3.org/2000/svg">
<path d="M86.2572 20.9655H84.0005V16.2417L79.7849 9.03415H82.479L85.1029 13.9153H85.1205L87.8321 9.03415H90.4552L86.2572 16.2417V20.9655Z" fill="#2B3966"/>
<path d="M78.7302 17.7291C78.7302 18.7549 78.371 19.6036 77.6542 20.2742C76.9373 20.9448 75.9547 21.2801 74.707 21.2801C73.2845 21.2801 72.1119 20.9241 71.1907 20.2127V17.7985H71.2434C71.6513 18.2767 72.1526 18.644 72.7481 18.901C73.342 19.1573 73.9375 19.2858 74.5322 19.2858C75.8262 19.2858 76.4735 18.8252 76.4735 17.9039C76.4735 17.472 76.2931 17.1103 75.9315 16.8189C75.5699 16.5275 75.1357 16.2769 74.628 16.0669C74.1211 15.8569 73.611 15.6206 73.0977 15.3587C72.5844 15.0961 72.147 14.7025 71.7854 14.1772C71.4238 13.6527 71.2434 13.0108 71.2434 12.2532C71.2434 11.2616 71.5611 10.4249 72.1965 9.74233C72.8319 9.06053 73.7858 8.71884 75.0566 8.71884C76.3626 8.71884 77.4474 9.07491 78.3103 9.78624V12.2005H78.2576C77.453 11.2089 76.4504 10.7139 75.249 10.7139C74.6894 10.7139 74.2608 10.8297 73.963 11.0636C73.6661 11.2967 73.5176 11.6177 73.5176 12.0256C73.5176 12.3873 73.6453 12.705 73.9024 12.9789C74.1586 13.2535 74.4795 13.469 74.8643 13.6263C75.249 13.7836 75.6689 13.976 76.1239 14.2035C76.5789 14.4311 76.998 14.6706 77.3836 14.9212C77.7683 15.1719 78.0884 15.5392 78.3455 16.023C78.6017 16.5068 78.7302 17.076 78.7302 17.7291Z" fill="#2B3966"/>
<path d="M69.4522 20.9655H66.7229L62.6821 14.9643V14.8773L66.5481 9.03415H69.2246L65.2884 14.8597V14.8949L69.4522 20.9655Z" fill="#2B3966"/>
<path d="M62.4546 20.9655H60.1987V9.03415H62.4546V20.9655Z" fill="#2B3966"/>
<path d="M56.4886 10.4074C57.5846 11.533 58.1322 13.0635 58.1322 14.9995C58.1322 16.9355 57.5846 18.4667 56.4886 19.5924C55.3918 20.7173 53.9924 21.2801 52.2898 21.2801C50.6342 21.2801 49.2548 20.7173 48.1532 19.5924C47.0508 18.4667 46.5 16.9355 46.5 14.9995C46.5 13.0635 47.0508 11.533 48.1532 10.4074C49.2548 9.28168 50.6573 8.71884 52.36 8.71884C54.0156 8.71884 55.3918 9.28168 56.4886 10.4074ZM55.7885 14.9995C55.7885 13.6934 55.4676 12.6699 54.8266 11.929C54.1848 11.1889 53.3626 10.8185 52.36 10.8185C51.3454 10.8185 50.5089 11.1826 49.8495 11.9123C49.1909 12.6412 48.8612 13.6702 48.8612 14.9995C48.8612 16.3056 49.1821 17.3323 49.8239 18.0787C50.4649 18.8252 51.2872 19.198 52.2898 19.198C53.3043 19.198 54.1417 18.8308 54.8003 18.0963C55.4588 17.3618 55.7885 16.3295 55.7885 14.9995Z" fill="#2B3966"/>
<path d="M102.414 21.2801C100.758 21.2801 99.4054 20.7229 98.3557 19.6092C97.3059 18.4955 96.7815 16.9586 96.7815 14.9995C96.7815 13.0866 97.3203 11.5618 98.3996 10.4249C99.478 9.28807 100.892 8.71884 102.642 8.71884C104.169 8.71884 105.527 9.1276 106.717 9.94351V12.4974H106.647C105.633 11.3901 104.396 10.8361 102.938 10.8361C101.761 10.8361 100.833 11.2089 100.157 11.9554C99.4812 12.7018 99.1427 13.7397 99.1427 15.0697C99.1427 16.4341 99.4485 17.4752 100.061 18.1921C100.673 18.9098 101.451 19.2683 102.396 19.2683C103.236 19.2683 103.918 19.0408 104.443 18.5857C104.968 18.1314 105.253 17.4257 105.3 16.4693H101.836V16.3814L102.642 14.352H107.627C107.65 14.6554 107.662 15.0226 107.662 15.4545C107.662 17.4017 107.178 18.8603 106.21 19.8279C105.241 20.7963 103.976 21.2801 102.414 21.2801Z" fill="#49A069"/>
<path fill-rule="evenodd" clip-rule="evenodd" d="M94.1912 16.3431L93.5646 14.0678C93.559 14.0478 93.5526 14.0279 93.547 14.0079C93.2157 12.7705 93.1822 11.4883 93.4408 10.2525C92.9962 10.8983 92.6649 11.6169 92.459 12.3833C91.984 14.1572 92.2315 16.0333 93.1495 17.6229C93.8471 18.8324 94.8809 19.7872 96.1158 20.3844C95.1172 19.2499 94.4442 17.8488 94.1912 16.3431ZM103.832 22.9798C102.352 23.2776 100.804 23.161 99.3743 22.6285L97.0857 22.0322C97.0657 22.0266 97.0458 22.0218 97.0258 22.0162C95.7909 21.6857 94.6638 21.0757 93.7234 20.2359C94.0595 20.9424 94.5153 21.5867 95.0749 22.1471C97.4569 24.5286 101.146 24.8064 103.832 22.9798ZM107.406 21.2785L105.743 22.9638C105.728 22.979 105.714 22.9934 105.7 23.0086C104.794 23.9139 103.701 24.5837 102.501 24.9781C103.283 25.0404 104.071 24.9677 104.837 24.7625C106.612 24.2875 108.11 23.1371 109.028 21.546C109.726 20.3381 110.037 18.9641 109.937 17.5957C109.454 19.0256 108.58 20.3069 107.406 21.2785ZM110.251 13.6558L110.879 15.932C110.884 15.9519 110.89 15.9719 110.896 15.9918C111.227 17.2285 111.26 18.5106 111.002 19.7465C111.446 19.1014 111.778 18.3821 111.984 17.6157C112.459 15.8425 112.211 13.9656 111.294 12.3761C110.595 11.1666 109.562 10.2126 108.327 9.61459C109.325 10.7498 109.998 12.1502 110.251 13.6558ZM100.611 7.01914C102.091 6.72136 103.639 6.83871 105.068 7.37041L107.357 7.96758C107.377 7.97237 107.398 7.97717 107.418 7.98276C108.652 8.31407 109.779 8.92321 110.719 9.76308C110.383 9.05734 109.927 8.41227 109.368 7.85262C106.986 5.47034 103.297 5.19251 100.611 7.01914ZM97.037 8.72123L98.6998 7.03511C98.7141 7.02074 98.7285 7.00557 98.7429 6.9912C99.6489 6.08587 100.742 5.41525 101.941 5.02166C101.16 4.95939 100.371 5.03124 99.6058 5.23642C97.8312 5.71224 96.3329 6.86187 95.4141 8.45298C94.7165 9.66089 94.4059 11.0349 94.5057 12.4032C94.9887 10.9734 95.8627 9.69203 97.037 8.72123Z" fill="#49A069"/>
<path fill-rule="evenodd" clip-rule="evenodd" d="M20.83 0L26.9514 8.81598L20.83 3.11709L14.7092 8.81598L20.83 0Z" fill="#49A069"/>
<path fill-rule="evenodd" clip-rule="evenodd" d="M18.6673 30H0L12.4557 12.0609L2.8449 28.5118L18.6673 30Z" fill="#49A069"/>
<path fill-rule="evenodd" clip-rule="evenodd" d="M22.9937 30H41.6609L29.2052 12.0609L38.816 28.5118L22.9937 30Z" fill="#49A069"/>
<path fill-rule="evenodd" clip-rule="evenodd" d="M20.8301 26.8873C20.6468 26.9126 20.6659 27.079 20.5656 27.3027C20.4882 27.4742 20.3386 27.6569 20.2926 27.9142C20.2052 28.4103 20.2669 29.0941 20.06 29.431C19.5198 29.431 18.9795 29.431 18.4392 29.431C18.4442 29.0672 18.5944 28.7931 18.5984 28.4299C18.6096 27.3963 18.4398 26.8941 18.4829 26.1861C18.5468 25.1413 18.8147 24.0982 18.9699 23.0668C19.0198 22.7333 19.1633 22.5494 19.1969 22.1946C19.2423 21.7221 19.0647 21.0192 18.8052 20.3858C18.6185 19.929 18.3815 19.5086 18.1926 19.2361C18.0441 19.3511 17.7285 19.4609 17.2667 19.4458C16.8144 19.4306 16.2198 19.2911 15.6414 19.2434C15.137 19.2025 14.6931 19.3247 14.2088 19.2782C13.3267 19.1935 12.4888 18.9329 12.166 18.8236C11.8885 18.9419 11.5433 18.9346 11.1582 18.855C10.9021 18.8662 10.6465 18.8774 10.3904 18.8886C10.2705 18.8847 10.2822 18.7569 10.3725 18.73C10.5905 18.7059 10.8085 18.6818 11.026 18.6582C10.7149 18.6521 10.4039 18.6465 10.0928 18.6403C9.95606 18.6397 9.94597 18.4413 10.0771 18.4251C10.3439 18.4105 10.6112 18.3954 10.8786 18.3802C10.8791 18.3662 10.8797 18.3522 10.8808 18.3382C10.5787 18.2889 10.2761 18.2395 9.974 18.1902C9.84453 18.1667 9.88152 18.0131 9.97848 18.0153C10.2957 18.0344 10.6129 18.0529 10.9301 18.0714C10.9352 18.0489 10.9402 18.0265 10.9458 18.0041C10.7295 17.883 10.4874 17.799 10.229 17.7379C10.0726 17.6992 10.1371 17.5389 10.2649 17.5428C10.5799 17.5843 10.8842 17.6706 11.1807 17.7894C11.4659 17.8483 11.6627 17.8354 11.6195 17.6257C11.4514 17.4307 11.3628 17.2339 11.4693 17.0327C11.5102 16.9996 11.5444 17.0024 11.5702 17.0417C11.6901 17.3696 11.8908 17.4643 12.0544 17.6515C12.1828 17.7984 12.273 17.9778 12.4008 18.1252C12.5611 18.1846 12.9114 18.3135 13.3205 18.2973C13.6904 18.2827 14.1046 18.1263 14.5586 18.1145C14.943 18.1044 15.3219 18.2278 15.6845 18.2294C15.9025 18.23 16.097 18.1168 16.3375 18.0893C16.4893 18.0719 16.6463 18.0887 16.8066 18.0708C17.3228 18.0136 17.6865 17.6151 18.1786 17.5007C18.5956 17.4032 18.9117 17.5803 19.2379 17.5433C19.4732 17.5164 19.6083 17.3589 19.7557 17.2524C19.9104 17.1409 20.0729 17.0759 20.1245 16.8769C20.194 16.6078 20.1396 16.2071 20.152 15.9486C19.9351 16.0585 19.7428 15.1645 19.9351 15.1493C19.9345 14.9464 19.8622 14.7452 19.8891 14.577C19.9261 14.3495 20.0421 14.1869 20.1626 14.0401C20.3392 13.8237 20.546 13.6505 20.8301 13.6426C21.1148 13.6505 21.3216 13.8237 21.4982 14.0401C21.6187 14.1869 21.7347 14.3495 21.7717 14.577C21.7986 14.7452 21.7263 14.9464 21.7257 15.1493C21.918 15.1645 21.7257 16.0585 21.5088 15.9486C21.5212 16.2071 21.4668 16.6078 21.5363 16.8769C21.5879 17.0759 21.7504 17.1409 21.9051 17.2524C22.0525 17.3589 22.1876 17.5164 22.4229 17.5433C22.7491 17.5803 23.0652 17.4032 23.4822 17.5007C23.9737 17.6151 24.338 18.0136 24.8542 18.0708C25.0145 18.0887 25.1714 18.0719 25.3228 18.0893C25.5638 18.1168 25.7582 18.23 25.9757 18.2294C26.3389 18.2278 26.7178 18.1044 27.1022 18.1145C27.5562 18.1263 27.9698 18.2827 28.3403 18.2973C28.7494 18.3135 29.0997 18.1846 29.26 18.1252C29.3878 17.9778 29.478 17.7984 29.6064 17.6515C29.77 17.4643 29.9707 17.3696 30.0906 17.0417C30.1164 17.0024 30.15 16.9996 30.1909 17.0327C30.298 17.2339 30.2094 17.4307 30.0413 17.6257C29.9976 17.8354 30.1949 17.8483 30.4801 17.7894C30.7766 17.6706 31.0809 17.5843 31.3959 17.5428C31.5237 17.5389 31.5882 17.6992 31.4318 17.7379C31.1734 17.799 30.9313 17.883 30.715 18.0041C30.7206 18.0265 30.7256 18.0489 30.7307 18.0714C31.0479 18.0529 31.3651 18.0344 31.6823 18.0153C31.7793 18.0131 31.8163 18.1667 31.6868 18.1902C31.3847 18.2395 31.0821 18.2889 30.78 18.3382C30.7805 18.3522 30.7817 18.3662 30.7822 18.3802C31.0496 18.3954 31.3169 18.4105 31.5837 18.4251C31.7148 18.4413 31.7047 18.6397 31.568 18.6403C31.2569 18.6465 30.9459 18.6521 30.6343 18.6582C30.8523 18.6818 31.0703 18.7059 31.2883 18.73C31.3785 18.7569 31.3903 18.8847 31.2704 18.8886C31.0142 18.8774 30.7587 18.8662 30.5025 18.855C30.1175 18.9346 29.7723 18.9419 29.4948 18.8236C29.172 18.9329 28.3341 19.1935 27.452 19.2782C26.9677 19.3247 26.5233 19.2025 26.0194 19.2434C25.441 19.2911 24.8464 19.4306 24.3941 19.4458C23.9323 19.4609 23.6167 19.3511 23.4676 19.2361C23.2793 19.5086 23.0423 19.929 22.8556 20.3858C22.5961 21.0192 22.4185 21.7221 22.4639 22.1946C22.4975 22.5494 22.641 22.7333 22.6908 23.0668C22.8461 24.0982 23.114 25.1413 23.1779 26.1861C23.221 26.8941 23.0512 27.3963 23.0624 28.4299C23.0664 28.7931 23.2166 29.0672 23.2216 29.431C22.6813 29.431 22.141 29.431 21.6008 29.431C21.3939 29.0941 21.4556 28.4103 21.3682 27.9142C21.3222 27.6569 21.1726 27.4742 21.0952 27.3027C20.9943 27.079 21.0139 26.9126 20.8301 26.8873Z" fill="#2B3966"/>
<path fill-rule="evenodd" clip-rule="evenodd" d="M27.5068 28.3868L36.8587 27.5073L32.7937 20.5495L35.0624 26.5679L27.5068 28.3868Z" fill="#2B3966"/>
<path fill-rule="evenodd" clip-rule="evenodd" d="M14.154 28.3868L4.80212 27.5073L8.86714 20.5495L6.5984 26.5679L14.154 28.3868Z" fill="#2B3966"/>
<path fill-rule="evenodd" clip-rule="evenodd" d="M20.8298 6.27061L17.355 7.96901L20.8298 4.73364L24.3053 7.96901L20.8298 6.27061Z" fill="#2B3966"/>
<path d="M22.103 10.1309L20.8306 8.0961L19.5582 10.1309L20.8306 12.1657L22.103 10.1309Z" fill="#49A069"/>
</svg>
