<svg width="113" height="30" viewBox="0 0 113 30" fill="none" xmlns="http://www.w3.org/2000/svg">
<path d="M86.2572 20.9656H84.0005V16.2417L79.7849 9.03418H82.479L85.1029 13.9153H85.1205L87.8322 9.03418H90.4553L86.2572 16.2417V20.9656Z" fill="white"/>
<path d="M78.7305 17.729C78.7305 18.7549 78.3713 19.6035 77.6544 20.2741C76.9376 20.9448 75.9549 21.2801 74.7073 21.2801C73.2848 21.2801 72.1121 20.924 71.1909 20.2127V17.7984H71.2436C71.6515 18.2767 72.1528 18.6439 72.7483 18.901C73.3422 19.1572 73.9377 19.2858 74.5324 19.2858C75.8264 19.2858 76.4738 18.8251 76.4738 17.9038C76.4738 17.4719 76.2934 17.1103 75.9318 16.8189C75.5702 16.5275 75.1359 16.2768 74.6282 16.0668C74.1213 15.8568 73.6112 15.6205 73.098 15.3587C72.5847 15.096 72.1472 14.7024 71.7856 14.1771C71.424 13.6526 71.2436 13.0107 71.2436 12.2531C71.2436 11.2615 71.5613 10.4248 72.1967 9.74224C72.8321 9.06044 73.7861 8.71875 75.0569 8.71875C76.3628 8.71875 77.4477 9.07481 78.3106 9.78615V12.2004H78.2579C77.4533 11.2088 76.4507 10.7138 75.2493 10.7138C74.6897 10.7138 74.261 10.8296 73.9633 11.0635C73.6663 11.2966 73.5178 11.6176 73.5178 12.0255C73.5178 12.3872 73.6456 12.7049 73.9026 12.9788C74.1588 13.2534 74.4798 13.469 74.8645 13.6262C75.2493 13.7835 75.6692 13.9759 76.1242 14.2035C76.5792 14.431 76.9983 14.6705 77.3838 14.9212C77.7686 15.1719 78.0887 15.5391 78.3457 16.0229C78.602 16.5067 78.7305 17.0759 78.7305 17.729Z" fill="white"/>
<path d="M69.4524 20.9656H66.7232L62.6824 14.9644V14.8773L66.5483 9.03418H69.2249L65.2887 14.8598V14.8949L69.4524 20.9656Z" fill="white"/>
<path d="M62.4549 20.9656H60.199V9.03418H62.4549V20.9656Z" fill="white"/>
<path d="M56.4886 10.4073C57.5846 11.533 58.1322 13.0634 58.1322 14.9994C58.1322 16.9354 57.5846 18.4667 56.4886 19.5924C55.3918 20.7172 53.9925 21.2801 52.2898 21.2801C50.6342 21.2801 49.2548 20.7172 48.1532 19.5924C47.0508 18.4667 46.5 16.9354 46.5 14.9994C46.5 13.0634 47.0508 11.533 48.1532 10.4073C49.2548 9.28159 50.6573 8.71875 52.36 8.71875C54.0156 8.71875 55.3918 9.28159 56.4886 10.4073ZM55.7886 14.9994C55.7886 13.6933 55.4677 12.6698 54.8266 11.9289C54.1848 11.1889 53.3626 10.8184 52.36 10.8184C51.3454 10.8184 50.5089 11.1825 49.8495 11.9122C49.1909 12.6411 48.8613 13.6701 48.8613 14.9994C48.8613 16.3055 49.1822 17.3322 49.824 18.0787C50.465 18.8251 51.2872 19.198 52.2898 19.198C53.3044 19.198 54.1417 18.8307 54.8003 18.0962C55.4589 17.3617 55.7886 16.3295 55.7886 14.9994Z" fill="white"/>
<path d="M102.414 21.2801C100.758 21.2801 99.4056 20.7228 98.3559 19.6091C97.3062 18.4954 96.7817 16.9586 96.7817 14.9994C96.7817 13.0866 97.3206 11.5617 98.3998 10.4248C99.4783 9.28798 100.892 8.71875 102.642 8.71875C104.169 8.71875 105.527 9.12751 106.717 9.94342V12.4974H106.647C105.633 11.39 104.396 10.836 102.939 10.836C101.761 10.836 100.834 11.2088 100.158 11.9553C99.4815 12.7017 99.143 13.7396 99.143 15.0697C99.143 16.4341 99.4487 17.4751 100.061 18.192C100.673 18.9098 101.452 19.2682 102.397 19.2682C103.236 19.2682 103.918 19.0407 104.443 18.5856C104.968 18.1314 105.254 17.4256 105.3 16.4692H101.836V16.3814L102.642 14.3519H107.627C107.65 14.6553 107.662 15.0226 107.662 15.4545C107.662 17.4017 107.178 18.8603 106.21 19.8279C105.242 20.7963 103.976 21.2801 102.414 21.2801Z" fill="white"/>
<path fill-rule="evenodd" clip-rule="evenodd" d="M94.1912 16.3432L93.5646 14.0679C93.559 14.0479 93.5526 14.0279 93.547 14.008C93.2157 12.7705 93.1822 11.4884 93.4408 10.2525C92.9962 10.8984 92.6649 11.6169 92.459 12.3833C91.984 14.1573 92.2315 16.0334 93.1495 17.6229C93.8472 18.8324 94.8809 19.7873 96.1158 20.3844C95.1172 19.25 94.4442 17.8489 94.1912 16.3432ZM103.832 22.9799C102.352 23.2777 100.804 23.1611 99.3743 22.6286L97.0857 22.0322C97.0657 22.0267 97.0458 22.0219 97.0258 22.0163C95.7909 21.6858 94.6638 21.0758 93.7234 20.236C94.0595 20.9425 94.5153 21.5868 95.0749 22.1472C97.4569 24.5287 101.146 24.8065 103.832 22.9799ZM107.406 21.2786L105.743 22.9639C105.728 22.9791 105.714 22.9935 105.7 23.0086C104.794 23.914 103.701 24.5838 102.501 24.9782C103.283 25.0404 104.071 24.9678 104.837 24.7626C106.612 24.2876 108.11 23.1372 109.028 21.546C109.726 20.3381 110.037 18.9642 109.937 17.5958C109.454 19.0256 108.58 20.307 107.406 21.2786ZM110.251 13.6559L110.879 15.932C110.884 15.952 110.89 15.9719 110.896 15.9919C111.227 17.2285 111.26 18.5107 111.002 19.7466C111.446 19.1015 111.778 18.3822 111.984 17.6157C112.459 15.8426 112.211 13.9657 111.294 12.3761C110.595 11.1666 109.562 10.2126 108.327 9.61463C109.325 10.7499 109.998 12.1502 110.251 13.6559ZM100.611 7.01918C102.091 6.72139 103.639 6.83875 105.068 7.37045L107.357 7.96762C107.377 7.97241 107.398 7.97721 107.418 7.9828C108.652 8.31411 109.779 8.92325 110.719 9.76312C110.383 9.05738 109.927 8.41231 109.368 7.85266C106.986 5.47037 103.297 5.19254 100.611 7.01918ZM97.037 8.72127L98.6998 7.03514C98.7141 7.02077 98.7285 7.00561 98.7429 6.99124C99.6489 6.0859 100.742 5.41528 101.942 5.02169C101.16 4.95942 100.371 5.03127 99.6058 5.23645C97.8313 5.71227 96.3329 6.8619 95.4141 8.45302C94.7165 9.66094 94.4059 11.0349 94.5057 12.4033C94.9887 10.9734 95.8628 9.69207 97.037 8.72127Z" fill="white"/>
<path fill-rule="evenodd" clip-rule="evenodd" d="M20.8303 0L26.9516 8.816L20.8303 3.1171L14.7095 8.816L20.8303 0Z" fill="white"/>
<path fill-rule="evenodd" clip-rule="evenodd" d="M18.6673 30.0002H0L12.4557 12.061L2.84491 28.512L18.6673 30.0002Z" fill="white"/>
<path fill-rule="evenodd" clip-rule="evenodd" d="M22.9937 30.0002H41.661L29.2053 12.061L38.8161 28.512L22.9937 30.0002Z" fill="white"/>
<path fill-rule="evenodd" clip-rule="evenodd" d="M20.8302 26.8873C20.6469 26.9125 20.6659 27.079 20.5656 27.3027C20.4883 27.4742 20.3386 27.6569 20.2927 27.9142C20.2052 28.4103 20.2669 29.0941 20.0601 29.431C19.5198 29.431 18.9795 29.431 18.4392 29.431C18.4443 29.0672 18.5945 28.7931 18.5984 28.4299C18.6096 27.3963 18.4398 26.894 18.4829 26.1861C18.5468 25.1413 18.8147 24.0981 18.97 23.0668C19.0199 22.7332 19.1633 22.5494 19.197 22.1946C19.2424 21.722 19.0647 21.0191 18.8052 20.3857C18.6186 19.9289 18.3815 19.5085 18.1926 19.2361C18.0441 19.351 17.7286 19.4609 17.2667 19.4457C16.8144 19.4306 16.2198 19.291 15.6414 19.2434C15.137 19.2025 14.6931 19.3247 14.2088 19.2781C13.3267 19.1935 12.4888 18.9329 12.166 18.8235C11.8885 18.9418 11.5433 18.9345 11.1583 18.8549C10.9021 18.8661 10.6466 18.8774 10.3904 18.8886C10.2705 18.8846 10.2822 18.7568 10.3725 18.7299C10.5905 18.7058 10.8085 18.6817 11.026 18.6582C10.7149 18.652 10.4039 18.6464 10.0928 18.6403C9.95606 18.6397 9.94597 18.4413 10.0771 18.425C10.3439 18.4104 10.6112 18.3953 10.8786 18.3802C10.8791 18.3662 10.8797 18.3521 10.8808 18.3381C10.5787 18.2888 10.2761 18.2395 9.974 18.1902C9.84453 18.1666 9.88152 18.013 9.97848 18.0153C10.2957 18.0343 10.6129 18.0528 10.9301 18.0713C10.9352 18.0489 10.9402 18.0265 10.9458 18.0041C10.7295 17.883 10.4874 17.7989 10.229 17.7378C10.0726 17.6991 10.1371 17.5388 10.2649 17.5427C10.5799 17.5842 10.8842 17.6705 11.1807 17.7894C11.4659 17.8482 11.6627 17.8353 11.6195 17.6257C11.4514 17.4306 11.3628 17.2339 11.4693 17.0327C11.5102 16.9996 11.5444 17.0024 11.5702 17.0416C11.6901 17.3695 11.8908 17.4643 12.0544 17.6515C12.1828 17.7983 12.273 17.9777 12.4008 18.1251C12.5611 18.1845 12.9114 18.3135 13.3205 18.2972C13.6904 18.2826 14.1046 18.1263 14.5586 18.1145C14.9431 18.1044 15.3219 18.2277 15.6845 18.2294C15.9026 18.2299 16.097 18.1167 16.3375 18.0893C16.4894 18.0719 16.6463 18.0887 16.8066 18.0708C17.3228 18.0136 17.6865 17.615 18.1786 17.5007C18.5956 17.4032 18.9117 17.5803 19.2379 17.5433C19.4733 17.5164 19.6083 17.3589 19.7557 17.2524C19.9104 17.1408 20.073 17.0758 20.1245 16.8768C20.194 16.6078 20.1397 16.207 20.152 15.9486C19.9351 16.0585 19.7429 15.1644 19.9351 15.1493C19.9345 14.9464 19.8622 14.7451 19.8891 14.577C19.9261 14.3494 20.0421 14.1869 20.1626 14.04C20.3392 13.8236 20.546 13.6504 20.8302 13.6426C21.1149 13.6504 21.3217 13.8236 21.4982 14.04C21.6187 14.1869 21.7347 14.3494 21.7717 14.577C21.7986 14.7451 21.7263 14.9464 21.7258 15.1493C21.918 15.1644 21.7258 16.0585 21.5089 15.9486C21.5212 16.207 21.4668 16.6078 21.5363 16.8768C21.5879 17.0758 21.7504 17.1408 21.9051 17.2524C22.0525 17.3589 22.1876 17.5164 22.423 17.5433C22.7492 17.5803 23.0653 17.4032 23.4823 17.5007C23.9738 17.615 24.3381 18.0136 24.8543 18.0708C25.0146 18.0887 25.1715 18.0719 25.3228 18.0893C25.5638 18.1167 25.7583 18.2299 25.9758 18.2294C26.3389 18.2277 26.7178 18.1044 27.1023 18.1145C27.5563 18.1263 27.9699 18.2826 28.3403 18.2972C28.7495 18.3135 29.0998 18.1845 29.2601 18.1251C29.3878 17.9777 29.4781 17.7983 29.6064 17.6515C29.7701 17.4643 29.9707 17.3695 30.0907 17.0416C30.1164 17.0024 30.1501 16.9996 30.191 17.0327C30.298 17.2339 30.2095 17.4306 30.0413 17.6257C29.9976 17.8353 30.1949 17.8482 30.4802 17.7894C30.7767 17.6705 31.081 17.5842 31.396 17.5427C31.5238 17.5388 31.5882 17.6991 31.4319 17.7378C31.1735 17.7989 30.9314 17.883 30.715 18.0041C30.7206 18.0265 30.7257 18.0489 30.7307 18.0713C31.0479 18.0528 31.3652 18.0343 31.6824 18.0153C31.7793 18.013 31.8163 18.1666 31.6869 18.1902C31.3848 18.2395 31.0821 18.2888 30.78 18.3381C30.7806 18.3521 30.7817 18.3662 30.7823 18.3802C31.0496 18.3953 31.317 18.4104 31.5837 18.425C31.7149 18.4413 31.7048 18.6397 31.568 18.6403C31.257 18.6464 30.9459 18.652 30.6343 18.6582C30.8523 18.6817 31.0704 18.7058 31.2884 18.7299C31.3786 18.7568 31.3904 18.8846 31.2704 18.8886C31.0143 18.8774 30.7587 18.8661 30.5026 18.8549C30.1176 18.9345 29.7723 18.9418 29.4949 18.8235C29.1721 18.9329 28.3342 19.1935 27.452 19.2781C26.9678 19.3247 26.5233 19.2025 26.0195 19.2434C25.4411 19.291 24.8464 19.4306 24.3941 19.4457C23.9323 19.4609 23.6168 19.351 23.4677 19.2361C23.2794 19.5085 23.0423 19.9289 22.8557 20.3857C22.5962 21.0191 22.4185 21.722 22.4639 22.1946C22.4975 22.5494 22.641 22.7332 22.6909 23.0668C22.8461 24.0981 23.114 25.1413 23.1779 26.1861C23.2211 26.894 23.0513 27.3963 23.0625 28.4299C23.0664 28.7931 23.2166 29.0672 23.2216 29.431C22.6814 29.431 22.1411 29.431 21.6008 29.431C21.394 29.0941 21.4556 28.4103 21.3682 27.9142C21.3222 27.6569 21.1726 27.4742 21.0952 27.3027C20.9944 27.079 21.014 26.9125 20.8302 26.8873Z" fill="white"/>
<path fill-rule="evenodd" clip-rule="evenodd" d="M27.5068 28.3871L36.8587 27.5077L32.7937 20.5498L35.0624 26.5682L27.5068 28.3871Z" fill="white"/>
<path fill-rule="evenodd" clip-rule="evenodd" d="M14.1539 28.3871L4.802 27.5077L8.86703 20.5498L6.59828 26.5682L14.1539 28.3871Z" fill="white"/>
<path fill-rule="evenodd" clip-rule="evenodd" d="M20.8301 6.27086L17.3552 7.96926L20.8301 4.73389L24.3055 7.96926L20.8301 6.27086Z" fill="white"/>
<path d="M22.1027 10.131L20.8303 8.09619L19.5579 10.131L20.8303 12.1658L22.1027 10.131Z" fill="white"/>
</svg>
