<svg width="30" height="30" viewBox="0 0 30 30" fill="none" xmlns="http://www.w3.org/2000/svg">
<circle cx="15" cy="15" r="15" fill="#49A069"/>
<path d="M17.8363 9.08156C18.3872 9.05297 18.8261 8.60134 18.8261 8.04347C18.8261 7.46716 18.3589 7 17.7826 7H12.5652C11.9889 7 11.5217 7.46716 11.5217 8.04347C11.5217 8.60134 11.9607 9.05297 12.5115 9.08153C12.1857 12.0275 11 12.2216 11 15.1848V21.4348C11 22.2979 11.7021 23 12.5652 23H17.7826C18.6457 23 19.3478 22.2979 19.3478 21.4348V15.1848C19.3478 12.2166 18.1629 12.0348 17.8363 9.08156ZM14.8332 13.4502C14.1105 12.9684 13.2534 12.7866 12.4398 12.8872C12.5343 12.6193 12.6441 12.3569 12.7711 12.1029C13.1955 11.2535 13.4595 10.0974 13.5608 9.08694H16.787C16.8883 10.0974 17.1523 11.2535 17.5768 12.1029C17.7536 12.4566 17.8992 12.826 18.0127 13.2051C17.6302 13.3949 16.3741 14.4775 14.8332 13.4502Z" fill="white"/>
</svg>
