<svg width="30" height="30" viewBox="0 0 30 30" fill="none" xmlns="http://www.w3.org/2000/svg">
<circle cx="15" cy="15" r="15" fill="#49A069"/>
<path d="M23.7216 14.4431C23.6588 14.4299 23.5995 14.4175 23.5468 14.4038C22.9492 14.2484 22.6764 14.1632 22.4747 13.7738L21.7108 12.2272C21.4653 11.7532 20.8313 11.3676 20.2976 11.3676H18.9375V9.58159C18.9375 9.26092 18.6766 9 18.3558 9L8.88301 9.00951C8.57089 9.00951 8.33553 9.25754 8.33553 9.58648V10.1144H5.90884C5.40772 10.1144 5 10.5221 5 11.0233C5 11.5244 5.40772 11.9321 5.90884 11.9321H8.33549V12.8032H6.74668C6.24556 12.8032 5.83784 13.2109 5.83784 13.712C5.83784 14.2131 6.24556 14.6209 6.74668 14.6209H8.33549V15.492H7.58452C7.0834 15.492 6.67568 15.8997 6.67568 16.4008C6.67568 16.9019 7.0834 17.3096 7.58452 17.3096H8.33549V18.2207C8.33549 18.5414 8.5964 18.8023 8.91708 18.8023H9.90246C10.0559 19.8541 10.9637 20.6645 12.0575 20.6645C13.1513 20.6645 14.0591 19.8541 14.2126 18.8023H18.2005C18.2212 18.8023 18.2425 18.8009 18.2636 18.7996C18.4159 19.8526 19.3243 20.6645 20.419 20.6645C21.5129 20.6645 22.4207 19.8541 22.5742 18.8023H23.9895C24.5467 18.8023 25 18.3491 25 17.792V16.0775C25 14.7113 24.2306 14.5499 23.7216 14.4431ZM20.419 17.6947C20.8557 17.6947 21.211 18.0499 21.211 18.4865C21.211 18.9231 20.8557 19.2783 20.419 19.2783C19.9824 19.2783 19.6273 18.9231 19.6273 18.4865C19.6273 18.0499 19.9824 17.6947 20.419 17.6947ZM18.9375 14.32V12.2111H19.9769C20.3763 12.2111 20.8691 12.5108 21.052 12.8638L21.7318 14.2401C21.7462 14.2679 21.7612 14.2945 21.7767 14.3199H18.9375V14.32ZM12.8495 18.4865C12.8495 18.9231 12.4942 19.2783 12.0575 19.2783C11.6209 19.2783 11.2658 18.9231 11.2658 18.4865C11.2658 18.0499 11.6209 17.6947 12.0575 17.6947C12.4942 17.6947 12.8495 18.0499 12.8495 18.4865Z" fill="white"/>
</svg>
